<svg width="62" height="54" viewBox="0 0 62 54" fill="none" xmlns="http://www.w3.org/2000/svg">
<path fill-rule="evenodd" clip-rule="evenodd" d="M16.6376 5.41178C9.16096 8.38274 2.93804 10.9086 2.80886 11.0256C2.58174 11.2313 2.57317 11.5894 2.54256 21.723L2.51073 32.208L1.50918 32.2435C0.00502756 32.2968 0.0552271 32.1878 0.00931275 35.5114C-0.0115017 37.0094 0.00380317 38.3636 0.0429834 38.5203C0.196031 39.1288 0.522329 39.2923 1.58693 39.2923H2.57256V52.9252L2.85784 53.1927C3.13026 53.4486 3.24903 53.4608 5.51475 53.4608C6.82606 53.4608 7.98739 53.4069 8.11166 53.3402C8.57387 53.0929 8.60937 52.6154 8.60937 46.679V40.9195L11.2455 38.6274C12.6951 37.3663 13.9146 36.2472 13.9556 36.1401C14.1056 35.7501 14.0236 35.3761 13.723 35.0755C13.5534 34.9059 12.3346 33.8315 11.0134 32.6867L8.61182 30.6059L8.6106 23.6759L8.60937 16.7453H52.471L52.4698 23.6759L52.4692 30.6059L50.4734 32.331C46.9166 35.4055 46.8652 35.4642 47.1235 36.1383C47.1646 36.2442 48.384 37.3626 49.8343 38.6238L52.471 40.917V46.6777C52.471 52.6154 52.5065 53.0929 52.9687 53.3402C53.093 53.4069 54.2598 53.4608 55.5828 53.4608C57.9183 53.4608 57.9783 53.4541 58.2391 53.1768C58.5048 52.8933 58.506 52.8743 58.5378 46.1231L58.5697 39.3535L59.3704 39.3223C61.1366 39.2525 61.1195 39.2904 61.0711 35.6026C61.0258 32.1749 61.0797 32.2968 59.5712 32.2435L58.5697 32.208L58.5078 21.6869L58.446 11.1664L58.1381 10.9423C57.7163 10.6362 30.8062 -0.0134555 30.4872 1.27638e-05C30.3471 0.0061346 24.115 2.44143 16.6376 5.41178ZM24.4412 4.37595C21.1213 5.69645 15.2584 8.02645 11.4126 9.55325L4.42076 12.3289V32.1462H6.63812V23.8969C6.63812 18.1141 6.67913 15.5582 6.77525 15.3476C6.85055 15.183 7.04706 14.9865 7.21235 14.9111C7.63966 14.7165 53.4407 14.7165 53.868 14.9111C54.0333 14.9865 54.2299 15.183 54.3052 15.3476C54.4013 15.5582 54.4423 18.1141 54.4423 23.8969V32.1462H56.6596V12.3363L55.8283 12.0014C53.7364 11.1584 30.5203 1.96147 30.5007 1.96759C30.4885 1.97127 27.7618 3.05485 24.4412 4.37595ZM23.8076 8.08093C23.6619 8.11093 23.4403 8.24867 23.3148 8.38703C23.111 8.61232 23.0865 8.8676 23.0865 10.7323C23.0865 12.7826 23.092 12.8291 23.3773 13.0599C23.6558 13.2858 23.9576 13.2956 30.5405 13.2956C37.1228 13.2956 37.4246 13.2858 37.7031 13.0599C37.9884 12.8291 37.9939 12.7832 37.9939 10.7225C37.9939 8.69986 37.9835 8.60987 37.7136 8.33989L37.4332 8.05951L30.7523 8.04359C27.078 8.03441 23.9527 8.05155 23.8076 8.08093ZM24.9959 10.7085V11.4474H36.0845V9.96893H24.9959V10.7085ZM15.6881 18.5261L15.3857 18.8286L15.3869 35.4373C15.3876 50.9814 15.4016 52.073 15.6024 52.4734C15.7206 52.709 16.004 53.0262 16.2324 53.1786L16.6481 53.4565L32.9685 53.4559C50.913 53.4553 49.8845 53.5 50.3731 52.698C50.613 52.305 50.6216 52.0895 50.6222 46.6673C50.6228 41.315 50.6112 41.0303 50.3871 40.7536L50.1521 40.4628L44.8431 40.4267L39.5342 40.3912V29.9172L38.9294 29.3123H28.4535L28.4187 24.0034L28.3844 18.6945L28.093 18.4594C27.8156 18.2347 27.5273 18.2237 21.8964 18.2237H15.9906L15.6881 18.5261ZM17.2902 20.2268C17.2578 20.3119 17.2456 22.3768 17.2633 24.8158L17.2958 29.2505L21.8847 29.2829L26.4743 29.3154V20.0719H24.7663L24.7271 22.116C24.6757 24.8017 24.8679 24.6303 21.8964 24.6303C19.7145 24.6303 19.6833 24.6266 19.3846 24.3279C19.0882 24.0322 19.0821 23.9838 19.0821 22.0487V20.0719H18.2159C17.6349 20.0719 17.33 20.1227 17.2902 20.2268ZM20.983 20.2354C20.9487 20.3248 20.9365 20.921 20.956 21.5595L20.9916 22.7209L21.8847 22.757L22.7785 22.7931V20.0719H21.9123C21.3062 20.0719 21.0271 20.1209 20.983 20.2354ZM20.983 31.324C20.9487 31.4134 20.9365 32.0096 20.956 32.6482L20.9916 33.8095L21.8847 33.8456L22.7785 33.8817V31.1605H21.9123C21.3062 31.1605 21.0271 31.2095 20.983 31.324ZM32.2289 31.2377C32.1812 31.2854 32.142 31.8976 32.142 32.598V33.8713H33.9982L33.9633 32.5465L33.9284 31.2224L33.1221 31.1862C32.6789 31.1667 32.2773 31.1899 32.2289 31.2377ZM17.2339 35.8426V40.401H26.4743V31.2836H24.7498V33.1765C24.7498 34.9053 24.7271 35.0981 24.4939 35.3944L24.2386 35.7189H19.5927L19.3374 35.3944C19.1042 35.0981 19.0821 34.9053 19.0821 33.1765V31.2836H17.2339V35.8426ZM28.4456 35.8426V40.401H37.686V31.2836H35.8378V33.2334C35.8378 35.8689 36.0068 35.7189 33.0407 35.7189C30.0563 35.7189 30.2448 35.8811 30.1928 33.2665L30.1536 31.2836H28.4456V35.8426ZM8.49551 33.4795C8.25063 34.0703 7.98188 34.1174 4.84623 34.1174H1.95669V37.4441H4.94725C7.45539 37.4441 7.9831 37.4753 8.21267 37.6357C8.36327 37.741 8.48632 37.9044 8.48632 37.9981C8.48632 38.0918 8.53775 38.2001 8.59958 38.2387C8.72691 38.3171 11.5987 35.8652 11.5418 35.7275C11.5216 35.6797 11.0061 35.2041 10.3964 34.6721C9.78601 34.1395 9.14259 33.572 8.96567 33.4116L8.64488 33.1195L8.49551 33.4795ZM50.9926 34.3898C50.2133 35.073 49.5588 35.673 49.5386 35.7238C49.4823 35.8652 52.3517 38.3183 52.4808 38.2387C52.5427 38.2001 52.5941 38.0918 52.5941 37.9981C52.5941 37.9044 52.7171 37.741 52.8677 37.6357C53.0973 37.4753 53.625 37.4441 56.1332 37.4441H59.1237V34.1174H56.2342C54.3964 34.1174 53.2369 34.0684 53.0477 33.9821C52.8843 33.9074 52.6737 33.6889 52.58 33.4967L52.4092 33.1471L50.9926 34.3898ZM4.45015 45.4215L4.48198 51.5508H6.5769L6.64057 39.2923H4.41831L4.45015 45.4215ZM54.4423 45.457V51.6224L55.5204 51.5869L56.5984 51.5508L56.6621 39.2923H54.4423V45.457ZM17.2902 42.5271C17.2578 42.6116 17.2456 44.6771 17.2633 47.1161L17.2958 51.5508L21.8847 51.5832L26.4743 51.6157V42.3722H24.7498V44.2749C24.7498 46.1084 24.7388 46.1904 24.4523 46.5235L24.1554 46.8694L22.0959 46.9085C19.8621 46.9514 19.4543 46.8736 19.2211 46.3625C19.1378 46.1788 19.0821 45.3211 19.0821 44.2143V42.3722H18.2159C17.6349 42.3722 17.33 42.423 17.2902 42.5271ZM20.9303 43.6658V44.9593H22.7785V42.3722H20.9303V43.6658ZM28.4456 46.9936V51.6157L37.6248 51.5508L37.6566 46.9618L37.6891 42.3722H35.8378V44.3435C35.8378 47.0524 35.9345 46.9716 32.7793 46.9085C30.1144 46.8559 30.246 46.9863 30.1928 44.3404L30.1536 42.3722H28.4456V46.9936ZM32.142 43.6658V44.9593H33.9902V42.3722H32.142V43.6658ZM39.5342 46.9924V51.6126H48.7746V42.3722H46.9264V44.33C46.9264 47.0432 47.1168 46.8694 44.1544 46.8694C41.1926 46.8694 41.3824 47.0432 41.3824 44.33V42.3722H39.5342V46.9924ZM43.2306 43.6658V44.9593H45.0782V42.3722H43.2306V43.6658Z" fill="black"/>
</svg>
