<svg width="32" height="36" viewBox="0 0 32 36" fill="none" xmlns="http://www.w3.org/2000/svg">
<path fill-rule="evenodd" clip-rule="evenodd" d="M8.53289 0.138195C7.77681 0.537475 7.29334 1.76428 7.6432 2.39564C7.71077 2.51766 8.41396 2.97563 9.57086 3.65063C11.563 4.81256 11.8078 5.02687 12.1338 5.89224C12.2759 6.26835 12.289 6.49347 12.2867 8.46632L12.2844 10.628L10.8946 11.4277L9.50561 12.2278L9.45463 13.3388C9.42683 13.9501 9.40366 14.9815 9.40366 15.631L9.40328 16.8122L8.60356 17.2787L7.80422 17.7455L7.76213 14.4208C7.72506 11.4841 7.70344 11.0458 7.57794 10.667C7.24314 9.65837 6.56545 8.59105 5.85995 7.96201C5.37881 7.53338 1.79571 5.44082 1.54239 5.44082C0.571609 5.44082 -0.391838 7.16074 0.162675 7.90408C0.251104 8.02225 1.07824 8.559 2.01929 9.10849C3.80833 10.1526 4.06473 10.3449 4.37365 10.872C4.75672 11.5254 4.77294 11.7451 4.73895 15.7908L4.7069 19.5496L3.72029 20.1126C3.17774 20.4223 2.61898 20.7602 2.47881 20.8637L2.22395 21.0518L2.26565 24.3549L2.98235 24.7847C3.37661 25.021 3.71874 25.2353 3.74307 25.2604C3.76778 25.2855 3.82493 25.5087 3.8705 25.7562C3.94734 26.1706 3.94155 26.215 3.79674 26.3165C3.52837 26.5042 3.32023 26.8626 3.24339 27.2688C2.93331 28.9034 4.58951 31.2558 6.05225 31.2593C6.33608 31.2597 6.54576 31.1805 7.10529 30.8616C8.09306 30.2985 8.27842 30.1414 8.43211 29.739C8.53598 29.4672 8.55722 29.2463 8.52439 28.7821C8.50045 28.45 8.45334 28.1087 8.41936 28.023C8.36067 27.8743 8.36646 27.8727 8.54872 27.9905C8.65414 28.0585 9.45965 28.5288 10.3393 29.0351C11.2186 29.5417 11.9611 29.9916 11.9893 30.0348C12.0175 30.0784 12.0639 30.3032 12.0928 30.5345C12.1419 30.928 12.1318 30.9654 11.9345 31.1207C11.47 31.486 11.3039 32.3768 11.5375 33.2491C11.9387 34.747 13.3424 36.1074 14.3746 35.9993C14.8078 35.9537 16.1474 35.2085 16.4567 34.8405C16.7494 34.4929 16.849 33.8662 16.717 33.2074L16.6077 32.6649L17.0217 32.8985C17.2491 33.0271 17.4993 33.1321 17.5777 33.1321C17.6557 33.1321 19.9278 31.8493 22.6266 30.2816L27.5335 27.431L27.9262 27.6457C28.2162 27.8044 28.4313 27.8615 28.7483 27.8635C29.1233 27.8662 29.2607 27.8183 29.8403 27.4827C30.2049 27.2715 30.6007 27.0313 30.7196 26.9495C31.0386 26.7297 31.2529 26.2494 31.2726 25.7111C31.2884 25.2739 31.3042 25.2396 31.5591 25.0851C31.7078 24.9955 31.8553 24.8824 31.8866 24.8341C31.9912 24.6739 31.9568 21.6306 31.8487 21.4955C31.795 21.4286 30.1805 20.4702 28.2606 19.3662L24.7698 17.3586V12.307L24.4775 12.1182C24.004 11.8115 17.1356 7.8589 17.0765 7.8589C17.0471 7.8589 16.6625 8.06936 16.2223 8.32692C15.7817 8.5841 15.4014 8.79493 15.3767 8.79493C15.3519 8.79493 15.3315 8.23154 15.3315 7.54342C15.3315 6.16409 15.216 5.4053 14.8862 4.6218C14.4754 3.64445 13.6776 2.63157 12.9134 2.11606C12.7203 1.98593 11.8221 1.45227 10.9178 0.929805C9.16077 -0.0846146 9.03373 -0.126705 8.53289 0.138195ZM8.59004 0.876516C8.30236 1.16458 8.12203 1.61484 8.1672 1.9338C8.18806 2.08362 8.37225 2.23113 9.01017 2.60995L9.8265 3.09418L9.91068 2.76209C10.013 2.35934 10.2822 1.9087 10.5428 1.70365L10.7355 1.55189L9.93269 1.07963C9.49132 0.819752 9.07003 0.606596 8.99627 0.605824C8.92252 0.605052 8.73987 0.727075 8.59004 0.876516ZM11.0178 2.08826C10.739 2.30759 10.3872 3.04784 10.4474 3.28764C10.4799 3.41778 10.656 3.56722 11.0124 3.76647C11.9472 4.28932 12.4794 4.91759 12.7655 5.83779C12.8871 6.22896 12.9134 6.55757 12.9134 7.7002C12.9134 8.88491 12.9319 9.10308 13.04 9.19267C13.2389 9.35794 14.1672 9.38227 14.4615 9.23013L14.7075 9.1027L14.7063 7.68127C14.7044 5.99959 14.6117 5.46438 14.1591 4.52989C13.7374 3.65835 12.9698 2.84203 12.0758 2.31416C11.7186 2.10293 11.3796 1.93032 11.3224 1.93032C11.2653 1.93032 11.1278 2.00137 11.0178 2.08826ZM1.04773 6.37686C0.761209 6.67767 0.552688 7.1843 0.604432 7.45267C0.617947 7.52295 0.997148 7.79905 1.4474 8.06588L2.26565 8.55089L2.40699 8.13269C2.4846 7.90254 2.68772 7.55539 2.85878 7.36154L3.16925 7.0086L2.99046 6.89623C2.39231 6.5205 1.5505 6.06485 1.4559 6.06485C1.3945 6.06485 1.21108 6.20502 1.04773 6.37686ZM3.46967 7.60211C3.17736 7.84809 2.93292 8.33966 2.93061 8.68681C2.92906 8.90808 2.98235 8.96098 3.53339 9.2811C4.24661 9.69544 4.6957 10.1561 5.04903 10.8357L5.30582 11.33L5.34598 12.9515C5.39001 14.7339 5.36491 14.6525 5.91363 14.8046C6.24649 14.8965 6.70292 14.8382 6.97207 14.6695L7.15394 14.5552L7.12421 12.8256C7.09641 11.1925 7.08366 11.0667 6.89406 10.5701C6.42798 9.35061 5.67112 8.45628 4.54511 7.79364C4.16822 7.57199 3.8288 7.39089 3.79057 7.39089C3.75234 7.39089 3.60792 7.48588 3.46967 7.60211ZM13.6409 10.3797C11.7889 11.4605 10.2563 12.3622 10.235 12.3834C10.2138 12.4047 10.9185 12.8383 11.8009 13.3473L13.4046 14.2725L13.6567 14.1273C17.4252 11.956 20.241 10.3048 20.2429 10.265C20.246 10.211 17.1394 8.40145 17.0572 8.40956C17.0305 8.41226 15.4933 9.29886 13.6409 10.3797ZM12.9134 10.0148C12.9134 10.2218 12.9385 10.2326 13.1524 10.1183C13.3586 10.0078 13.342 9.91246 13.1084 9.86766C12.9451 9.83638 12.9134 9.86033 12.9134 10.0148ZM17.302 12.5599C14.7391 14.0528 13.9525 14.5451 14.0259 14.6111C14.1981 14.7664 17.0217 16.3612 17.124 16.3612C17.1788 16.3612 18.7454 15.4757 20.6055 14.3934C23.1742 12.899 23.9647 12.4047 23.8913 12.3386C23.704 12.1699 20.8909 10.589 20.7835 10.5921C20.7237 10.5936 19.1571 11.4795 17.302 12.5599ZM9.92149 16.9601C9.89214 19.2202 9.89523 21.0946 9.92844 21.1251C9.96126 21.1553 10.6726 21.5746 11.5093 22.0565C12.0361 22.3597 12.5624 22.6628 13.0887 22.9667C13.1211 22.9852 13.1474 21.1282 13.1474 18.8395V14.678L11.8017 13.9041C11.2726 13.6002 10.744 13.2955 10.2154 12.9905L9.97478 12.8507L9.92149 16.9601ZM20.7917 14.8367L17.3985 16.8149L17.3785 20.9629C17.3673 23.2443 17.3873 25.0994 17.4229 25.0847C17.4584 25.0704 19.0018 24.1811 20.8527 23.1084L24.218 21.1583L24.2211 18.4673C24.223 16.9871 24.2473 15.1182 24.2755 14.3134C24.3056 13.4508 24.2975 12.8526 24.2558 12.8549C24.2168 12.8569 22.6579 13.7489 20.7917 14.8367ZM13.6154 19.1063V23.2683L15.1199 24.1398C15.947 24.6194 16.6842 25.0349 16.7579 25.0631C16.883 25.111 16.8915 24.8527 16.8915 20.9788V16.8435L15.5072 16.0465C14.7457 15.6078 14.0081 15.1807 13.8687 15.0969L13.6154 14.9444V19.1063ZM5.34714 18.0382V20.8039L5.54331 20.9324C5.81747 21.112 6.66585 21.1151 6.9377 20.9371L7.1412 20.8039V15.273L6.9265 15.3564C6.65311 15.4622 5.84142 15.4615 5.56146 15.3549L5.34714 15.273V18.0382ZM8.58425 18.0066L7.80422 18.4634L7.76522 19.7462C7.72777 20.9815 7.71888 21.0371 7.53121 21.2371C7.13618 21.658 6.32179 21.8067 5.56802 21.5951C5.06602 21.4541 4.79842 21.1549 4.73471 20.6625L4.68412 20.269L3.92495 20.7116C3.30209 21.0745 3.1901 21.1672 3.30093 21.2275C3.37507 21.268 6.61912 23.1381 10.51 25.3832L17.5839 29.4648L24.2581 25.5867C27.9289 23.4536 30.9316 21.6901 30.9312 21.6673C30.9304 21.6449 29.5527 20.8317 27.8694 19.8601L24.8088 18.0942L24.7458 19.7431C24.7115 20.6502 24.659 21.4151 24.6288 21.4425C24.5528 21.5136 17.3035 25.718 17.1672 25.7705C17.0672 25.8088 9.88172 21.7345 9.54113 21.446C9.42065 21.3445 9.40366 21.1224 9.38513 19.4407L9.36427 17.5498L8.58425 18.0066ZM23.2426 17.7926C23.2205 17.8502 23.2128 18.1394 23.2256 18.4352C23.2453 18.8889 23.2719 18.977 23.3955 19.0005C23.4762 19.016 23.5723 18.9812 23.609 18.9233C23.7102 18.7638 23.6913 17.8876 23.5843 17.7807C23.46 17.6563 23.2928 17.6621 23.2426 17.7926ZM23.2619 19.6114C23.2333 19.64 23.2097 19.8242 23.2097 20.0207V20.3783L22.6834 20.6903C22.3127 20.91 22.1567 21.0487 22.1567 21.1583C22.1567 21.2564 22.2165 21.3228 22.3177 21.3375C22.4853 21.3615 23.5005 20.8104 23.6117 20.6351C23.6862 20.5173 23.6994 19.862 23.6306 19.6829C23.5828 19.5585 23.3584 19.5149 23.2619 19.6114ZM2.86844 22.8451L2.88968 24.0174L7.84322 26.8803C10.5675 28.4551 12.8404 29.7707 12.8937 29.8043C12.9702 29.8518 12.9914 29.612 12.9914 28.6983V27.5314L9.30558 25.4033C7.61385 24.4275 5.92328 23.4513 4.23348 22.4743L2.84681 21.6731L2.86844 22.8451ZM24.6138 26.0949L17.9446 29.9734L17.9229 31.1311C17.9106 31.7848 17.9314 32.2768 17.9708 32.2617C18.009 32.2471 21.0287 30.4974 24.681 28.3736L31.322 24.5125V23.3621C31.322 22.7292 31.3135 22.2125 31.3027 22.2137C31.2919 22.2152 28.2822 23.9614 24.6138 26.0949ZM4.37636 25.8454C4.62388 27.214 4.79881 27.987 4.90886 28.1998C5.04942 28.4717 5.37456 28.7261 5.49002 28.6547C5.56493 28.6087 6.09164 26.5907 6.03951 26.5509C6.02329 26.5386 5.71167 26.359 5.34714 26.1521C4.98223 25.9447 4.60226 25.7223 4.50263 25.6574C4.32114 25.54 4.32114 25.54 4.37636 25.8454ZM30.3667 25.7775L29.9963 25.9818V26.8282L30.247 26.6815C30.5655 26.4953 30.7937 26.1076 30.7621 25.8068L30.7374 25.5728L30.3667 25.7775ZM28.7502 26.7189L28.0115 27.1553L28.3212 27.2978C28.8591 27.5445 29.3951 27.3036 29.4951 26.7699C29.5913 26.2575 29.538 26.254 28.7502 26.7189ZM3.87977 26.9294C3.74191 27.1047 3.70909 27.2495 3.70909 27.6793C3.70909 28.83 4.48873 30.1186 5.4962 30.6326C5.93911 30.8581 6.24765 30.8392 6.51718 30.5696C6.92418 30.1626 6.90758 29.3278 6.47393 28.411C6.24649 27.9307 6.18972 27.9411 6.0928 28.4802C5.98468 29.0826 5.49311 29.3139 4.98262 29.0022C4.60998 28.7752 4.34392 28.2488 4.18792 27.4321L4.05045 26.7124L3.87977 26.9294ZM6.47509 26.9321C6.4554 26.9958 6.42296 27.0989 6.40365 27.1614C6.38434 27.224 6.48976 27.4762 6.63766 27.7221C7.02651 28.3682 7.22693 28.9574 7.27635 29.6023C7.29991 29.9135 7.33544 30.168 7.35474 30.168C7.46711 30.168 7.86292 29.8101 7.96139 29.6197C8.12164 29.3096 8.10619 28.718 7.922 28.1218C7.74939 27.5634 7.70151 27.5101 7.00141 27.1024C6.61295 26.8761 6.50328 26.8406 6.47509 26.9321ZM12.5674 30.4561C12.5848 30.5333 12.6906 31.0882 12.8018 31.6891C12.9138 32.2907 13.0706 32.8881 13.1513 33.0197C13.3007 33.263 13.656 33.5075 13.739 33.4244C13.7888 33.3746 14.2394 31.5369 14.2394 31.3836C14.2394 31.3319 13.8815 31.0813 13.4443 30.8264C12.4763 30.2622 12.5288 30.2843 12.5674 30.4561ZM12.0959 31.679C11.8689 32.0204 11.8507 32.6803 12.0515 33.2881C12.3936 34.3219 13.3501 35.3861 14.0564 35.5185C14.4028 35.5834 14.7638 35.4282 14.9059 35.1529C15.1399 34.7007 14.9368 33.3545 14.5653 32.8958L14.4248 32.722L14.3267 33.1595C14.168 33.8693 13.7448 34.089 13.2192 33.7345C12.7404 33.4121 12.5944 33.1132 12.3519 31.9621L12.2453 31.4551L12.0959 31.679ZM14.6673 31.8246C14.6283 32.032 14.6727 32.1706 14.8971 32.5436C15.3149 33.2375 15.5002 33.7978 15.5099 34.3995C15.5149 34.6891 15.5454 34.9262 15.5778 34.9262C15.6103 34.9262 15.7786 34.791 15.9524 34.6261C16.1907 34.3995 16.2702 34.2612 16.2787 34.0604C16.3011 33.5411 16.2582 33.2426 16.0914 32.7552C15.9157 32.242 15.869 32.2015 14.77 31.5976C14.7399 31.5809 14.6935 31.6833 14.6673 31.8246Z" fill="black"/>
</svg>
