<svg width="72" height="65" viewBox="0 0 72 65" fill="none" xmlns="http://www.w3.org/2000/svg">
<path fill-rule="evenodd" clip-rule="evenodd" d="M2.86235 0.228409C2.02009 0.527516 0.865327 1.60862 0.414435 2.52156C0.0937499 3.16963 0.0855656 3.64731 0.0431548 25.2775L0 47.3713L0.388393 48.2195C0.843006 49.212 1.59077 50.0082 2.54911 50.5208L3.23363 50.8876L17.3542 50.9323L31.4747 50.9777V56.2708H27.6749C23.965 56.2708 23.8638 56.2798 23.465 56.6429C22.8415 57.2106 20.0461 62.4524 20.0461 63.0536C20.0461 63.3378 20.1912 63.7031 20.3772 63.8899C20.7039 64.2158 20.9293 64.221 35.5871 64.221H50.465L50.8259 63.8378C51.0238 63.6272 51.186 63.2507 51.186 63.003C51.186 62.4442 48.3504 57.1592 47.7738 56.6429C47.3676 56.2798 47.2649 56.2708 43.5573 56.2708H39.7567V50.9777L53.8772 50.9323L67.9978 50.8876L68.6823 50.5208C69.6406 50.0082 70.3884 49.212 70.843 48.2195L71.2314 47.3713L71.1882 25.2775C71.1458 3.68674 71.1377 3.16889 70.8192 2.52677C70.4025 1.68749 69.494 0.779004 68.6548 0.362338C68.0089 0.0423973 67.4531 0.0364449 35.7812 0.00817098C7.46652 -0.0178705 3.47991 0.00891496 2.86235 0.228409ZM3.69048 1.79463C2.96354 2.00519 2.04687 2.95683 1.83557 3.71874C1.71949 4.13764 1.66146 10.8013 1.66146 23.93L1.65997 43.5164H69.5766L69.5327 23.5989L69.4888 3.68079L69.1079 3.0677C68.8981 2.73139 68.4509 2.28347 68.1138 2.07439L67.5007 1.69344L35.8646 1.66591C16.4769 1.6488 4.01935 1.69865 3.69048 1.79463ZM30.0796 9.77082C29.1161 10.3192 28.6071 11.3616 28.7113 12.5759L28.7917 13.5208L27.4658 14.6652L26.1399 15.8088L25.34 15.5744C24.378 15.2924 23.471 15.4769 22.7217 16.1079L22.2351 16.5171L21.2403 16.1592C20.3177 15.8274 20.2381 15.7582 20.1473 15.2068C19.8772 13.5603 18.3036 12.4695 16.6466 12.7805C15.9874 12.904 15.0134 13.6867 14.654 14.3809C14.3661 14.9375 14.343 16.0484 14.6034 16.7693C14.7887 17.2805 14.7552 17.3408 13.2463 19.2262C11.7351 21.1146 11.6868 21.1562 11.1518 21.0558C9.94866 20.8303 8.62426 21.5119 8.02902 22.6629C7.70908 23.2812 7.7247 24.5312 8.06027 25.2396C8.88616 26.9792 11.4628 27.3259 12.7426 25.869C13.4487 25.064 13.6845 24.1815 13.4338 23.2783C13.3251 22.8854 13.2217 22.4784 13.2039 22.375C13.186 22.2708 13.8356 21.3393 14.6458 20.3043L16.1205 18.4226H17.221C18.2976 18.4226 18.4405 18.3705 19.4695 17.6079C19.6012 17.5097 20.0275 17.5885 20.6682 17.8274C21.6198 18.1838 21.6659 18.2277 21.75 18.8556C21.8549 19.6354 22.5119 20.555 23.2314 20.9271C24.4643 21.564 26.2054 21.1056 26.9762 19.9405C27.3438 19.3847 27.4167 19.0885 27.4167 18.1577V17.0424L28.7269 15.8988L30.0372 14.7559L30.7165 15C31.965 15.4486 33.3668 14.8713 34.0781 13.6138C35.1496 11.7225 33.7604 9.40103 31.558 9.40103C31.0052 9.40103 30.5134 9.5238 30.0796 9.77082ZM40.3289 9.80207C39.933 10.1972 39.9226 10.2745 39.9278 12.6592C39.933 15.215 39.9903 15.4509 40.6979 15.8281C41.215 16.1034 63.1436 16.1034 63.6607 15.8281C64.3683 15.4509 64.4256 15.215 64.4315 12.6592C64.4368 10.2745 64.4256 10.1972 64.0298 9.80207L63.6235 9.39508H40.7351L40.3289 9.80207ZM31.1436 11.1629C30.4122 11.4345 30.2247 12.6756 30.849 13.1123C31.6406 13.6674 32.6347 13.2239 32.6347 12.3162C32.6347 12.0201 32.5409 11.6555 32.4271 11.5067C32.1957 11.2031 31.5216 11.0231 31.1436 11.1629ZM41.5789 12.625V14.1986H62.7805V11.0513H41.5789V12.625ZM16.4137 14.9665C16.0141 15.4739 16.0067 15.5335 16.2649 16.0997C16.747 17.1585 18.3899 16.7775 18.3899 15.6064C18.3899 14.5417 17.0811 14.1175 16.4137 14.9665ZM23.846 17.4859C23.0528 18.128 23.5796 19.4992 24.619 19.4992C25.1652 19.4992 25.6778 18.9375 25.6778 18.34C25.6778 17.3467 24.6243 16.8556 23.846 17.4859ZM30.9777 19.0022C30.6562 19.3236 30.6466 19.5543 30.6466 26.7872V34.2411H25.5119V28.7292C25.5119 22.7448 25.4732 22.4806 24.6034 22.4806C23.6957 22.4806 23.6897 22.5208 23.6897 28.6213V34.2411H18.5551V30.3021C18.5551 27.0059 18.5134 26.3043 18.2976 25.9955C17.9844 25.5491 17.3802 25.5186 17.0074 25.9308C16.7679 26.1949 16.7329 26.744 16.7329 30.2373V34.2411H11.5982L11.596 31.715C11.593 28.8668 11.468 28.3943 10.692 28.305C9.86607 28.2106 9.77679 28.5283 9.77679 31.5394V34.2411H8.45536C7.22842 34.2411 7.11458 34.2701 6.86235 34.6548C6.61161 35.0387 6.61161 35.0997 6.86235 35.4829L7.13393 35.8973H21.093C31.7299 35.8973 35.0997 35.8497 35.2515 35.6987C35.5074 35.442 35.5074 34.6957 35.2515 34.4397C35.131 34.3192 34.5446 34.2411 33.7604 34.2411H32.4688V26.7872C32.4688 19.5543 32.4591 19.3236 32.1376 19.0022C31.9554 18.8199 31.6942 18.6711 31.558 18.6711C31.4211 18.6711 31.16 18.8199 30.9777 19.0022ZM40.2909 21.0818C39.8177 21.4129 39.7902 22.2321 40.2426 22.4747C40.4546 22.5885 44.4888 22.6466 52.1793 22.6466C59.8698 22.6466 63.904 22.5885 64.1161 22.4747C64.5692 22.2321 64.5409 21.4129 64.0685 21.0818C63.744 20.8549 62.3385 20.8244 52.1793 20.8244C42.0201 20.8244 40.6153 20.8549 40.2909 21.0818ZM9.78869 23.2485C9.36905 23.7812 9.35417 24.1585 9.73512 24.6086C10.4286 25.4278 11.7641 25 11.7641 23.9591C11.7641 22.8861 10.4464 22.4122 9.78869 23.2485ZM40.1213 27.814C40.0119 27.9234 39.9226 28.2068 39.9226 28.4434C39.9226 28.68 40.0119 28.9635 40.1213 29.0729C40.4085 29.3601 63.9502 29.3601 64.2381 29.0729C64.3475 28.9635 64.4368 28.68 64.4368 28.4434C64.4368 28.2068 64.3475 27.9234 64.2381 27.814C63.9502 27.5268 40.4085 27.5268 40.1213 27.814ZM40.1213 34.4397C40.0119 34.5491 39.9226 34.8318 39.9226 35.0692C39.9226 35.3058 40.0119 35.5893 40.1213 35.6987C40.4085 35.9859 63.9502 35.9859 64.2381 35.6987C64.3475 35.5893 64.4368 35.3058 64.4368 35.0692C64.4368 34.8318 64.3475 34.5491 64.2381 34.4397C63.9502 34.1518 40.4085 34.1518 40.1213 34.4397ZM1.70387 46.3281C1.81101 47.5104 2.26488 48.3199 3.11756 48.8497L3.73065 49.2306H67.5007L68.1138 48.8497C68.9665 48.3199 69.4204 47.5104 69.5275 46.3281L69.6176 45.3385H1.61458L1.70387 46.3281ZM33.131 54.9457V58.9204H38.1004V50.9702H33.131V54.9457ZM24.1302 58.7961C23.9085 59.1838 23.3519 60.1897 22.8921 61.0327L22.0573 62.5647H49.192L48.6235 61.5298C48.311 60.9598 47.7701 59.9725 47.4219 59.3348L46.7887 58.1756L43.2731 58.1309L39.7567 58.0856V58.9248C39.7567 59.5945 39.6749 59.846 39.3504 60.1704C38.9457 60.5751 38.9278 60.5774 35.6161 60.5774C32.3036 60.5774 32.2865 60.5751 31.8817 60.1704C31.5573 59.846 31.4747 59.5945 31.4747 58.9278V58.0923H24.532L24.1302 58.7961Z" fill="black"/>
</svg>
