<svg width="32" height="32" viewBox="0 0 32 32" fill="none" xmlns="http://www.w3.org/2000/svg">
<path fill-rule="evenodd" clip-rule="evenodd" d="M25.3157 0.0738739C25.0441 0.160334 24.8328 0.337738 23.8737 1.28272C23.2439 1.90395 22.7501 2.34394 22.7501 2.28469C22.7501 2.14508 22.3895 1.73871 22.1605 1.62023C22.0056 1.53986 21.0378 1.52641 15.5556 1.52641C10.9345 1.52641 9.09256 1.54658 8.99073 1.5991C8.78162 1.70637 8.49374 1.98817 8.38967 2.18735C8.31314 2.33401 8.29841 3.29628 8.29841 8.16559V13.969H5.34531C3.2898 13.969 2.34962 13.9911 2.25099 14.0417C2.04157 14.1493 1.75401 14.4308 1.64994 14.6299C1.57372 14.7756 1.55867 15.5416 1.55867 19.1915V23.5779L0.881401 24.2786C0.313325 24.8668 0.188438 25.0337 0.103899 25.3183C-0.0184258 25.7301 -0.0190661 25.9124 0.100377 26.2476C0.180113 26.4711 0.179472 26.5185 0.097495 26.6092C0.0216022 26.6931 0.00302923 26.9614 0.00302923 27.9771C0.00302923 29.6599 -0.150358 29.5225 1.72583 29.5225H3.1489L3.76309 30.1428C4.6389 31.0273 5.02284 31.1915 5.73278 30.985C6.053 30.8918 6.18878 30.7922 6.80136 30.2005L7.50297 29.5225H30.8283L30.9692 29.3727C31.104 29.2292 31.1101 29.1671 31.1101 27.9579C31.1101 26.7203 31.1069 26.6908 30.9603 26.5528C30.8274 26.4279 30.7377 26.4119 30.1824 26.4119H29.5548V20.6085C29.5548 15.7389 29.5401 14.7769 29.4632 14.6299C29.3592 14.4308 29.0716 14.1493 28.8625 14.0417C28.7642 13.9914 27.8535 13.969 25.8828 13.969H23.0453L26.9751 10.0322C30.8828 6.11744 30.9055 6.09279 31.0144 5.71428C31.1383 5.2839 31.1101 4.95023 30.9183 4.58229C30.7627 4.28353 26.7458 0.280097 26.4567 0.135677C26.147 -0.0189908 25.6859 -0.0439682 25.3157 0.0738739ZM13.3698 13.3375C2.5789 24.1281 1.10492 25.6251 1.10492 25.7942C1.10492 25.9594 1.38095 26.262 3.09991 27.981C4.81886 29.7003 5.12147 29.976 5.28703 29.976C5.45579 29.976 6.95283 28.5023 17.7437 17.7114C28.5346 6.92056 30.0082 5.42352 30.0082 5.25476C30.0082 5.08921 29.7325 4.7866 28.0133 3.06764C26.2943 1.34868 25.9917 1.07265 25.8265 1.07265C25.6574 1.07265 24.1603 2.54664 13.3698 13.3375ZM9.4131 2.64078C9.30038 2.7535 9.30038 13.7785 9.4131 13.8912C9.46562 13.9437 9.76535 13.969 10.3379 13.969H11.1852L11.7008 13.4506L12.216 12.9321H11.435C10.3254 12.9321 10.3722 13.001 10.3722 11.3678C10.3722 9.69562 10.2447 9.82146 11.9365 9.82146C13.5513 9.82146 13.4828 9.77407 13.4828 10.8949V11.6679L17.6303 7.52066L21.7779 3.37377V3.04618C21.7779 2.8659 21.743 2.68369 21.7004 2.64078C21.6431 2.58378 21.0926 2.56329 19.6266 2.56329H17.6303V6.42902L17.4805 6.56992C17.2173 6.81713 16.9841 6.75853 16.2348 6.25578L15.5566 5.80042L14.8783 6.25578C14.1178 6.76589 13.8725 6.82546 13.6237 6.56063C13.4857 6.41365 13.4828 6.37298 13.4828 4.48687V2.56329H11.4869C10.0209 2.56329 9.4701 2.58378 9.4131 2.64078ZM14.5197 3.85923C14.5197 4.57205 14.536 5.15549 14.5556 5.15549C14.5754 5.15549 14.7634 5.03861 14.9735 4.89611C15.2165 4.7312 15.4282 4.63705 15.5566 4.63705C15.685 4.63705 15.897 4.7312 16.14 4.89611C16.3498 5.03861 16.5377 5.15549 16.5576 5.15549C16.5775 5.15549 16.5935 4.57205 16.5935 3.85923V2.56329H14.5197V3.85923ZM23.9621 4.17241C23.3819 4.7581 23.0741 5.11611 23.0741 5.20609C23.0741 5.5388 23.3345 5.8033 23.6617 5.8033C23.7322 5.8033 23.915 5.68802 24.0678 5.54713L24.3457 5.29127L25.2491 6.19974C25.7458 6.69961 26.2325 7.1508 26.3302 7.20268C26.6731 7.38425 27.092 7.10277 27.092 6.69064C27.092 6.52285 26.944 6.34416 26.1066 5.50037L25.1213 4.50768L25.3615 4.26175C25.5466 4.07218 25.6017 3.96362 25.6017 3.78686C25.6017 3.48713 25.3845 3.2761 25.0759 3.2761C24.8719 3.2761 24.7649 3.36224 23.9621 4.17241ZM21.8531 6.29613C21.6315 6.45112 21.5675 6.67751 21.6744 6.92441C21.7241 7.03872 22.1615 7.52514 22.6463 8.0058C23.1311 8.48677 23.5279 8.91075 23.5279 8.94822C23.5279 9.03179 22.996 9.56208 22.9124 9.56208C22.8794 9.56208 22.4263 9.13939 21.9056 8.62255C21.3846 8.10571 20.9021 7.67949 20.8335 7.67533C20.4281 7.65099 20.1579 7.86746 20.1579 8.21651C20.1579 8.39039 20.2965 8.55882 21.1461 9.41926C22.1679 10.4536 22.4574 10.6598 22.8916 10.6624C23.2615 10.6646 23.4421 10.5663 23.933 10.0956C24.6109 9.44552 24.7675 8.98984 24.5062 8.42817C24.4332 8.2719 23.9884 7.77652 23.3848 7.18058C22.3146 6.12353 22.1967 6.05532 21.8531 6.29613ZM18.835 9.46377C18.534 9.57105 17.7222 10.3425 17.591 10.6457C17.4376 11.0002 17.475 11.4412 17.6867 11.7691C17.9179 12.1277 19.1453 13.3311 19.4255 13.4742C19.6785 13.6033 20.1534 13.6113 20.4355 13.4912C20.7596 13.3532 21.5566 12.4896 21.6411 12.1847C21.8009 11.6093 21.6876 11.3906 20.7224 10.4139C19.7124 9.39204 19.4322 9.25115 18.835 9.46377ZM18.8754 10.7472C18.7252 10.9003 18.6025 11.0684 18.6025 11.1212C18.6025 11.2449 19.8383 12.4784 19.9622 12.4784C20.0692 12.4784 20.6116 11.9673 20.6116 11.8667C20.6116 11.7783 19.3048 10.4696 19.2167 10.4696C19.1789 10.4696 19.0252 10.5945 18.8754 10.7472ZM11.4091 11.3768V11.8952H12.4459V10.8583H11.4091V11.3768ZM13.8069 14.677C13.4354 14.7532 13.2199 14.9028 12.6435 15.4856C11.8317 16.3066 11.8013 16.208 13.3371 17.7438C14.8732 19.2796 14.7746 19.2495 15.5956 18.4374C15.9002 18.1364 16.2089 17.7755 16.2812 17.6359C16.458 17.2945 16.4612 16.7505 16.288 16.3668C16.1154 15.9842 14.9658 14.8573 14.6494 14.7606C14.2907 14.6507 14.0512 14.6271 13.8069 14.677ZM2.67305 15.0837C2.61445 15.1423 2.59555 16.0693 2.59555 18.8582V22.5551L6.74308 18.4089V15.0059H4.74713C3.28083 15.0059 2.73037 15.0267 2.67305 15.0837ZM7.77996 16.1878V17.3698L8.81685 16.3345C9.54535 15.6069 9.85373 15.2556 9.85373 15.1525C9.85373 15.0065 9.85053 15.0059 8.81685 15.0059H7.77996V16.1878ZM21.6303 15.3805L21.2594 15.7549V16.6765C21.2594 17.1834 21.2758 17.5981 21.2956 17.5981C21.3152 17.5981 21.5031 17.4815 21.7132 17.339C21.9562 17.1741 22.1682 17.0796 22.2963 17.0796C22.4247 17.0796 22.6367 17.1741 22.8798 17.339C23.0898 17.4815 23.2775 17.5981 23.2973 17.5981C23.3172 17.5981 23.3335 17.015 23.3335 16.3021V15.0059H22.0007L21.6303 15.3805ZM24.3704 16.9387V18.8716L24.2202 19.0125C23.957 19.26 23.7242 19.2011 22.9749 18.6984L22.2963 18.2433L21.6181 18.6984C20.8579 19.2085 20.6123 19.2684 20.3634 19.0035C20.2312 18.8623 20.2226 18.7919 20.2226 17.8213V16.7889L18.1488 18.862L16.075 20.9348V23.5955C16.075 25.5787 16.0949 26.2761 16.1528 26.3341C16.2656 26.4468 28.3274 26.4468 28.4401 26.3341C28.5528 26.2214 28.5528 15.1964 28.4401 15.0837C28.3831 15.0267 27.8323 15.0059 26.3664 15.0059H24.3704V16.9387ZM13.8392 15.8394C13.7323 15.9054 13.5882 16.0232 13.5187 16.1014L13.3925 16.2432L14.1156 16.9666L14.839 17.69L15.0096 17.5305C15.2344 17.3208 15.3779 17.0367 15.3321 16.8926C15.2825 16.7357 14.2341 15.7187 14.1226 15.719C14.0736 15.7193 13.9462 15.7731 13.8392 15.8394ZM9.33016 18.8245C8.97055 19.1841 9.00354 19.2392 10.4224 20.6585C11.4974 21.7334 11.7344 21.9403 11.8916 21.9403C12.0457 21.9403 12.2391 21.7818 12.9753 21.052C13.7989 20.2361 13.8716 20.1448 13.8716 19.9293C13.8716 19.6241 13.657 19.4128 13.3477 19.4128C13.1517 19.4128 13.0508 19.4861 12.5433 19.9959C12.2237 20.3168 11.9339 20.5794 11.899 20.5794C11.8641 20.5794 11.3946 20.1419 10.856 19.6072C9.76631 18.5254 9.67568 18.479 9.33016 18.8245ZM7.74762 20.4753C7.64067 20.5224 7.32909 20.7955 7.05562 21.0827C6.62332 21.5362 6.55223 21.6444 6.51284 21.9083C6.43022 22.4587 6.54294 22.6646 7.41395 23.552C8.44155 24.5985 8.80436 24.7644 9.43232 24.4749C9.72852 24.3385 10.531 23.5325 10.63 23.2721C10.7247 23.023 10.7116 22.6864 10.5963 22.4078C10.4654 22.0911 9.05797 20.6674 8.7195 20.5089C8.41753 20.3677 8.02365 20.3539 7.74762 20.4753ZM7.8581 21.7645C7.70824 21.9172 7.58559 22.07 7.58559 22.1036C7.58559 22.185 8.8937 23.4956 8.97504 23.4956C9.06022 23.4956 9.59435 22.9679 9.59435 22.8837C9.59435 22.7953 8.28752 21.4865 8.19946 21.4865C8.16167 21.4865 8.00828 21.6118 7.8581 21.7645ZM13.8399 23.1709L12.6743 24.3381H13.1969C13.6593 24.3381 13.7358 24.3551 13.8604 24.488C14.0535 24.6936 14.0493 25.0481 13.8514 25.2341C13.7102 25.3667 13.6397 25.375 12.6672 25.375H11.6329L11.1173 25.8935L10.6021 26.4119H12.7473C14.4842 26.4119 14.9068 26.3949 14.9664 26.3232C15.0189 26.2598 15.0349 25.6258 15.0228 24.1191L15.0058 22.0037L13.8399 23.1709ZM17.2528 22.4142C17.118 22.5577 17.1119 22.6195 17.1119 23.8287C17.1119 25.5009 16.9845 25.375 18.6765 25.375C20.3487 25.375 20.2226 25.5025 20.2226 23.8104C20.2226 22.1382 20.35 22.264 18.6583 22.264C17.4203 22.264 17.3908 22.2673 17.2528 22.4142ZM25.5482 22.4142C25.3551 22.6198 25.3592 22.9743 25.5571 23.1604C25.6932 23.2881 25.7765 23.3013 26.4531 23.3013C27.1493 23.3013 27.2085 23.291 27.3401 23.1511C27.5332 22.9455 27.5288 22.591 27.3309 22.4049C27.1948 22.2772 27.1118 22.264 26.4349 22.264C25.739 22.264 25.6795 22.2743 25.5482 22.4142ZM4.99338 23.3093C4.71991 23.388 3.7269 24.3343 3.59305 24.6436C3.39579 25.099 3.51556 25.5009 3.99013 25.9777C4.4077 26.3975 4.61808 26.498 5.00075 26.4612C5.30368 26.4321 5.3088 26.4346 5.2169 26.5656C4.86177 27.0728 5.52175 27.6864 6.27332 27.548C6.61692 27.4846 7.67237 26.433 7.77164 26.0555C7.86482 25.7007 7.77644 25.3661 7.50137 25.0301C7.12767 24.5745 6.8004 24.3842 6.38892 24.3842H6.03635L6.13434 24.1953C6.40461 23.6721 5.68186 23.1107 4.99338 23.3093ZM18.1488 23.8197V24.3381H19.1857V23.3013H18.1488V23.8197ZM4.92742 24.6952L4.57581 25.0516L4.75258 25.2284L4.92934 25.4054L5.39815 24.9363L5.86695 24.4675H5.63735C5.51119 24.4675 5.37925 24.4387 5.34371 24.4035C5.30112 24.3609 5.16022 24.4598 4.92742 24.6952ZM25.0297 24.488C24.8366 24.6936 24.8408 25.0481 25.0387 25.2341C25.1793 25.3661 25.251 25.375 26.1938 25.375C27.1608 25.375 27.2044 25.3693 27.3401 25.2248C27.5332 25.0192 27.5288 24.6648 27.3309 24.479C27.1903 24.3468 27.1186 24.3381 26.1758 24.3381C25.2087 24.3381 25.1652 24.3436 25.0297 24.488ZM5.93196 25.8941C5.55089 26.2784 5.5051 26.3469 5.63127 26.3469C5.71261 26.3469 5.83973 26.3792 5.91339 26.4186C6.03059 26.4814 6.09079 26.4468 6.39692 26.141L6.74629 25.7913L6.56376 25.6165L6.38123 25.4413L5.93196 25.8941ZM1.04023 27.9672V28.4857H2.10625L1.59102 27.9672C1.30762 27.6819 1.06745 27.4488 1.05784 27.4488C1.04792 27.4488 1.04023 27.6819 1.04023 27.9672ZM9.04356 27.9672L8.52833 28.4857H30.0733V27.4488H9.55912L9.04356 27.9672Z" fill="black"/>
</svg>
