<svg width="30" height="29" viewBox="0 0 30 29" fill="none" xmlns="http://www.w3.org/2000/svg">
<path fill-rule="evenodd" clip-rule="evenodd" d="M14.0922 0.097644C13.5582 0.316451 7.79685 3.46304 7.59265 3.64734C7.47112 3.75737 7.31572 3.95162 7.24734 4.07967C7.12333 4.31153 7.12271 4.32832 7.10686 8.28766L7.09132 12.2625L3.88723 13.9782C1.92575 15.0284 0.600475 15.7721 0.469315 15.8962C0.35152 16.0077 0.20482 16.2007 0.143281 16.3251C0.0351209 16.5426 0.0304589 16.7095 0.0155402 20.6378L0 24.7243L0.147321 25.0251C0.228131 25.1905 0.389438 25.4003 0.505679 25.491C0.62192 25.5818 2.14548 26.3846 3.89127 27.275C7.0074 28.8639 7.07298 28.894 7.46584 28.9195L7.86616 28.9453L9.1532 28.305C9.8609 27.9529 10.485 27.6247 10.54 27.5756C10.6022 27.5199 10.6401 27.4037 10.6401 27.2685C10.6401 27.008 10.4679 26.8175 10.232 26.8175C10.1453 26.8175 9.62718 27.0491 9.07985 27.3322C8.53283 27.6154 8.06818 27.8469 8.04704 27.8469C8.02622 27.8469 8.00913 26.1375 8.00913 24.0479V20.2487L9.82516 19.3222C10.8552 18.7966 11.8849 18.2695 12.9136 17.7414L14.1861 17.0868L14.1848 20.9085L14.1839 24.7302L13.0003 25.3306C12.3495 25.6607 11.7708 25.9762 11.7145 26.0312C11.5747 26.1679 11.5812 26.5005 11.7267 26.646C11.9352 26.8542 12.1372 26.7936 13.4224 26.1347L14.6429 25.5093L21.3066 28.9052H22.2216L25.3959 27.2803C27.1416 26.3867 28.6633 25.5827 28.7774 25.4938C28.8918 25.4046 29.0652 25.1749 29.1634 24.9832L29.3421 24.6344V20.6039C29.3421 18.3873 29.3201 16.5871 29.2933 16.6035C29.2666 16.62 29.2135 16.5299 29.1755 16.4034C29.0581 16.0108 28.764 15.7902 27.3493 15.0321C26.1816 14.4068 26.0259 14.3073 26.0579 14.2066C26.3447 13.3056 26.419 12.6231 26.3118 11.8694C26.2279 11.2782 26.1054 11.0858 25.8061 11.0774C25.6731 11.0737 25.5718 11.1166 25.4676 11.2204L25.3191 11.369L25.3946 11.8554C25.5948 13.1399 25.2383 14.2716 24.3587 15.1453C23.6675 15.8321 22.9159 16.1697 21.9618 16.2222C20.8572 16.2831 19.9229 15.921 19.1322 15.1254C18.3888 14.3776 18.0518 13.5614 18.0565 12.5196C18.0627 11.0902 18.8261 9.86188 20.11 9.21417C20.6259 8.95402 21.112 8.84276 21.7355 8.84151C22.6996 8.84027 23.5276 9.15822 24.2474 9.80656C24.713 10.2258 24.9014 10.2737 25.141 10.0341C25.4164 9.75901 25.2911 9.47182 24.6826 8.98231C24.1629 8.56396 23.4673 8.21213 22.856 8.05797C22.2384 7.90257 21.3081 7.9035 20.6489 8.06077C19.0119 8.45083 17.6668 9.79599 17.2767 11.4327C17.116 12.1065 17.1176 13.0284 17.2804 13.6397C17.3466 13.8887 17.4135 14.1463 17.4284 14.2122C17.4526 14.3176 17.3109 14.4102 16.2781 14.9641L15.1004 15.5953L15.1151 11.7951L15.1297 7.99457L18.1895 6.43215L21.2494 4.86943L21.278 5.68312C21.3081 6.54311 21.3402 6.64692 21.6043 6.74762C21.7585 6.80605 22.0065 6.72649 22.115 6.58352C22.2213 6.44365 22.2179 4.56733 22.111 4.26771C21.9897 3.92862 21.7865 3.66537 21.5068 3.48666C21.1105 3.23304 15.327 0.138359 15.107 0.0619015C14.8335 -0.0332048 14.3713 -0.0167321 14.0922 0.097644ZM13.8808 1.22182C13.4982 1.42229 12.1344 2.15175 10.8502 2.84267L8.51543 4.09925L10.793 5.25607C12.0459 5.8926 13.4252 6.59688 13.8585 6.82128L14.646 7.22906L15.603 6.7355C16.1292 6.46417 17.507 5.76019 18.6651 5.17122C19.8228 4.58193 20.7624 4.09366 20.7524 4.08589C20.6374 3.99265 14.8888 0.946763 14.7567 0.908844C14.5963 0.863156 14.4984 0.898277 13.8808 1.22182ZM8.00913 8.56427V12.2806L8.62421 12.6075C8.96236 12.7875 10.3069 13.5089 11.6123 14.2104C12.9177 14.9121 14.031 15.5036 14.086 15.5244C14.1808 15.5608 14.1861 15.3594 14.1861 11.7861V8.00949L12.5991 7.19736C11.726 6.75073 10.3364 6.03961 9.51062 5.6166L8.00913 4.84767V8.56427ZM22.6878 11.7615C22.2741 12.1939 21.7706 12.7213 21.5689 12.9339C21.3669 13.1462 21.1829 13.3202 21.1599 13.3202C21.1369 13.3202 20.883 13.1005 20.5961 12.8322C20.3092 12.5637 20.0108 12.32 19.9328 12.2902C19.7492 12.2203 19.5387 12.3001 19.4172 12.486C19.2407 12.7555 19.338 12.909 20.1678 13.6705C20.5921 14.0596 21.0008 14.399 21.0763 14.4248C21.1649 14.4546 21.2659 14.4441 21.3597 14.395C21.4399 14.353 22.0848 13.7072 22.7929 12.96C23.8869 11.8053 24.0802 11.5753 24.0802 11.4287C24.0802 11.1962 23.8558 10.9752 23.6199 10.9752C23.4636 10.9752 23.3421 11.0778 22.6878 11.7615ZM4.4818 14.6856C2.80905 15.586 1.45798 16.3384 1.47912 16.358C1.52481 16.399 2.7587 17.0356 5.50808 18.4351C6.6018 18.9921 7.53328 19.4396 7.57804 19.4294C7.70702 19.4005 13.6114 16.3838 13.6129 16.3462C13.6139 16.3192 9.66976 14.1793 7.92334 13.2596L7.52303 13.0486L4.4818 14.6856ZM25.4754 15.2537C24.9899 15.9959 23.8742 16.7521 22.887 17.0073C21.2034 17.4427 19.277 16.814 18.2069 15.4794C18.0618 15.2985 17.9185 15.1502 17.8884 15.1502C17.8113 15.1502 15.6726 16.3055 15.6745 16.3462C15.6757 16.3823 21.5851 19.3986 21.7147 19.4297C21.7831 19.4459 24.8109 17.9325 27.0453 16.7658L27.8655 16.3375L27.0739 15.9117C26.6919 15.7063 26.3102 15.4999 25.9292 15.2929L25.5761 15.1002L25.4754 15.2537ZM0.0295264 20.6981C0.0295264 22.9471 0.036675 23.8671 0.0453775 22.7426C0.0537692 21.6181 0.0537692 19.7778 0.0453775 18.6533C0.036675 17.5288 0.0295264 18.4488 0.0295264 20.6981ZM0.873361 20.8097C0.888591 24.4607 0.890766 24.5241 1.00732 24.6829C1.09341 24.8004 1.92606 25.2526 4.06688 26.3445C5.68462 27.1694 7.02761 27.845 7.05123 27.8457C7.07485 27.8466 7.09412 26.1378 7.09412 24.0486V20.2499L4.07745 18.7155C2.41837 17.8713 1.01509 17.1621 0.959454 17.1391C0.862483 17.0996 0.858443 17.273 0.873361 20.8097ZM15.102 20.9082L15.1029 24.7302L18.1339 26.2742C19.8011 27.1237 21.1904 27.827 21.2214 27.8376C21.2581 27.85 21.278 26.5319 21.278 24.0526V20.2487L19.6907 19.4362C18.6623 18.9088 17.6326 18.3817 16.6026 17.8552L15.1011 17.0862L15.102 20.9082ZM25.2958 18.6782L22.193 20.2567V27.8861L25.1373 26.3895C26.7569 25.5662 28.1337 24.8455 28.1978 24.7877C28.2615 24.7302 28.3401 24.5906 28.3727 24.4778C28.4116 24.3432 28.4262 23.0384 28.4153 20.6863L28.3982 17.0999L25.2958 18.6782Z" fill="black"/>
</svg>
