<svg width="73" height="73" viewBox="0 0 73 73" fill="none" xmlns="http://www.w3.org/2000/svg">
<path fill-rule="evenodd" clip-rule="evenodd" d="M15.9122 5.34689C15.2748 5.51121 14.9943 5.9588 14.9943 6.81066V7.61577L14.2401 7.67833C13.3126 7.75534 12.7344 8.14036 12.3858 8.91384L12.1273 9.48656H9.59988C6.9728 9.48656 6.39046 9.59656 6.18626 10.1287C6.13813 10.2538 6.09826 17.3444 6.09826 25.8843V41.4117L6.44477 41.7582C6.79129 42.1047 6.79198 42.1047 9.83365 42.1047H12.876V45.7762H2.41443L2.06791 46.1227L1.7207 46.4692V66.9076L2.08579 67.25L2.44949 67.5917H70.4648L70.8292 67.25L71.1936 66.9076V46.4692L70.8464 46.1227L70.4999 45.7762H60.0383V26.9741L59.6258 26.5616L59.2126 26.149H32.5038V10.3123L32.0906 9.89977L31.6781 9.48656H26.4569L26.1599 8.88634C25.7625 8.08398 25.2709 7.75396 24.3586 7.67833L23.6078 7.61577V6.86498C23.6078 6.27438 23.5349 6.02893 23.2668 5.71748L22.9264 5.32145L19.5602 5.29739C17.7094 5.28501 16.0676 5.30702 15.9122 5.34689ZM17.2536 8.35693V9.06303H21.3485V7.65083H17.2536V8.35693ZM14.4291 11.2515V12.5929H24.1722V11.2515C24.1722 10.0043 24.153 9.91008 23.8904 9.91008C23.6848 9.91008 23.6078 10.0043 23.6078 10.2552C23.6078 10.445 23.4545 10.7791 23.2668 10.9964L22.9264 11.3931L19.7019 11.4364C17.928 11.4605 16.2704 11.4419 16.0174 11.3952C15.4343 11.2865 14.9943 10.8183 14.9943 10.3075C14.9943 10.0043 14.9276 9.91008 14.7117 9.91008C14.4491 9.91008 14.4291 10.0043 14.4291 11.2515ZM8.3575 25.7956V39.8455H30.2439V11.7458H26.4597L26.4102 13.0294C26.3346 15.0116 26.9568 14.8521 19.279 14.8521H12.8636L12.5171 14.5056C12.2029 14.1921 12.1699 14.0456 12.1699 12.9524V11.7458H8.3575V25.7956ZM13.3202 17.1767C12.6986 17.7583 12.5769 17.8188 12.3129 17.6772C11.9121 17.4627 11.2321 17.627 10.9701 18.0017C10.5432 18.6109 10.6938 19.1279 11.5264 19.9151C11.9485 20.3146 12.3968 20.6419 12.5219 20.6419C12.9544 20.6419 13.5154 20.2417 14.4649 19.2572C15.3133 18.3771 15.4178 18.2073 15.4178 17.7123C15.4178 17.0715 15.1304 16.7366 14.4663 16.6039C14.0819 16.5269 13.9376 16.5991 13.3202 17.1767ZM17.433 17.9144C17.0322 17.9955 16.5475 18.6054 16.5475 19.0289C16.5475 19.2083 16.7008 19.5335 16.8878 19.7515L17.2288 20.1475L21.7947 20.1901C24.3063 20.2135 26.5676 20.195 26.8206 20.1482C27.8128 19.966 28.182 18.8907 27.4793 18.2307L27.1156 17.8883L22.4314 17.8697C19.8552 17.8594 17.6056 17.8793 17.433 17.9144ZM13.2555 23.0331C12.7014 23.544 12.6051 23.5818 12.053 23.5075C11.274 23.403 10.7584 23.8265 10.7584 24.5698C10.7584 24.9672 10.887 25.1885 11.4439 25.7454C12.4814 26.7829 12.7681 26.7328 14.2435 25.2573C15.2906 24.2109 15.4178 24.0266 15.4178 23.5625C15.4178 22.8846 15.0191 22.4776 14.3556 22.4776C13.9733 22.4776 13.7196 22.6055 13.2555 23.0331ZM16.894 24.0947C16.4732 24.5154 16.4416 25.1397 16.817 25.6038L17.0872 25.9373L22.1138 25.9771L27.1403 26.0177L27.4924 25.6664C27.9558 25.2023 27.9578 24.5553 27.4972 24.0947L27.1507 23.7481H17.2405L16.894 24.0947ZM13.2156 28.8944C12.7804 29.289 12.4731 29.4726 12.3892 29.3887C12.1596 29.1604 11.5195 29.2416 11.1303 29.5482C10.5219 30.0261 10.614 30.6662 11.4129 31.5208C11.9657 32.1114 12.1479 32.2207 12.581 32.2207C13.0362 32.2207 13.226 32.0887 14.2559 31.0526C15.2865 30.0171 15.4178 29.826 15.4178 29.3688C15.4178 28.9789 15.3264 28.7802 15.0459 28.5595C14.4608 28.0996 13.9988 28.1841 13.2156 28.8944ZM32.5038 34.8876C32.5038 41.0569 32.4908 41.3835 32.2336 41.7011L31.9634 42.0339L23.5493 42.0724L15.1353 42.1116V45.7762H35.3275V28.4083H32.5038V34.8876ZM37.5868 37.0919V45.7762H57.7791V28.4083H51.7074V33.5834L51.343 33.9258C50.9841 34.2634 50.9353 34.2689 47.9253 34.3115C46.2456 34.3349 44.7241 34.3177 44.544 34.2723C44.3638 34.2269 44.0909 34.0647 43.9376 33.9113C43.6798 33.6542 43.6584 33.4328 43.6584 31.0202V28.4083H37.5868V37.0919ZM45.9177 30.1732V31.9381H49.4482V28.4083H45.9177V30.1732ZM17.1635 29.7002C16.5117 30.0219 16.3721 30.9281 16.894 31.4499L17.2405 31.7972H27.2586L27.5508 31.4245C27.9166 30.9604 27.9255 30.376 27.5742 29.9415L27.304 29.608L22.3846 29.5798C19.1649 29.5613 17.3608 29.6025 17.1635 29.7002ZM13.3202 34.6862C12.6986 35.2672 12.5769 35.3277 12.3129 35.1867C11.9121 34.9722 11.2321 35.1365 10.9701 35.5105C10.5432 36.1197 10.6938 36.6374 11.5264 37.4247C11.9485 37.8241 12.3968 38.1514 12.5219 38.1514C12.9544 38.1514 13.5154 37.7512 14.4649 36.7667C15.3133 35.8866 15.4178 35.7168 15.4178 35.2211C15.4178 34.5803 15.1304 34.2455 14.4663 34.1128C14.0819 34.0358 13.9376 34.1087 13.3202 34.6862ZM17.433 35.4225C17.0315 35.505 16.5475 36.1149 16.5475 36.5384C16.5475 36.7179 16.7008 37.0431 16.8878 37.2603L17.2288 37.657L21.9364 37.6983C24.525 37.721 26.7849 37.7045 26.9575 37.6612C27.8293 37.4432 28.127 36.3487 27.4793 35.7402L27.1156 35.3978L22.4314 35.3779C19.8552 35.3675 17.6063 35.3875 17.433 35.4225ZM3.98064 56.6489V65.2624H24.1722V48.0354H18.1006V50.5834C18.1006 53.1005 18.0965 53.1356 17.7541 53.478L17.4076 53.8245H14.0366C9.6927 53.8245 10.0523 54.1153 10.0523 50.6034V48.0354H3.98064V56.6489ZM12.3115 49.8003V51.5652H15.8414V48.0354H12.3115V49.8003ZM26.4315 56.6489V65.2624H46.4828V48.0354H40.5521V50.4432C40.5521 52.9437 40.4373 53.535 39.9107 53.7372C39.6123 53.8513 33.3021 53.8513 33.0044 53.7372C32.4777 53.535 32.3622 52.9437 32.3622 50.4432V48.0354H26.4315V56.6489ZM34.6214 49.8003V51.5652H38.2929V48.0354H34.6214V49.8003ZM48.7421 56.6489V65.2624H68.9344V48.0354H62.8621V50.6233C62.8621 54.1126 63.2223 53.8245 58.8578 53.8245H55.5068L55.1603 53.478C54.8179 53.1356 54.8137 53.1005 54.8137 50.5834V48.0354H48.7421V56.6489ZM57.073 49.8003V51.5652H60.6028V48.0354H57.073V49.8003Z" fill="black"/>
</svg>
