<svg width="68" height="51" viewBox="0 0 68 51" fill="none" xmlns="http://www.w3.org/2000/svg">
<path fill-rule="evenodd" clip-rule="evenodd" d="M0.346858 0.272311L0 0.544622V16.5225L0.346858 16.7948C0.786586 17.1401 1.18762 17.1401 1.62735 16.7948L1.9742 16.5225V2.10058H14.2134V11.4335L14.5364 11.7557C14.8508 12.0694 14.9135 12.0778 16.8335 12.0778C18.947 12.0778 19.3572 11.9873 19.595 11.4665C19.818 10.9781 19.7751 10.7787 19.3565 10.3611C18.9822 9.98777 18.9357 9.97795 17.6454 9.97795H16.3192V2.10058H25.5317V9.97795H24.1442C22.8455 9.97795 22.735 9.9983 22.4332 10.3001C22.0054 10.7261 22.0054 11.3297 22.4332 11.7557C22.747 12.0694 22.8096 12.0778 24.7296 12.0778C26.8438 12.0778 27.2533 11.9873 27.4911 11.4665C27.5896 11.2518 27.6374 9.65932 27.6374 6.62389V2.10058H39.7451V34.3961H27.6571L27.6142 32.4962C27.5748 30.7227 27.5516 30.576 27.2716 30.2967L26.9719 29.9984H14.8931L14.5532 30.3163C14.2183 30.6301 14.2134 30.6637 14.2134 32.5159V34.3961H1.9742V27.2557C1.9742 20.4753 1.96154 20.1005 1.72796 19.812C1.38532 19.3909 0.58818 19.3909 0.246248 19.812C0.00985008 20.104 0 20.5953 0 32.4871V44.8583L0.276501 45.1082C0.511492 45.3215 0.825985 45.3678 2.39212 45.424L4.23054 45.49L4.49367 46.2669C5.37805 48.8854 8.08677 50.5088 10.7976 50.0455C11.7573 49.8806 12.7669 49.4427 13.5464 48.8517C14.2352 48.3296 15.0682 47.1133 15.3462 46.2241L15.5952 45.4261L33.6916 45.4268L51.7873 45.4275L52.0223 46.1658C52.3213 47.1035 53.0453 48.1941 53.7439 48.7598C56.9465 51.3517 61.5042 50.101 62.9078 46.2444L63.2069 45.424H64.9559C66.6452 45.424 66.7183 45.4128 67.1095 45.0843L67.5148 44.7446L67.4845 32.3166C67.4683 25.4821 67.4374 21.0346 67.4156 22.4348C67.3783 24.8947 67.3691 24.9719 67.1349 24.7613C67.0026 24.6413 66.0408 24.2602 64.9995 23.9142L63.1055 23.2854L60.6712 15.9646C58.9608 10.8223 58.1602 8.58762 57.9808 8.45708C57.7669 8.30127 56.4315 8.27109 49.7885 8.27109H41.8508V0.644282L41.205 0H0.693715L0.346858 0.272311ZM30.9801 4.38856C30.3201 4.67561 30.1773 5.52131 30.7057 6.01611C30.9984 6.28982 31.1194 6.30175 33.7099 6.30175C36.3616 6.30175 36.4144 6.29614 36.6958 5.99786C37.22 5.4406 37.0209 4.5949 36.3068 4.34645C35.6876 4.13098 31.4972 4.16397 30.9801 4.38856ZM30.7247 8.98696C30.3321 9.37788 30.3025 9.9583 30.6529 10.3899C30.8963 10.6903 30.9646 10.6994 32.8361 10.6994C34.7069 10.6994 34.7751 10.6903 35.0192 10.3899C35.3696 9.9583 35.3401 9.37788 34.9475 8.98696C34.6365 8.67675 34.5598 8.66482 32.8361 8.66482C31.1123 8.66482 31.0357 8.67675 30.7247 8.98696ZM41.8508 22.3828V34.3961H65.4125L65.3781 30.3051L65.3429 26.2141L63.636 25.6449L61.9292 25.0751H50.9782L50.6918 24.7712C50.4259 24.489 50.4055 24.336 50.4055 22.6158C50.4055 21.5975 50.4421 20.669 50.4871 20.5518C50.6081 20.2373 51.2744 19.9369 51.6452 20.0296C52.2728 20.1868 52.4296 20.5286 52.488 21.8663L52.5429 23.1057H56.6869C59.9465 23.1057 60.8175 23.0706 60.7697 22.9422C60.7359 22.8517 60.1062 20.9314 59.3696 18.6751L58.0314 14.5728H52.5113V15.5484C52.5113 17.0363 52.2108 17.5795 51.3827 17.5879C51.1259 17.5907 50.8734 17.4812 50.6918 17.2882C50.4252 17.0047 50.4055 16.8545 50.4055 15.0711C50.4055 12.3382 50.1065 12.5474 54.0788 12.4982C55.8222 12.4765 57.2491 12.414 57.2491 12.36C57.2491 12.3052 57.1105 11.8504 56.9409 11.3486L56.6327 10.4369L41.8508 10.3696V22.3828ZM19.189 15.86C18.0872 16.9591 17.8987 17.2089 17.8987 17.5725C17.8987 18.0862 18.3996 18.6421 18.8619 18.6421C19.0364 18.6421 19.3354 18.5199 19.526 18.3705L19.8729 18.0981V22.3597C19.8729 27.097 19.8708 27.0858 20.7559 27.2564C21.1091 27.3244 21.2434 27.2725 21.5783 26.9384L21.9787 26.5398V18.2336L22.2706 18.4378C22.5767 18.6519 22.9932 18.6989 23.3541 18.5607C23.6799 18.4357 23.9866 17.7458 23.8888 17.357C23.791 16.9689 21.9569 15.0332 21.4257 14.7574C20.7516 14.4072 20.5413 14.5111 19.189 15.86ZM0.063321 32.4927C0.063321 39.3524 0.0787994 42.178 0.0984994 38.7713C0.118199 35.3653 0.118199 29.7528 0.0984994 26.2998C0.0787994 22.846 0.063321 25.633 0.063321 32.4927ZM53.8741 27.3062C53.5068 27.4536 53.1691 27.942 53.1691 28.3266C53.1691 28.4944 53.3147 28.7765 53.4927 28.9541C53.7981 29.2594 53.8966 29.2762 55.3431 29.2762C56.1839 29.2762 56.9782 29.2194 57.1084 29.1499C57.2385 29.0804 57.4172 28.8488 57.5059 28.6348C57.7071 28.1512 57.4827 27.596 56.9859 27.3455C56.6109 27.1567 54.318 27.1272 53.8741 27.3062ZM16.3192 33.2149V34.3961H25.5317V32.033H16.3192V33.2149ZM1.9742 39.9153V43.3339L3.11116 43.296L4.24883 43.2581L4.40572 42.7325C5.02134 40.674 6.88157 39.0717 9.06332 38.7215C10.7688 38.4478 12.6557 39.0654 13.9046 40.3076C14.6116 41.0102 15.3046 42.1647 15.4601 42.8967L15.5502 43.3234H51.8323L51.9224 42.8967C52.2031 41.5751 53.594 39.9006 54.9498 39.2528C58.1482 37.7256 61.9763 39.3854 62.9768 42.7325L63.1344 43.2581L64.2713 43.296L65.409 43.3339V36.4967H1.9742V39.9153ZM8.84029 40.8845C6.48476 41.6509 5.52298 44.3102 6.8478 46.3939C7.24672 47.0214 8.11632 47.6656 8.92261 47.9316C9.54949 48.138 10.8827 48.0109 11.5251 47.6846C12.2378 47.3217 13.068 46.3974 13.3551 45.6465C14.0164 43.9193 13.0715 41.738 11.3513 41.0207C10.6506 40.7287 9.51079 40.667 8.84029 40.8845ZM56.6567 40.8186C55.5605 41.1203 54.8232 41.679 54.2645 42.6293C53.8002 43.4202 53.694 44.7748 54.0274 45.6465C54.3131 46.3925 55.1384 47.3147 55.8616 47.6965C56.6623 48.1183 58.2713 48.1008 59.1367 47.6593C61.334 46.5399 61.8131 43.5529 60.0746 41.818C59.2176 40.9638 57.7198 40.5259 56.6567 40.8186Z" fill="black"/>
</svg>
