<svg width="20" height="19" viewBox="0 0 20 19" fill="none" xmlns="http://www.w3.org/2000/svg">
<path fill-rule="evenodd" clip-rule="evenodd" d="M5.25882 0.909934C-0.0455847 1.91072 0.223968 1.84687 0.0747815 2.1394C0.00113016 2.28369 0 2.38616 0 9.04944C0 15.7125 0.00113016 15.815 0.0747815 15.9593C0.115845 16.0397 0.19948 16.1414 0.260888 16.1851C0.350738 16.249 1.33816 16.4455 5.33812 17.1955L10.304 18.1266L10.4779 18.0601C10.5841 18.0196 10.6922 17.9409 10.7552 17.8586L10.8584 17.7233L10.8695 16.7105L10.8808 15.6976L18.9467 15.6777L19.0819 15.5746C19.1563 15.5179 19.2399 15.4194 19.2678 15.3559C19.317 15.2439 19.3191 15.2491 19.34 15.5347C19.3516 15.6963 19.3609 12.761 19.3605 9.01158C19.3599 5.26214 19.3535 2.34736 19.3462 2.53441C19.3334 2.85689 19.3302 2.86819 19.2821 2.75649C19.2544 2.6915 19.1676 2.5896 19.0892 2.52989L18.9467 2.42101L14.912 2.41121L10.8772 2.40123V1.43491C10.8772 0.617212 10.8678 0.448436 10.8153 0.337865C10.7235 0.144601 10.5308 0.0134975 10.3185 0.000123426C10.2034 -0.00722288 8.41979 0.313565 5.25882 0.909934ZM5.96745 2.01018C3.94213 2.38993 2.04283 2.74594 1.74672 2.80132L1.20856 2.90229V15.1966L1.74672 15.2976C2.04283 15.3531 3.94213 15.7088 5.96745 16.0876L9.64983 16.7766L9.65943 12.913C9.66471 10.7881 9.66471 7.31025 9.65943 5.18472L9.64983 1.31982L5.96745 2.01018ZM0.0184599 9.04944C0.0184599 12.7989 0.0229807 14.3327 0.0284433 12.4579C0.0337176 10.5833 0.0337176 7.51557 0.0284433 5.64076C0.0229807 3.76613 0.0184599 5.3 0.0184599 9.04944ZM10.8772 4.21332V4.8159L11.8906 4.82701L12.9039 4.83832L13.0465 4.947C13.3139 5.15119 13.3678 5.51625 13.1691 5.77695C12.9871 6.01542 12.9212 6.02785 11.8441 6.02785H10.8772V7.23302L11.8906 7.24413L12.9039 7.25544L13.0465 7.36431C13.3139 7.56831 13.3678 7.93337 13.1691 8.19407C12.9871 8.43254 12.9212 8.44516 11.8441 8.44516H10.8772V9.65014L11.8906 9.66144L12.9039 9.67255L13.0465 9.78143C13.3139 9.98543 13.3678 10.3507 13.1691 10.6112C12.9871 10.8498 12.9212 10.8623 11.8441 10.8623H10.8772V12.0674L11.8906 12.0786L12.9039 12.0897L13.0465 12.1985C13.3139 12.4026 13.3678 12.7678 13.1691 13.0283C12.9871 13.267 12.9212 13.2794 11.8441 13.2794H10.8772V14.488H18.1288V3.61073H10.8772V4.21332ZM14.8619 4.8775C14.4986 5.0702 14.3953 5.47123 14.6297 5.77845C14.8026 6.00525 14.9013 6.02785 15.7116 6.02785C16.5229 6.02785 16.6205 6.00525 16.7948 5.77695C16.9935 5.51625 16.9396 5.15119 16.6723 4.947L16.5297 4.83832L15.7525 4.82796C15.1006 4.8191 14.9569 4.8272 14.8619 4.8775ZM7.59136 5.49063C7.50301 5.53847 7.23007 5.85512 6.76763 6.44659L5.83183 7.64347L5.5877 7.95616L4.79732 7.05388C4.25784 6.43793 3.96285 6.13051 3.86773 6.08549C3.38005 5.85399 2.83247 6.41683 3.08752 6.88756C3.14478 6.99304 3.58857 7.51406 4.57938 8.6388L4.83424 8.92813L3.98527 10.0178C3.51831 10.6174 3.10861 11.1654 3.07471 11.2358C2.83228 11.7386 3.47593 12.2814 3.94779 11.9723C4.00373 11.9356 4.39723 11.4588 4.82237 10.9124C5.24733 10.3661 5.61012 9.9099 5.62839 9.89859C5.64666 9.88729 6.06973 10.3437 6.56853 10.9129C7.1939 11.6263 7.51865 11.9682 7.61434 12.0136C8.10164 12.2449 8.64904 11.6815 8.39399 11.2113C8.35763 11.1443 7.9031 10.6037 7.38378 10.0097C6.86445 9.416 6.43403 8.91513 6.42744 8.89686C6.42066 8.8784 6.82904 8.33157 7.33461 7.68171C8.46896 6.22394 8.42865 6.28158 8.4505 6.08643C8.50155 5.63341 7.98693 5.27646 7.59136 5.49063ZM14.8619 7.2948C14.4986 7.48732 14.3953 7.88835 14.6297 8.19576C14.8026 8.42237 14.9013 8.44516 15.7116 8.44516C16.5229 8.44516 16.6205 8.42255 16.7948 8.19407C16.9935 7.93356 16.9396 7.56831 16.6723 7.36431L16.5297 7.25544L15.7525 7.24508C15.1006 7.23641 14.9569 7.24432 14.8619 7.2948ZM14.8619 9.71192C14.4986 9.90443 14.3953 10.3057 14.6297 10.6129C14.8026 10.8395 14.9013 10.8623 15.7116 10.8623C16.5229 10.8623 16.6205 10.8397 16.7948 10.6112C16.9935 10.3507 16.9396 9.98543 16.6723 9.78143L16.5297 9.67255L15.7525 9.66219C15.1006 9.65353 14.9569 9.66163 14.8619 9.71192ZM14.8619 12.129C14.4986 12.3217 14.3953 12.7228 14.6297 13.03C14.8026 13.2568 14.9013 13.2794 15.7116 13.2794C16.5229 13.2794 16.6205 13.2568 16.7948 13.0283C16.9935 12.7678 16.9396 12.4027 16.6723 12.1985L16.5297 12.0897L15.7525 12.0793C15.1006 12.0706 14.9569 12.0787 14.8619 12.129Z" fill="black"/>
</svg>
