<svg width="20" height="20" viewBox="0 0 20 20" fill="none" xmlns="http://www.w3.org/2000/svg">
<path fill-rule="evenodd" clip-rule="evenodd" d="M18.5527 5.625V17.5C18.5527 18.163 18.2893 18.7989 17.8205 19.2678C17.3517 19.7366 16.7158 20 16.0527 20H14.8027V18.75H16.0527C16.3843 18.75 16.7022 18.6183 16.9366 18.3839C17.171 18.1495 17.3027 17.8315 17.3027 17.5V5.625H14.8027C14.3055 5.625 13.8285 5.42746 13.4769 5.07583C13.1253 4.72419 12.9277 4.24728 12.9277 3.75V1.25H6.05273C5.72121 1.25 5.40327 1.3817 5.16885 1.61612C4.93443 1.85054 4.80273 2.16848 4.80273 2.5V13.75H3.55273V2.5C3.55273 1.83696 3.81613 1.20107 4.28497 0.732233C4.75381 0.263392 5.38969 0 6.05273 0L12.9277 0L18.5527 5.625ZM3.05273 14.8125H1.05273V19.8113H2.04148V18.1338H3.04523C3.40357 18.1338 3.70857 18.0617 3.96023 17.9175C4.2144 17.7717 4.40732 17.5742 4.53898 17.325C4.67622 17.0644 4.74544 16.7733 4.74023 16.4788C4.74023 16.1663 4.6744 15.8842 4.54273 15.6325C4.41083 15.3837 4.21157 15.1771 3.96773 15.0363C3.71773 14.8863 3.41273 14.8117 3.05273 14.8125ZM3.73398 16.4788C3.73823 16.6434 3.70173 16.8066 3.62773 16.9538C3.56138 17.082 3.45763 17.187 3.33023 17.255C3.18462 17.3267 3.02374 17.3619 2.86148 17.3575H2.03773V15.6H2.86273C3.13523 15.6 3.34857 15.6754 3.50273 15.8263C3.6569 15.9788 3.73398 16.1962 3.73398 16.4788ZM5.25523 14.8125V19.8113H7.08023C7.5819 19.8113 7.99773 19.7125 8.32773 19.515C8.66168 19.3152 8.92245 19.0132 9.07148 18.6538C9.23482 18.2787 9.31648 17.8271 9.31648 17.2987C9.31648 16.7738 9.23482 16.3258 9.07148 15.955C8.9239 15.5998 8.6657 15.3017 8.33523 15.105C8.00523 14.91 7.58648 14.8125 7.07898 14.8125H5.25523ZM6.24398 15.6187H6.94773C7.2569 15.6187 7.51065 15.6821 7.70898 15.8088C7.91464 15.9444 8.0701 16.1437 8.15148 16.3762C8.24982 16.6279 8.29898 16.9417 8.29898 17.3175C8.30286 17.5668 8.27429 17.8156 8.21398 18.0575C8.17087 18.2488 8.08733 18.4286 7.96898 18.585C7.86023 18.7252 7.71613 18.8339 7.55148 18.9C7.35855 18.9721 7.15366 19.0069 6.94773 19.0025H6.24398V15.6187ZM10.9227 17.8225V19.8113H9.93523V14.8125H13.1202V15.6287H10.9227V17.025H12.9302V17.8225H10.9227Z" fill="white"/>
</svg>
