<svg width="34" height="34" viewBox="0 0 34 34" fill="none" xmlns="http://www.w3.org/2000/svg">
<path fill-rule="evenodd" clip-rule="evenodd" d="M15.3586 0.109985C14.8697 0.321614 14.4735 0.859259 14.3973 1.41536C14.3752 1.57755 14.3242 1.74929 14.2839 1.79709C14.2437 1.84489 13.9006 1.95103 13.5218 2.03311C13.143 2.11519 12.5306 2.27968 12.161 2.39901L11.4889 2.61559L11.2173 2.29122C11.0656 2.11025 10.7996 1.89269 10.6157 1.7994C10.3338 1.65666 10.2175 1.63589 9.81894 1.656C9.38118 1.67809 9.30141 1.70809 8.53796 2.13794C7.00644 3.00094 6.65636 3.59924 7.03216 4.71211L7.16797 5.11427L6.88448 5.36183C6.52879 5.67268 5.76765 6.43317 5.39681 6.84851L5.11463 7.16431L4.71346 7.02916C3.60224 6.6537 3.00328 7.00443 2.14061 8.53529C1.71076 9.29874 1.68076 9.37851 1.65867 9.81627C1.63856 10.2148 1.65933 10.3312 1.80207 10.613C1.89536 10.797 2.11292 11.063 2.29389 11.2146L2.61826 11.4862L2.40168 12.1584C2.28235 12.5279 2.11786 13.1404 2.03578 13.5191C1.9537 13.8979 1.84756 14.2411 1.79976 14.2813C1.75196 14.3215 1.58022 14.3726 1.41803 14.3947C0.853359 14.4721 0.318021 14.8713 0.110018 15.3704C-0.0366726 15.7218 -0.0366726 17.8767 0.110018 18.2281C0.318021 18.7268 0.853359 19.1263 1.41803 19.2038C1.58022 19.2259 1.75196 19.277 1.79976 19.3172C1.84756 19.3574 1.9537 19.7002 2.03578 20.0793C2.11786 20.4581 2.28235 21.0706 2.40168 21.4401L2.61826 22.1122L2.29389 22.3839C2.11292 22.5355 1.89536 22.8015 1.80207 22.9854C1.65933 23.2673 1.63856 23.3837 1.65867 23.7822C1.68076 24.22 1.71076 24.2997 2.14061 25.0632C3.00361 26.5944 3.60191 26.9448 4.71478 26.569L5.11694 26.4332L5.3645 26.7167C5.68293 27.0812 6.51989 27.9182 6.88448 28.2366L7.16797 28.4842L7.03216 28.8864C6.65636 29.9989 7.00644 30.5975 8.53796 31.4602C9.30141 31.8904 9.38118 31.9204 9.81894 31.9425C10.2175 31.9626 10.3338 31.9418 10.6157 31.7991C10.7996 31.7058 11.0656 31.4882 11.2173 31.3072L11.4889 30.9829L12.161 31.1994C12.5306 31.3185 13.143 31.4833 13.5218 31.5654C13.9006 31.6474 14.2437 31.7536 14.2839 31.8014C14.3242 31.8492 14.3752 32.0209 14.3973 32.1831C14.4488 32.5579 14.631 32.9119 14.9103 33.1796C15.2982 33.5514 15.4875 33.593 16.8017 33.593C18.1163 33.593 18.3056 33.5514 18.6935 33.1796C18.9737 32.9106 19.0944 32.6772 19.2236 32.1561L19.3274 31.7358L20.049 31.5762C20.4459 31.4885 21.0732 31.3191 21.4428 31.1998L22.1149 30.9829L22.3865 31.3072C22.5382 31.4882 22.8042 31.7058 22.9881 31.7991C23.27 31.9418 23.3863 31.9626 23.7849 31.9425C24.2226 31.9204 24.3024 31.8904 25.0658 31.4602C26.597 30.5975 26.9474 29.9989 26.5716 28.8864L26.4358 28.4842L26.7193 28.2366C27.0839 27.9182 27.9209 27.0812 28.2393 26.7167L28.4869 26.4332L28.889 26.569C29.5915 26.8063 30.1272 26.7232 30.6045 26.303C30.7894 26.1404 31.0637 25.7452 31.4039 25.1509C31.8973 24.2888 31.9227 24.2246 31.9455 23.7809C31.9652 23.3837 31.9441 23.267 31.8017 22.9854C31.7084 22.8015 31.4909 22.5355 31.3099 22.3839L30.9855 22.1122L31.2021 21.4401C31.3211 21.0706 31.4859 20.4581 31.568 20.0793C31.6501 19.7002 31.7562 19.3574 31.804 19.3172C31.8518 19.277 32.0236 19.2259 32.1858 19.2038C32.7633 19.1247 33.2528 18.7499 33.5231 18.1809C33.6481 17.9175 33.6612 17.7741 33.6612 16.6847C33.6612 15.9938 33.6362 15.495 33.6026 15.5158C33.5703 15.5356 33.5254 15.4775 33.5024 15.3866C33.445 15.1578 33.0316 14.7161 32.731 14.5628C32.5935 14.4926 32.3479 14.4171 32.1858 14.3947C32.0236 14.3726 31.8518 14.3215 31.804 14.2813C31.7562 14.2411 31.6501 13.8979 31.568 13.5191C31.4859 13.1404 31.3211 12.5279 31.2021 12.1584L30.9855 11.4862L31.3168 11.2087C31.7826 10.8187 31.9781 10.3763 31.9448 9.7876C31.9221 9.38379 31.8812 9.27764 31.4622 8.53364C30.6005 7.0041 30.0012 6.6537 28.889 7.02949L28.4869 7.1653L28.2393 6.88181C27.9209 6.51722 27.0839 5.68026 26.7193 5.36183L26.4358 5.11427L26.5716 4.71211C26.9474 3.59924 26.597 3.00094 25.0658 2.13794C24.3024 1.70809 24.2226 1.67809 23.7849 1.656C23.3863 1.63589 23.27 1.65666 22.9881 1.7994C22.8042 1.89269 22.5382 2.11025 22.3865 2.29122L22.1149 2.61559L21.4428 2.39901C21.0732 2.27968 20.4608 2.11519 20.082 2.03311C19.7029 1.95103 19.3601 1.84489 19.3199 1.79709C19.2796 1.74929 19.2286 1.57755 19.2065 1.41536C19.129 0.850689 18.7295 0.315351 18.2307 0.107347C17.8843 -0.0373652 15.6945 -0.0350577 15.3586 0.109985ZM15.8982 1.16714C15.6757 1.21 15.5751 1.418 15.4624 2.06904C15.3961 2.45044 15.3174 2.69998 15.2376 2.77975C15.1529 2.86447 14.814 2.96237 14.1501 3.09423C13.6197 3.19971 12.7923 3.41859 12.3114 3.58078C11.8304 3.74296 11.3491 3.87581 11.2413 3.87581C11.0449 3.87581 10.9532 3.79472 10.3296 3.06819C10.1354 2.84205 10.0204 2.79063 9.78499 2.82458C9.66929 2.84139 8.35435 3.58935 8.19183 3.73077C8.02833 3.87317 8.04877 4.10029 8.2782 4.69661C8.54587 5.39183 8.51587 5.54083 8.02602 5.94002C7.49102 6.37581 6.49121 7.37001 6.02906 7.92512C5.53196 8.52276 5.41889 8.55276 4.69928 8.27553C4.10296 8.0461 3.87584 8.02566 3.73344 8.18916C3.60026 8.34212 2.85659 9.64618 2.8078 9.81265C2.75737 9.98373 2.87241 10.1789 3.15689 10.4067C3.69421 10.8368 3.87848 11.0508 3.87848 11.2436C3.87848 11.3488 3.74596 11.8277 3.58345 12.3087C3.42126 12.7896 3.20238 13.617 3.0969 14.1474C2.96537 14.8113 2.86714 15.1502 2.78242 15.2349C2.70265 15.3147 2.45311 15.3935 2.07171 15.4597C1.15103 15.619 1.12334 15.6582 1.12334 16.7991C1.12334 17.9403 1.15103 17.9795 2.07171 18.1387C2.45311 18.205 2.70265 18.2838 2.78242 18.3635C2.86714 18.4483 2.96537 18.7871 3.0969 19.451C3.20238 19.9814 3.42126 20.8088 3.58345 21.2898C3.74563 21.7704 3.87848 22.2497 3.87848 22.3548C3.87848 22.5477 3.69421 22.7616 3.15689 23.1915C2.87241 23.4196 2.75737 23.6147 2.8078 23.7855C2.85659 23.9523 3.60026 25.2563 3.73344 25.4093C3.87584 25.5728 4.10296 25.5524 4.69928 25.3229C5.41889 25.0457 5.53196 25.0757 6.02906 25.6733C6.49121 26.2285 7.49102 27.2227 8.02602 27.6584C8.51587 28.0576 8.54587 28.2063 8.2782 28.9018C8.04877 29.4982 8.02833 29.7253 8.19183 29.8677C8.35435 30.0091 9.66929 30.7571 9.78499 30.7739C10.0204 30.8078 10.1354 30.7564 10.3296 30.5303C10.9532 29.8037 11.0449 29.7223 11.2413 29.7223C11.3491 29.7223 11.8304 29.8552 12.3114 30.0177C12.7923 30.1799 13.6197 30.3988 14.1501 30.5042C14.814 30.6358 15.1529 30.734 15.2376 30.8187C15.3174 30.8982 15.3961 31.148 15.4624 31.5291C15.6216 32.4498 15.6608 32.4778 16.8017 32.4778C17.943 32.4778 17.9822 32.4498 18.1414 31.5291C18.2077 31.148 18.2864 30.8982 18.3662 30.8187C18.4509 30.734 18.7898 30.6358 19.4537 30.5042C19.9841 30.3988 20.8115 30.1799 21.2924 30.0177C21.7731 29.8552 22.2547 29.7223 22.3625 29.7223C22.5589 29.7223 22.6506 29.8037 23.2742 30.5303C23.4681 30.7558 23.5831 30.8075 23.8168 30.7742C23.9955 30.7488 25.3975 29.9069 25.4621 29.7863C25.5626 29.5984 25.5418 29.4636 25.3256 28.9018C25.0662 28.2284 25.0942 28.051 25.5122 27.7155C25.9938 27.3288 27.2032 26.1292 27.6041 25.6407C28.0653 25.0787 28.1905 25.048 28.9045 25.3229C29.5008 25.5524 29.728 25.5728 29.8704 25.4093C30.0118 25.2468 30.7597 23.9318 30.7766 23.8161C30.8105 23.5808 30.7591 23.4657 30.5329 23.2716C29.8064 22.6479 29.725 22.5563 29.725 22.3598C29.725 22.252 29.8578 21.7704 30.0204 21.2898C30.1825 20.8088 30.4014 19.9814 30.5069 19.451C30.6384 18.7871 30.7367 18.4483 30.8214 18.3635C30.9008 18.2838 31.1507 18.205 31.5318 18.1387C32.4524 17.9795 32.4805 17.9403 32.4805 16.7991C32.4805 15.6582 32.4524 15.619 31.5318 15.4597C31.1507 15.3935 30.9008 15.3147 30.8214 15.2349C30.7367 15.1502 30.6384 14.8113 30.5069 14.1474C30.4014 13.617 30.1825 12.7896 30.0204 12.3087C29.8578 11.8277 29.725 11.3465 29.725 11.2387C29.725 11.0422 29.8064 10.9506 30.5329 10.3269C30.7591 10.1327 30.8105 10.0177 30.7766 9.78232C30.7597 9.66662 30.0118 8.35168 29.8704 8.18916C29.728 8.02566 29.5008 8.0461 28.9045 8.27553C28.2311 8.53496 28.0537 8.50694 27.7181 8.08895C27.3315 7.60735 26.1319 6.39789 25.6434 5.99705C25.0813 5.53588 25.0507 5.41062 25.3256 4.69661C25.5418 4.13491 25.5626 4.00008 25.4621 3.81219C25.3975 3.69154 23.9955 2.84963 23.8168 2.82425C23.5831 2.79096 23.4681 2.84271 23.2742 3.06819C22.6506 3.79472 22.5589 3.87581 22.3625 3.87581C22.2547 3.87581 21.7731 3.74329 21.2924 3.58078C20.8115 3.41859 19.9841 3.19971 19.4537 3.09423C18.7898 2.9627 18.4509 2.86447 18.3662 2.77975C18.2864 2.69998 18.2077 2.45044 18.1414 2.06904C18.0221 1.38042 17.935 1.21956 17.6509 1.16253C17.4241 1.11737 16.1411 1.12066 15.8982 1.16714ZM15.381 4.53806C13.1767 4.79518 10.9631 5.7129 9.16889 7.11387C8.49214 7.64229 7.30609 8.87614 6.81327 9.56443C3.68465 13.9338 3.68465 19.6676 6.81327 24.0334C7.28433 24.691 8.39292 25.857 9.05385 26.39C13.06 29.6218 18.6342 30.0309 23.0722 27.4185C24.6953 26.4628 26.2404 24.9557 27.2583 23.3345C29.6627 19.5044 29.7583 14.5872 27.5039 10.6743C26.9705 9.7487 26.4675 9.08777 25.6579 8.24949C23.6151 6.13418 21.0534 4.86737 18.1467 4.53476C17.4646 4.45696 16.0633 4.45861 15.381 4.53806ZM15.1618 5.75377C10.8197 6.40679 7.20621 9.60333 6.0495 13.8145C4.88322 18.0599 6.27926 22.5328 9.65149 25.3562C14.1452 29.1184 20.7851 28.7568 24.8427 24.5288C26.8627 22.4241 27.9538 19.7144 27.9538 16.8027C27.9538 11.2387 23.8838 6.54458 18.3679 5.74784C17.5108 5.62423 16.0057 5.62686 15.1618 5.75377ZM16.1774 7.37858C15.6839 7.5935 8.2871 11.9715 8.12953 12.1419C7.91592 12.3723 7.79033 12.7979 7.85132 13.082C7.92054 13.4041 8.65597 14.6172 8.87749 14.7751C8.98693 14.8529 9.16856 14.9353 9.28163 14.9584L9.48732 15.0005L9.52029 19.2015L9.55292 23.4024L9.72994 23.6339C10.0929 24.1099 9.63204 24.0808 16.8017 24.0808C23.9714 24.0808 23.5109 24.1099 23.8739 23.6339L24.0505 23.4024L24.1165 15.0005L24.3218 14.9584C24.4352 14.9353 24.6169 14.8529 24.726 14.7751C24.9478 14.6172 25.6833 13.4041 25.7525 13.082C25.8135 12.7979 25.6879 12.373 25.4743 12.1406C25.3101 11.9622 17.8833 7.57306 17.4109 7.37561C17.1436 7.26353 16.4372 7.26551 16.1774 7.37858ZM16.4615 8.55902C16.0327 8.7868 9.17054 12.8032 9.10197 12.8661C9.07 12.8958 9.15274 13.1127 9.28822 13.3553C9.47216 13.684 9.5582 13.7812 9.6383 13.7502C9.69665 13.7278 11.2545 12.8262 13.0999 11.7467C14.9452 10.6671 16.5331 9.7543 16.6283 9.71804C16.7457 9.67354 16.8598 9.6742 16.9804 9.72002C17.0786 9.75727 18.6685 10.671 20.5135 11.7503C22.3582 12.8295 23.9134 13.7304 23.9698 13.7519C24.0446 13.7805 24.1369 13.6744 24.3156 13.3553C24.4517 13.1117 24.5338 12.8955 24.5018 12.8658C24.3921 12.7636 17.0308 8.48189 16.8954 8.44134C16.811 8.41629 16.6452 8.46112 16.4615 8.55902ZM13.7506 12.7254L10.7337 14.4903L10.7001 22.9001H11.7506V20.0114C11.7506 17.7049 11.7688 17.0806 11.841 16.9118C11.9501 16.6567 12.2415 16.3735 12.493 16.2786C12.6163 16.2321 14.0492 16.2087 16.8083 16.2087C20.1697 16.2087 20.9783 16.2255 21.15 16.299C21.4052 16.4084 21.6883 16.6998 21.7833 16.951C21.8288 17.0714 21.8532 18.141 21.8532 20.018V22.9001H22.9037L22.8869 18.6945L22.8698 14.4889L19.8545 12.7247C18.1961 11.7546 16.8232 10.9608 16.8031 10.9608C16.7833 10.9608 15.4097 11.7549 13.7506 12.7254ZM13.6962 14.0528C13.6296 14.0914 13.5333 14.2232 13.4819 14.3459C13.4021 14.5367 13.4018 14.6 13.4803 14.7873C13.6207 15.1235 13.8188 15.172 14.9557 15.1476C16.0729 15.1235 16.1794 15.0803 16.2545 14.6172C16.2878 14.4115 16.2654 14.3502 16.0933 14.1781L15.8936 13.9783L14.8552 13.9803C14.2398 13.9816 13.7677 14.011 13.6962 14.0528ZM17.5105 14.1781C17.3384 14.3502 17.316 14.4115 17.3493 14.6172C17.4244 15.0803 17.5309 15.1235 18.6477 15.1476C19.785 15.172 19.9831 15.1235 20.1235 14.7873C20.202 14.6 20.2013 14.5367 20.1212 14.3446C20.0695 14.2213 19.9679 14.0884 19.8951 14.0492C19.8163 14.0073 19.3459 13.9783 18.7364 13.9783H17.7102L17.5105 14.1781ZM0.0358485 16.7991C0.0358485 17.5029 0.0454081 17.7906 0.0572752 17.4389C0.0688126 17.0868 0.0688126 16.5113 0.0572752 16.1596C0.0454081 15.8078 0.0358485 16.0956 0.0358485 16.7991ZM12.9314 20.1449V22.9001H20.6724V17.3895H12.9314V20.1449ZM14.3324 18.503C13.9543 18.6589 13.8732 19.1286 14.1728 19.4283L14.3647 19.6201H19.2391L19.431 19.4283C19.6713 19.188 19.6835 18.9107 19.4642 18.6559L19.306 18.472L16.8898 18.4585C15.5606 18.4512 14.4099 18.4713 14.3324 18.503ZM14.3324 20.7347C14.0288 20.8573 13.8976 21.243 14.0575 21.5433C14.2193 21.8469 14.2124 21.8462 16.806 21.8482C19.192 21.8505 19.2744 21.8462 19.4128 21.7173C19.7121 21.4384 19.6785 21.0043 19.3423 20.7989C19.1422 20.677 19.0054 20.6704 16.8017 20.674C15.5211 20.6763 14.4099 20.7033 14.3324 20.7347Z" fill="black"/>
</svg>
