<svg width="30" height="40" viewBox="0 0 30 40" fill="none" xmlns="http://www.w3.org/2000/svg">
<mask id="mask0_47_12" style="mask-type:luminance" maskUnits="userSpaceOnUse" x="0" y="0" width="30" height="40">
<path d="M0 0H30V40H0V0Z" fill="white"/>
</mask>
<g mask="url(#mask0_47_12)">
<path fill-rule="evenodd" clip-rule="evenodd" d="M0.857803 0.110053C0.560663 0.244322 0.31874 0.513666 0.168978 0.877361C0.0629139 1.13542 0.0498047 2.83091 0.0498047 16.4392C0.0498047 27.6235 0.072845 31.7632 0.136802 31.9051C0.311192 32.2934 0.927321 32.3531 1.16765 32.0047C1.26697 31.8612 1.28127 29.908 1.28127 16.5533C1.28127 2.68576 1.29239 1.26243 1.40322 1.21928C1.56212 1.15719 28.4016 1.15719 28.5605 1.21928C28.6678 1.26081 28.6825 1.53943 28.6825 3.5454C28.6825 5.42879 28.7023 5.85297 28.7961 5.98925C29.0364 6.33763 29.6526 6.27795 29.827 5.88926C29.8853 5.75942 29.9136 4.94696 29.9124 3.41436C29.9108 1.36323 29.8961 1.10114 29.7686 0.820105C29.6041 0.45883 29.3511 0.201582 29.0432 0.0834416C28.8922 0.0253795 24.6012 0.0007837 14.9576 0.00279972C3.57179 0.00562222 1.04769 0.024573 0.857803 0.110053ZM8.9783 2.55552C8.3729 2.79019 8.13574 3.28049 8.13336 4.2998C8.13137 5.21791 8.30219 5.64169 8.78564 5.91627L9.0935 6.09126H20.8699L21.1781 5.91627C21.6616 5.64169 21.8324 5.21791 21.8304 4.2998C21.8284 3.42605 21.6866 3.01881 21.283 2.72648L21.024 2.53899L15.0589 2.52488C11.7781 2.51721 9.04186 2.53092 8.9783 2.55552ZM9.36323 4.29698V4.84373H20.6005V3.74983H9.36323V4.29698ZM2.92586 7.57185C2.4162 7.88716 2.43566 7.72829 2.43606 11.5213C2.43646 14.7949 2.44361 14.9728 2.58662 15.2111C2.88455 15.7074 2.85158 15.703 6.53047 15.7026C9.70049 15.7026 9.87528 15.6949 10.1097 15.5498C10.5983 15.2477 10.5947 15.2792 10.5947 11.5624C10.5947 7.84563 10.5983 7.87748 10.1097 7.57508C9.87528 7.42992 9.70049 7.42226 6.51538 7.42226C3.35489 7.42226 3.15349 7.43073 2.92586 7.57185ZM28.8716 7.92627L28.6825 8.11779V23.4256C28.6825 37.3122 28.671 38.7375 28.5605 38.7807C28.4016 38.8428 1.56212 38.8428 1.40322 38.7807C1.29596 38.7391 1.28127 38.4605 1.28127 36.4546C1.28127 34.5712 1.2614 34.147 1.16765 34.0107C0.927321 33.6623 0.311192 33.722 0.136802 34.1107C0.0784065 34.2405 0.050202 35.053 0.0513937 36.5856C0.0529828 38.6367 0.0672835 38.8988 0.195197 39.1798C0.359656 39.5411 0.612702 39.7984 0.920567 39.9165C1.22525 40.0338 28.7385 40.0338 29.0432 39.9165C29.3511 39.7984 29.6041 39.5411 29.7686 39.1798C29.9052 38.8795 29.9108 38.2755 29.9124 23.5781C29.9136 12.5358 29.8901 8.23553 29.8285 8.09804C29.6573 7.7166 29.1647 7.6283 28.8716 7.92627ZM3.59046 11.5233V14.453H9.36323V8.59358H8.2855V9.69152C8.2855 10.912 8.21758 11.1604 7.82629 11.3656C7.51087 11.5314 7.16487 11.5136 6.8145 11.3136L6.51538 11.1431L6.21625 11.3136C5.86588 11.5136 5.51948 11.5314 5.20407 11.3656C4.81318 11.1604 4.74485 10.912 4.74485 9.69152V8.59358H3.59046V11.5233ZM5.97631 9.2996C5.97631 9.97337 5.98307 10.0016 6.12528 9.92458C6.31636 9.82055 6.714 9.82055 6.90508 9.92458C7.04729 10.0016 7.05404 9.97337 7.05404 9.2996V8.59358H5.97631V9.2996ZM16.2519 8.71374C16.062 8.78712 15.6922 9.08671 15.2858 9.49677L14.6275 10.1613L14.2557 9.99433C13.7067 9.74757 12.9551 9.8016 12.5031 10.1201C12.0864 10.4133 11.7491 11.0515 11.7491 11.5479C11.7491 12.2225 11.8881 12.4882 12.6703 13.3087C13.7603 14.4526 14.241 14.6699 15.1122 14.4131C15.5261 14.2909 15.6453 14.1926 16.8906 12.9418C17.6244 12.2047 18.2901 11.4951 18.3696 11.3644C18.8864 10.5177 18.6183 9.35484 17.7932 8.86414C17.3594 8.60608 16.6984 8.54157 16.2519 8.71374ZM19.866 9.95724C19.5625 10.2653 19.6209 10.7072 19.9904 10.9012C20.2569 11.0411 21.0311 11.0491 21.2933 10.9145C21.5841 10.7653 21.7152 10.435 21.5976 10.1476C21.4665 9.82619 21.3148 9.76571 20.6406 9.76571C20.1214 9.76571 20.0337 9.78749 19.866 9.95724ZM23.1493 9.9024C22.8867 10.1238 22.8608 10.4806 23.0885 10.7487L23.2811 10.9766H27.2337L27.3807 10.7919C27.5821 10.5399 27.5718 10.1258 27.3593 9.92498C27.1992 9.77337 27.0971 9.76571 25.2515 9.76571C23.5171 9.76571 23.2942 9.77983 23.1493 9.9024ZM15.7517 10.7423C14.7034 11.783 14.5743 11.8314 14.0746 11.3725C13.6833 11.014 13.4533 10.962 13.1891 11.1729C13.0401 11.2919 12.9806 11.4108 12.9806 11.589C12.9806 11.8003 13.091 11.9507 13.694 12.56C14.2045 13.0761 14.4611 13.2813 14.5962 13.2813C14.8428 13.2813 17.4448 10.6665 17.4448 10.4181C17.4448 10.1443 17.1552 9.84353 16.891 9.84353C16.6956 9.84353 16.5053 9.99353 15.7517 10.7423ZM20.009 12.1862C19.6444 12.339 19.5677 12.8648 19.866 13.1676L20.0547 13.3595H24.7641L24.9527 13.1676C25.1824 12.9349 25.1994 12.5898 24.9949 12.3329L24.8479 12.1483L22.5125 12.1321C21.2282 12.1233 20.1016 12.1475 20.009 12.1862ZM2.9207 17.0279C2.4309 17.3311 2.43566 17.2904 2.43566 21.0991V24.5494L3.03352 25.1562L6.44824 25.1558C9.6997 25.1558 9.87528 25.1482 10.1097 25.003C10.5347 24.7401 10.5947 24.52 10.5947 23.2204C10.5947 22.1067 10.5871 22.0515 10.4163 21.8886C10.2276 21.7088 9.90746 21.6685 9.67388 21.7951C9.45063 21.9164 9.36323 22.3059 9.36323 23.1757V23.9845H3.59046V18.1251H4.73373L4.75876 19.3036L4.78339 20.4818L5.03484 20.7096C5.34708 20.9927 5.78047 21.0153 6.2095 20.7705L6.50187 20.604L6.76763 20.7705C7.089 20.9721 7.59668 20.9899 7.86879 20.8088C8.22314 20.5729 8.2855 20.3302 8.2855 19.1835V18.1251H9.34615L9.37475 18.977C9.39859 19.677 9.42957 19.8589 9.54914 19.9927C9.74419 20.2117 10.2284 20.2153 10.4406 20C10.58 19.8584 10.5947 19.7395 10.5947 18.746C10.5947 17.5166 10.5303 17.2884 10.1097 17.0279C9.87528 16.8828 9.70049 16.8755 6.51538 16.8755C3.32986 16.8755 3.15508 16.8828 2.9207 17.0279ZM16.4398 18.121C16.0568 18.2388 15.8602 18.3835 15.2393 19.0036L14.6116 19.6302L14.272 19.4637C13.6245 19.1456 12.7692 19.294 12.2576 19.8129C11.7527 20.3258 11.6001 21.2011 11.9048 21.8398C12.1392 22.3305 13.6308 23.7708 14.0285 23.8897C14.989 24.1768 15.3632 23.9708 17.0726 22.216C18.3402 20.9149 18.4407 20.7903 18.5587 20.3754C18.6405 20.0863 18.6663 19.8258 18.6318 19.6331C18.4407 18.5646 17.3785 17.8319 16.4398 18.121ZM5.97631 18.7916C5.97631 19.427 5.98346 19.4548 6.12528 19.3778C6.20711 19.3331 6.3827 19.2968 6.51538 19.2968C6.64766 19.2968 6.82324 19.3331 6.90508 19.3778C7.04689 19.4548 7.05404 19.427 7.05404 18.7916V18.1251H5.97631V18.7916ZM19.866 19.4105C19.7468 19.5314 19.6769 19.6915 19.6769 19.8435C19.6769 19.9959 19.7468 20.156 19.866 20.277C20.0321 20.4455 20.1226 20.4689 20.6184 20.4689C21.2325 20.4689 21.4812 20.3588 21.6032 20.0343C21.6989 19.7782 21.5603 19.4165 21.3243 19.3077C21.2186 19.2589 20.8897 19.2186 20.5934 19.2186C20.1242 19.2186 20.0305 19.2436 19.866 19.4105ZM23.2422 19.3117C22.9911 19.4351 22.8692 19.7899 22.9824 20.0681C23.1342 20.4391 23.3038 20.4689 25.2892 20.4689C27.0272 20.4689 27.1328 20.4604 27.3251 20.3068C27.4816 20.1818 27.5281 20.0758 27.5281 19.8435C27.5281 19.6113 27.4816 19.5056 27.3251 19.3806C27.132 19.2266 27.0315 19.219 25.2662 19.2242C24.1348 19.2274 23.3447 19.2613 23.2422 19.3117ZM15.7549 20.1951C14.7082 21.2447 14.5672 21.2963 14.048 20.8201C13.5399 20.3544 12.9806 20.4983 12.9806 21.0951C12.9806 21.3213 13.0751 21.4535 13.6587 22.0459C14.6315 23.0333 14.5405 23.0547 16.112 21.4648C17.5135 20.0467 17.6224 19.8605 17.2645 19.4972C16.903 19.1303 16.7433 19.204 15.7549 20.1951ZM20.0158 21.6741C19.6392 21.8406 19.5605 22.2503 19.8366 22.6067L19.9959 22.8124H24.7641L24.9527 22.6208C25.2797 22.289 25.1764 21.8007 24.747 21.6487C24.372 21.516 20.324 21.5378 20.0158 21.6741ZM2.98386 26.4618C2.84085 26.5332 2.65931 26.6993 2.58026 26.8312C2.44559 27.0549 2.43646 27.2896 2.43606 30.5246L2.43566 33.9788L2.67401 34.2542C2.8047 34.4054 3.03868 34.5671 3.19361 34.6131C3.38031 34.6691 4.54941 34.6889 6.67269 34.6728C10.2193 34.6458 10.1172 34.6607 10.4441 34.1167C10.5864 33.8797 10.5939 33.6998 10.5943 30.5064C10.5947 26.7497 10.5971 26.7683 10.0509 26.4707C9.80854 26.3388 9.5408 26.3284 6.51657 26.33C3.62184 26.3316 3.21387 26.3465 2.98386 26.4618ZM13.0286 27.3021C12.6616 27.4352 12.2298 27.8412 12.0808 28.1944C11.9501 28.5045 11.9342 29.1649 12.0506 29.475C12.0951 29.5939 12.2921 29.8657 12.4876 30.0782L12.8435 30.4645L12.517 30.8374C12.1038 31.3104 11.96 31.6531 11.964 32.1584C11.9704 32.9781 12.5317 33.6256 13.3691 33.7793C13.8005 33.8583 14.3717 33.6438 14.8206 33.2337L15.2135 32.8757L15.6353 33.2672C15.9583 33.5668 16.1498 33.6785 16.4509 33.7442C17.1941 33.9059 17.912 33.5559 18.2504 32.8664C18.5893 32.1765 18.4749 31.5439 17.8945 30.8999L17.5282 30.4931L17.7956 30.2298C18.1396 29.8915 18.4455 29.2669 18.4455 28.9024C18.4455 27.9162 17.5846 27.1025 16.6587 27.2138C16.2288 27.2658 15.7478 27.5231 15.4129 27.8807L15.1896 28.119L14.7884 27.7468C14.2128 27.213 13.661 27.0735 13.0286 27.3021ZM3.59046 30.5076V33.4373H9.36323V27.5783H8.2855V28.6601C8.2855 29.6577 8.2716 29.7633 8.10992 30.008C7.9983 30.1766 7.81834 30.3145 7.61654 30.3858C7.31384 30.4927 7.28008 30.4883 6.90706 30.2919L6.51538 30.0855L6.12886 30.2891C5.78008 30.4729 5.71334 30.4838 5.44162 30.4012C5.27637 30.3508 5.05192 30.202 4.94308 30.0705C4.75002 29.8383 4.74485 29.8016 4.74485 28.7049V27.5783H3.59046V30.5076ZM5.97631 28.238V28.898L6.2099 28.8153C6.43831 28.7347 6.64726 28.7496 6.91938 28.8653C7.04133 28.9178 7.05404 28.8609 7.05404 28.2505V27.5783H5.97631V28.238ZM13.2543 28.6113C13.1887 28.7065 13.1347 28.8339 13.1347 28.8936C13.1347 28.9532 13.3901 29.2706 13.7027 29.5988C14.0154 29.927 14.2942 30.273 14.3228 30.3681C14.3951 30.6096 14.2708 30.8153 13.6634 31.4564C13.3726 31.7636 13.1347 32.0713 13.1347 32.1402C13.1347 32.3007 13.406 32.5781 13.5629 32.5781C13.6289 32.5781 13.9558 32.3144 14.2891 31.9922C15.1209 31.1878 15.246 31.1882 16.0699 31.9995C16.3933 32.3176 16.7059 32.5781 16.7647 32.5781C16.9701 32.5781 17.214 32.3374 17.214 32.135C17.214 31.9918 17.0499 31.764 16.6368 31.333C16.1553 30.831 16.0596 30.6883 16.0596 30.4737C16.0596 30.2592 16.1553 30.1165 16.6368 29.6141C17.2362 28.9891 17.3185 28.792 17.0734 28.567C16.8319 28.3448 16.6662 28.4194 16.0544 29.0234C15.5599 29.5121 15.4192 29.6093 15.2079 29.6093C14.9966 29.6093 14.8559 29.5121 14.3614 29.0234C13.7155 28.3855 13.4727 28.2948 13.2543 28.6113ZM20.009 28.7504C19.6444 28.8996 19.5673 29.427 19.866 29.7302C20.0337 29.9 20.1214 29.9218 20.6406 29.9218C21.3148 29.9218 21.4665 29.8613 21.5976 29.5399C21.7152 29.2524 21.5841 28.9222 21.2933 28.773C21.0752 28.6609 20.2629 28.6468 20.009 28.7504ZM23.1294 28.9057C22.93 29.1081 22.8994 29.1871 22.9395 29.3976C23.0368 29.9089 23.094 29.9218 25.2523 29.9218C27.1817 29.9218 27.194 29.9209 27.3605 29.7411C27.5825 29.5012 27.5853 29.0613 27.366 28.8597C27.2174 28.723 27.0458 28.7089 25.2856 28.6875L23.3673 28.6641L23.1294 28.9057ZM19.8442 31.2745C19.6221 31.5148 19.6269 31.8781 19.8553 32.0959C20.0301 32.2628 20.0754 32.2656 22.4203 32.2656H24.807L24.9746 32.085C25.1967 31.8447 25.1919 31.4814 24.9639 31.2636C24.7887 31.0967 24.7434 31.0939 22.3989 31.0939H20.0118L19.8442 31.2745Z" fill="black"/>
</g>
</svg>
