<svg width="29" height="31" viewBox="0 0 29 31" fill="none" xmlns="http://www.w3.org/2000/svg">
<path fill-rule="evenodd" clip-rule="evenodd" d="M27.3 6.85376L15.2688 0.270752C14.6153 -0.0903034 13.8222 -0.0903034 13.1688 0.270752L1.1375 6.85649C0.437701 7.23939 0.00181079 7.97286 0 8.77056V21.8463C0.00181079 22.644 0.437701 23.3775 1.1375 23.7604L13.1688 30.3461C13.8222 30.7072 14.6153 30.7072 15.2688 30.3461L27.3 23.7604C27.9998 23.3775 28.4357 22.644 28.4375 21.8463V8.77192C28.4372 7.97275 28.0011 7.23736 27.3 6.85376ZM14.2188 2.18481L25.2041 8.20044L21.1326 10.4276L10.1473 4.41196L14.2188 2.18481ZM14.2188 14.2161L3.2334 8.20044L7.86953 5.66157L18.8549 11.6772L14.2188 14.2161ZM26.25 21.8518L15.3125 27.8387V16.1069L19.6875 13.7129V18.5911C19.6875 19.1951 20.1772 19.6848 20.7812 19.6848C21.3853 19.6848 21.875 19.1951 21.875 18.5911V12.5153L26.25 10.1213V21.8463V21.8518Z" fill="black"/>
</svg>
