<svg width="35" height="30" viewBox="0 0 35 30" fill="none" xmlns="http://www.w3.org/2000/svg">
<path fill-rule="evenodd" clip-rule="evenodd" d="M1.05301 0.187864C0.662551 0.401797 0.329342 0.771362 0.151822 1.18863C0.0360847 1.46134 0.0294946 2.03328 0.0294946 11.9735C0.0294946 21.5807 0.0389679 22.4904 0.141937 22.7087C0.248202 22.9337 0.246966 22.9645 0.120108 23.256C0.0014871 23.5278 -0.012105 23.6954 0.0072533 24.6606C0.028671 25.7081 0.0373204 25.7688 0.213192 26.0376C0.540635 26.5392 0.698385 26.5811 2.25858 26.5811H3.64784L3.7644 26.9642C3.93781 27.5356 4.35669 28.243 4.81387 28.7369C6.05815 30.0802 7.85106 30.3804 9.3783 29.501C10.2334 29.0091 11.0629 27.9572 11.3615 26.9864L11.4859 26.5807L24.021 26.6211L24.1742 27.062C24.5185 28.0536 25.2179 28.9402 26.047 29.4365C26.7892 29.8807 27.1348 29.9747 28.0059 29.9689C28.9104 29.9626 29.4668 29.7641 30.2169 29.1811C30.852 28.6867 31.2618 28.1297 31.6098 27.2865L31.8953 26.5946L33.0609 26.5681C34.1964 26.5421 34.2323 26.5358 34.4596 26.3325C34.5881 26.2178 34.7619 25.9721 34.8464 25.7861C34.9831 25.4864 35 25.3337 35 24.4139C35 23.7441 34.9761 23.3962 34.9316 23.4285C34.8941 23.4555 34.8637 23.4242 34.8637 23.3586C34.8637 23.2936 34.7562 23.1067 34.6248 22.9438L34.3859 22.6475L34.3838 18.5678C34.3818 14.8707 34.3702 14.4506 34.2607 14.0887C34.1231 13.6348 30.5958 7.11853 30.2774 6.73017C30.1629 6.59044 29.9195 6.40108 29.7366 6.30905C29.4133 6.14619 29.3214 6.14234 26.3732 6.16402L23.3422 6.18618L23.32 3.87146L23.2977 1.55627L23.0951 1.12888C22.9839 0.893747 22.7862 0.598384 22.6556 0.472626C22.1358 -0.0284781 22.7989 -5.00583e-05 11.6004 0.000431742L1.39405 0.00139552L1.05301 0.187864ZM1.44388 1.49025C1.39611 1.51242 1.31167 1.63384 1.25607 1.75912C1.16875 1.95715 1.15516 3.31061 1.15516 11.9243C1.15516 18.3134 1.17946 21.9358 1.22312 22.0697C1.34215 22.4359 1.63376 22.5101 2.95301 22.5101H4.14127L4.67836 21.8891C5.29371 21.1769 5.8135 20.8237 6.58659 20.5925C7.5508 20.3038 8.60068 20.4547 9.50145 21.0107C9.75146 21.1654 10.1411 21.5243 10.4566 21.891L10.9896 22.5101H22.1037V1.8285L21.9361 1.63288L21.7684 1.43677L11.6494 1.44303C6.0841 1.44641 1.49166 1.46761 1.44388 1.49025ZM3.69315 6.89255C3.3517 7.03758 3.02385 7.45725 2.93694 7.86055C2.83644 8.32744 2.83232 16.2791 2.93241 16.7007C2.97113 16.864 3.08233 17.1079 3.17913 17.2423C3.53581 17.7381 3.376 17.7207 7.58993 17.7207H11.4385L11.6688 17.5396C11.7956 17.4394 11.969 17.2365 12.0543 17.0886L12.2096 16.8192V12.317C12.2096 7.47942 12.2178 7.60228 11.8566 7.20766C11.4686 6.78414 11.4748 6.78462 7.55451 6.79088C4.91231 6.79522 3.85708 6.82316 3.69315 6.89255ZM23.6322 7.61722C23.5156 7.67649 23.4007 7.78586 23.376 7.86006C23.3517 7.93475 23.3319 11.2613 23.3319 15.2528V22.5101H24.5111L25.0083 21.9189C26.4333 20.2248 28.5904 19.9622 30.2412 21.2815C30.4965 21.4858 30.8466 21.8457 31.0188 22.0818L31.3318 22.5101H33.1577V21.1533H32.4731C31.6811 21.1533 31.4414 21.0632 31.13 20.6479C30.8553 20.2822 30.8174 20.034 30.8503 18.8217C30.8812 17.6812 30.9768 17.3835 31.4789 16.8665C31.8401 16.4945 32.1679 16.3639 32.7392 16.3639H33.1577V15.0071H26.3609L26.0079 14.8008C25.6158 14.5725 25.3522 14.2496 25.1652 13.7697C25.0519 13.4792 25.0404 13.1819 25.0391 10.4769L25.0375 7.50351L24.4407 7.5064C24.0955 7.50833 23.7545 7.55507 23.6322 7.61722ZM26.1986 10.2716C26.1994 12.3517 26.2212 13.1014 26.2859 13.2508C26.4572 13.6469 26.5149 13.6531 29.7 13.631L32.6688 13.6098L31.1082 10.7424C30.2502 9.16535 29.4841 7.80032 29.4063 7.70925C29.2728 7.55266 29.1777 7.54206 27.7312 7.51796L26.1978 7.49243L26.1986 10.2716ZM4.08938 12.2929V16.3639H11.0493V8.22192H9.35565L9.33258 9.44529C9.31034 10.6142 9.30128 10.6826 9.12788 10.9891C8.83174 11.5123 8.57143 11.6145 7.53021 11.6145C6.66609 11.6145 6.62902 11.6073 6.3477 11.3895C5.88434 11.0305 5.79867 10.7149 5.79702 9.35904L5.79538 8.22192H4.08938V12.2929ZM7.0236 9.21979V10.2172H8.11548V8.22192H7.0236V9.21979ZM17.8914 9.56286C17.6772 9.60044 17.4635 9.95121 17.4635 10.2649C17.4635 10.4803 17.543 10.6301 17.8807 11.0527L18.2979 11.5745H16.3761C14.0622 11.5745 13.9835 11.5991 13.9835 12.3252C13.9835 12.5006 14.0403 12.6471 14.1594 12.7776L14.3357 12.9713L16.3168 12.9949L18.2983 13.0181L17.8807 13.5269C17.5265 13.9586 17.4635 14.0786 17.4635 14.3253C17.4635 14.7228 17.7089 15.0071 18.0529 15.0071C18.2897 15.0071 18.3787 14.9237 19.3202 13.8295C20.7194 12.2023 20.7157 12.3999 19.3758 10.8204C18.3688 9.63369 18.2172 9.50504 17.8914 9.56286ZM5.41686 13.8459C5.38968 13.8777 5.36579 13.9119 5.34437 13.949C5.32295 13.9865 5.30524 14.0256 5.29041 14.067C5.27559 14.1085 5.26488 14.1513 5.25705 14.1952C5.24964 14.239 5.24593 14.2834 5.24593 14.3282C5.24593 14.373 5.24964 14.4173 5.25705 14.4616C5.26488 14.5055 5.27559 14.5479 5.29041 14.5893C5.30524 14.6308 5.32295 14.6703 5.34437 14.7074C5.36579 14.745 5.38968 14.7792 5.41686 14.811C5.57626 14.9974 5.62445 15.0071 6.40949 15.0071C7.19453 15.0071 7.24271 14.9974 7.40211 14.811C7.51744 14.6756 7.56933 14.5262 7.56933 14.3282C7.56933 14.1306 7.51744 13.9812 7.40211 13.8459C7.24271 13.6594 7.19453 13.6497 6.40949 13.6497C5.62445 13.6497 5.57626 13.6594 5.41686 13.8459ZM32.366 17.8349C32.0909 17.9751 32.0658 18.0691 32.0658 18.9648V19.7165H33.1577V17.7207L32.8677 17.7241C32.7083 17.7256 32.4826 17.7757 32.366 17.8349ZM6.62943 22.0293C6.43131 22.1126 6.16771 22.2543 6.04333 22.3439C5.67346 22.6113 5.11825 23.3558 4.92261 23.8472C4.75785 24.2611 4.73932 24.397 4.7385 25.2243C4.73767 26.0969 4.74838 26.1682 4.95679 26.6659C5.22987 27.3188 5.84274 28.0237 6.39013 28.3138C6.69451 28.4752 6.92763 28.5311 7.4087 28.5591C8.34943 28.6135 9.00308 28.3196 9.62296 27.5631C10.1893 26.8717 10.4352 26.1639 10.4352 25.2243C10.4352 23.7504 9.67197 22.5068 8.47011 22.023C7.9668 21.8206 7.11833 21.8231 6.62943 22.0293ZM27.1187 21.9792C26.6183 22.1729 26.2402 22.447 25.8831 22.8754C25.4642 23.377 25.2138 23.9561 25.098 24.6904C24.8744 26.1118 25.5651 27.6383 26.7221 28.2796C27.1587 28.5215 27.2328 28.5369 27.9412 28.5369C28.6756 28.5369 28.709 28.5292 29.2152 28.2362C31.3582 26.9974 31.3606 23.4526 29.2193 22.2148C28.7465 21.9411 28.6488 21.9146 28.0475 21.8948C27.6381 21.8818 27.2892 21.9132 27.1187 21.9792ZM6.99888 23.2791C6.35347 23.5109 5.79538 24.4134 5.79538 25.2243C5.79538 26.0569 6.35347 26.9396 7.02771 27.1743C7.22665 27.2432 7.47048 27.2995 7.56933 27.2995C8.47711 27.2995 9.3437 26.2863 9.3437 25.2243C9.3437 24.3965 8.78149 23.5075 8.11137 23.2748C7.6723 23.1221 7.43341 23.123 6.99888 23.2791ZM27.4935 23.2189C27.1414 23.3538 26.8877 23.5533 26.6269 23.8997C26.0445 24.6736 26.0449 25.775 26.6273 26.5493C27.0223 27.0741 27.358 27.2552 27.9375 27.2552C28.4779 27.2552 28.8243 27.0885 29.2024 26.6462C29.5266 26.267 29.6744 25.8285 29.6761 25.2416C29.6785 24.4182 29.3799 23.8111 28.786 23.4333C28.4178 23.1987 27.8094 23.0975 27.4935 23.2189ZM0.0220809 24.5459C0.0224928 25.1607 0.0332016 25.4016 0.0459697 25.0812C0.0591498 24.7608 0.058738 24.2582 0.0459697 23.9638C0.0327896 23.6694 0.0220809 23.9311 0.0220809 24.5459ZM1.15516 24.5459V25.2243H3.45591L3.49874 24.7434C3.52263 24.4789 3.56094 24.1734 3.58441 24.065L3.62643 23.8675H1.15516V24.5459ZM11.5534 24.1224C11.5777 24.263 11.6164 24.568 11.6399 24.8013L11.6823 25.2243H23.8579L23.897 24.6856C23.9184 24.3893 23.9567 24.0838 23.9823 24.0072C24.0263 23.8747 23.703 23.8675 17.7695 23.8675H11.5102L11.5534 24.1224ZM31.9369 24.2467C31.9673 24.4553 32.0106 24.7603 32.0324 24.9251L32.072 25.2243H33.7718V23.8675H31.8808L31.9369 24.2467ZM7.17187 24.7704C6.95564 25.0398 6.97046 25.4835 7.20317 25.6975C7.75385 26.2043 8.44128 25.3587 7.94785 24.7815C7.72626 24.5223 7.37534 24.5175 7.17187 24.7704ZM27.6163 24.6948C27.3341 24.9453 27.3341 25.5033 27.6163 25.7543C27.7872 25.9061 28.1381 25.8854 28.321 25.7119C28.4425 25.5968 28.4804 25.4806 28.4804 25.2243C28.4804 24.968 28.4425 24.8518 28.321 24.7367C28.1381 24.5637 27.7872 24.5425 27.6163 24.6948Z" fill="black"/>
</svg>
