<svg width="15" height="10" viewBox="0 0 15 10" fill="none" xmlns="http://www.w3.org/2000/svg">
<path d="M6.30669 8.92485L0.311688 2.0736C-0.395811 1.26485 0.179188 -0.000149727 1.25294 -0.000149727H13.2429C13.4832 -0.000355721 13.7185 0.0687094 13.9206 0.198775C14.1226 0.328842 14.2829 0.514396 14.3822 0.733216C14.4816 0.952036 14.5157 1.19485 14.4806 1.43257C14.4455 1.6703 14.3426 1.89286 14.1842 2.0736L8.18919 8.9236C8.07186 9.05786 7.92717 9.16547 7.76483 9.2392C7.60248 9.31293 7.42624 9.35107 7.24794 9.35107C7.06964 9.35107 6.8934 9.31293 6.73105 9.2392C6.56871 9.16547 6.42402 9.05911 6.30669 8.92485Z" fill="black"/>
</svg>
