<svg width="192" height="83" viewBox="0 0 192 83" fill="none" xmlns="http://www.w3.org/2000/svg">
<path fill-rule="evenodd" clip-rule="evenodd" d="M111.297 11.2449C110.875 11.3803 109.937 12.021 109.573 12.422C109.422 12.5887 109.167 13.146 109.005 13.6564C108.734 14.5053 108.724 14.646 108.87 15.3178C108.958 15.7189 109.089 16.4689 109.156 16.9741C109.24 17.5991 109.427 18.1876 109.724 18.7658C109.969 19.2397 110.167 19.7449 110.172 19.8856C110.172 20.1408 110.937 21.422 111.729 22.5106C112.224 23.1824 113.464 24.422 114.214 24.9897C114.724 25.3751 115.635 26.1147 117.656 27.7866C118.187 28.2241 118.844 28.7293 119.109 28.9064C119.375 29.0835 119.995 29.5731 120.49 29.9949C122.26 31.4949 122.641 31.8022 123.021 32.0418C123.344 32.2449 124.542 33.172 124.75 33.3804C124.937 33.5679 126.49 34.8491 127.474 35.6251C129.203 36.9897 129.63 37.3126 130.182 37.6824C130.464 37.8699 131.141 38.422 131.693 38.9064C132.24 39.3856 132.745 39.7449 132.818 39.7033C132.885 39.6564 133.01 39.8022 133.094 40.0158C133.177 40.2345 133.328 40.4116 133.427 40.4116C133.526 40.4116 133.906 40.6668 134.266 40.9741C134.63 41.2866 135.208 41.7554 135.557 42.021C135.906 42.2814 136.589 42.8231 137.068 43.2137C138.104 44.0626 138.828 44.6408 139.719 45.3387C140.083 45.6199 140.656 46.0887 140.995 46.3804C141.667 46.9585 142.172 47.1304 142.812 46.9949C143.427 46.8647 147.516 44.7345 147.656 44.4741C147.74 44.3231 147.708 44.1199 147.568 43.8335C147.354 43.4012 143.964 39.9949 141.557 37.7918C139.292 35.7241 136.016 32.6408 134.937 31.5626C134.385 31.0158 133.865 30.5574 133.786 30.547C133.672 30.5314 133.562 30.521 133.448 30.5158C133.344 30.5053 133.208 30.3126 133.141 30.0835C133.068 29.8231 132.943 29.672 132.802 29.672C132.682 29.672 131.635 28.6981 130.474 27.5158C128.151 25.1408 128.172 25.172 127.953 23.2033C127.786 21.7085 127.307 20.9064 125.49 19.047C124.625 18.1668 123.599 17.2033 123.214 16.9116C122.74 16.547 122.271 16.1772 121.807 15.797C121.062 15.1876 120.005 14.422 119.328 14.0158C118.984 13.8074 118.641 13.5939 118.302 13.3803C117.62 12.9585 116.302 12.3908 114.391 11.6876C113.13 11.2293 111.891 11.0522 111.297 11.2449ZM112.437 13.6928C112.12 13.8803 112.156 14.4064 112.5 14.6303C112.661 14.7293 113.12 14.8803 113.526 14.9585C113.932 15.0418 114.422 15.2397 114.615 15.396C114.807 15.5574 115.208 15.7814 115.51 15.9012C115.812 16.021 116.349 16.3178 116.708 16.5626C117.068 16.8074 117.411 17.0106 117.479 17.0106C117.687 17.0106 118.568 17.7658 120.245 19.3751C121.12 20.2189 122.276 21.3283 122.812 21.8335C123.349 22.3439 123.995 22.9637 124.245 23.2085C124.865 23.8231 125.406 23.7814 125.005 23.1512C124.052 21.6408 119.078 16.4845 118.161 16.0574C117.88 15.9272 117.396 15.5991 117.089 15.3283C116.781 15.0574 116.443 14.8335 116.339 14.8335C116.229 14.8335 115.839 14.6616 115.464 14.4428C114.849 14.0939 113.229 13.5522 112.823 13.5626C112.734 13.5626 112.562 13.6251 112.437 13.6928ZM105.312 14.0158C105.068 14.1199 104.781 14.2866 104.672 14.3803C104.37 14.6512 102.792 15.0887 102.13 15.0939C101.755 15.0939 101.375 15.1876 101.109 15.3543C100.87 15.4949 100.297 15.7553 99.8333 15.9324C99.3698 16.1095 98.8906 16.3387 98.7708 16.4481C98.651 16.5574 98.1979 16.7553 97.7604 16.8908C97.3281 17.0262 96.8229 17.2553 96.6458 17.396C96.4635 17.5366 96 17.7449 95.6094 17.8595C95.224 17.9741 94.6771 18.2293 94.401 18.4272C94.125 18.6303 93.6979 18.8335 93.4531 18.8751C93.2083 18.922 92.7187 19.1564 92.3698 19.3908C92.0156 19.6303 91.6667 19.8231 91.5937 19.8231C91.5208 19.8231 90.9792 20.0522 90.3958 20.3335C89.8073 20.6147 89.2656 20.8439 89.1875 20.8439C89.1146 20.8439 88.6979 21.0262 88.2604 21.2449C87.8229 21.4637 87.1615 21.7501 86.7865 21.8804C86.4115 22.0106 85.9375 22.2606 85.7292 22.4324C85.4635 22.6616 85.125 22.7762 84.5781 22.8387C83.9687 22.9064 83.7656 22.9897 83.6146 23.2189C83.4062 23.5366 83.526 23.9533 83.8646 24.0783C84.0469 24.1512 85.2031 23.9324 86.3802 23.5991C87.0885 23.4012 90.1771 22.7085 91.2396 22.5106C91.5573 22.4533 91.9792 22.3387 92.1771 22.2658C92.375 22.1876 92.9427 22.0626 93.4375 21.9845C93.9323 21.9064 94.7187 21.6981 95.1875 21.521C95.724 21.3178 96.2656 21.1199 96.8073 20.9272C97.2292 20.7762 97.776 20.5262 98.026 20.3751C98.2708 20.2189 98.75 20.0314 99.0885 19.9533C99.4219 19.8803 100.026 19.6564 100.427 19.4533C100.823 19.2553 101.312 19.0522 101.505 19.0053C101.698 18.9637 102.312 18.5522 102.875 18.0991C103.682 17.4481 104.068 17.2293 104.693 17.0678C105.526 16.8491 105.99 16.5887 106.682 15.9428C107.042 15.6043 107.099 15.4689 107.099 14.9272C107.099 14.021 106.948 13.8126 106.297 13.8178C106 13.8178 105.557 13.9064 105.312 14.0158ZM106.078 20.7449C105.479 20.8856 104.526 21.1408 103.964 21.3126C103.401 21.4845 102.25 21.7345 101.406 21.8647C100.562 21.9949 99.526 22.2449 99.1042 22.4168C98.6302 22.6147 97.7083 22.8178 96.6771 22.9585C95.5104 23.1095 94.8437 23.2658 94.4375 23.4793C94.0417 23.6876 93.4635 23.8231 92.5833 23.922C91.8802 24.0001 90.9896 24.1512 90.599 24.2606C90.2135 24.3647 88.9792 24.646 87.849 24.8856C86.724 25.1199 85.5625 25.4064 85.2656 25.521C84.9687 25.6303 84.1771 25.8022 83.5052 25.896C82.2552 26.0678 79.9271 26.6356 78.1719 27.1876C77.6354 27.3595 76.7708 27.5522 76.2552 27.6199C75.599 27.7033 75.0208 27.8856 74.2969 28.2397C73.7656 28.5001 73.2292 28.7606 72.6979 29.0158C71.0156 29.8283 69.401 31.0366 67.6354 32.797C65.7396 34.6876 64.2344 36.547 63.4792 37.9116C63.3281 38.1929 63.0052 38.7033 62.7708 39.047C62.5312 39.3908 62.3385 39.7345 62.3385 39.8074C62.3385 39.8804 62.1615 40.2189 61.9427 40.5574C61.7292 40.896 61.474 41.4689 61.375 41.8283C61.2812 42.1929 61.0521 42.7137 60.8646 42.9949C60.4219 43.6668 60.3177 44.3074 60.599 44.6199C60.8281 44.8751 62.1094 45.0731 63.3594 45.0418C63.75 45.0366 66.4427 45.0054 69.3437 44.9793C75.5052 44.922 75.1667 44.9949 75.526 43.6147C75.6406 43.1772 75.8594 42.6512 76.0156 42.4429C76.1667 42.2345 76.3698 41.7085 76.4583 41.271C76.5521 40.8335 76.7865 40.1564 76.9844 39.771C77.1771 39.3856 77.4115 38.7501 77.5052 38.3595C77.6979 37.5262 78.4896 36.172 79.3802 35.146C80.1354 34.271 81.7031 33.1616 82.5156 32.9168C82.8333 32.8179 83.349 32.5939 83.6562 32.4116C84.3646 31.9949 85.4844 31.9533 85.4844 32.3387C85.4844 32.3908 85.224 32.5574 84.9062 32.7137C84.5521 32.8856 84.2708 33.1304 84.1771 33.3491C84.099 33.5418 83.9479 33.797 83.849 33.9168C83.4323 34.4168 84.0937 34.7501 84.6875 34.3335C85.0104 34.1095 86.5938 33.5418 87.3385 33.3856C87.9583 33.2606 89.3906 32.7501 90.3437 32.3231C90.7344 32.146 91.4115 31.9637 91.849 31.9116C92.3437 31.8543 92.9792 31.6564 93.5104 31.396C93.9844 31.1616 94.7031 30.9116 95.1094 30.8387C95.5104 30.7658 96.3437 30.5366 96.9635 30.3283C97.5781 30.1251 98.4271 29.8856 98.8437 29.797C99.2604 29.7137 99.9219 29.5314 100.312 29.3908C100.703 29.2553 101.542 29.0314 102.177 28.896C102.807 28.7658 103.646 28.5106 104.036 28.3335C104.432 28.1564 105.156 27.9272 105.646 27.8231C106.141 27.7241 106.854 27.521 107.234 27.3804C107.62 27.2345 108.536 27.0001 109.271 26.8543C110.901 26.5366 111.276 26.396 111.359 26.0835C111.474 25.6303 111.219 24.9324 110.724 24.3647C109.87 23.3751 109.573 22.9741 109.271 22.3804C108.927 21.6929 108.307 20.8856 108.016 20.7345C107.552 20.5001 107.12 20.5001 106.078 20.7449ZM130.12 22.1876C129.88 22.4741 129.797 23.9585 129.99 24.4272C130.193 24.9168 132.458 26.9845 132.792 26.9845C132.948 26.9845 133.083 27.1251 133.172 27.3804C133.25 27.5939 133.37 27.7345 133.437 27.6929C133.51 27.646 133.844 27.8595 134.177 28.1668C134.51 28.4689 135.01 28.8908 135.286 29.0991C136.849 30.2866 137.281 30.6251 138.104 31.3231C139.807 32.7762 141.099 33.8283 141.906 34.4272C142.354 34.7606 142.948 35.2345 143.229 35.4845C143.781 35.9689 144.807 36.5262 145.365 36.6356C145.557 36.6772 146.021 36.9533 146.391 37.2501C146.76 37.5522 147.214 37.8908 147.391 38.0054C147.573 38.1199 148.349 38.7814 149.12 39.4793C149.891 40.1772 150.719 40.8699 150.969 41.021C151.214 41.1668 151.557 41.4429 151.724 41.6199C152.177 42.1043 152.807 42.2345 153.625 42.0158C154 41.9168 154.448 41.7449 154.62 41.6356C155.234 41.2345 154.922 40.3647 153.922 39.7033C153.667 39.5366 153.115 39.1408 152.693 38.8179C151.724 38.0887 150.677 37.3543 150.141 37.0262C149.911 36.8856 149.484 36.5522 149.198 36.2918C148.906 36.0314 148.448 35.6772 148.177 35.5054C147.901 35.3335 147.224 34.6929 146.667 34.0783C146.115 33.4689 145.484 32.8804 145.276 32.771C144.911 32.5887 144.661 32.396 143.385 31.3283C143.089 31.0783 142.469 30.6043 142.01 30.2762C141.583 29.9689 141.156 29.6564 140.734 29.3491C140.49 29.1668 140.036 28.8595 139.734 28.6668C139.432 28.4689 138.844 28.0106 138.427 27.6408C138.01 27.2762 137.453 26.8856 137.187 26.7762C136.922 26.6668 136.505 26.3908 136.255 26.1564C135.531 25.4741 133.578 24.0418 133.38 24.0418C133.276 24.0418 133.156 23.9012 133.115 23.7241C133.068 23.547 132.953 23.4064 132.859 23.4064C132.63 23.4064 131.401 22.6147 131.089 22.2658C130.807 21.9533 130.349 21.9168 130.12 22.1876ZM125.406 24.2554C125.432 24.3804 125.557 24.5106 125.687 24.5314C125.854 24.5678 125.911 24.5106 125.875 24.3439C125.854 24.2137 125.724 24.0887 125.599 24.0626C125.427 24.0314 125.375 24.0835 125.406 24.2554ZM111.641 27.6147C109.531 28.4481 108.63 28.7762 108.427 28.7762C108.198 28.7762 106.651 29.1512 105.474 29.4949C105.109 29.6043 104.422 29.771 103.948 29.8699C103.469 29.9689 102.703 30.1928 102.245 30.3647C101.786 30.5366 101.062 30.7449 100.641 30.8283C100.219 30.9116 99.526 31.1095 99.1042 31.2658C98.6823 31.4272 97.9062 31.6512 97.375 31.7658C96.849 31.8856 95.9323 32.146 95.3333 32.3439C93.375 33.0053 92.5365 33.2501 92.2604 33.2501C92.1146 33.2501 91.8229 33.3387 91.6094 33.4481C91.2292 33.6512 89.6823 33.9637 88.5208 34.0835C88.1823 34.1147 87.75 34.2606 87.5625 34.396C87.3698 34.5366 86.7604 34.7658 86.2083 34.9012C85.6562 35.0418 85.1042 35.2397 84.9844 35.3543C84.8594 35.4637 84.4792 35.6408 84.1302 35.7397C83.5573 35.9116 82.5677 36.5522 81.7917 37.2606C81.625 37.4116 81.3698 37.797 81.2344 38.1095C81.0937 38.4272 80.8646 38.8126 80.7292 38.9637C80.4323 39.2866 80.4635 39.6876 80.7917 39.7501C80.9167 39.7762 81.2188 39.6147 81.4635 39.4012C81.7135 39.1824 81.9948 39.0054 82.0885 39.0054C82.1875 39.0054 82.4896 38.8179 82.7656 38.5835C83.0417 38.3543 83.526 38.0939 83.8333 38.0001C84.375 37.8439 84.7708 37.7137 86.2083 37.1981C86.5677 37.0731 87.3646 36.9116 87.974 36.8387C88.6979 36.7554 89.3385 36.5939 89.8021 36.3751C90.1979 36.1876 90.9844 35.9533 91.5521 35.8491C92.1198 35.7449 92.901 35.5783 93.2865 35.4741C94.8802 35.0418 95.2917 34.9376 95.7812 34.8543C96.0625 34.8074 96.8698 34.6043 97.5729 34.4012C98.276 34.1981 99.2083 33.9689 99.6458 33.8908C100.083 33.8126 100.656 33.6616 100.922 33.5522C101.193 33.4376 101.724 33.3335 102.109 33.3126C102.552 33.2918 103.443 33.0522 104.479 32.6824C105.646 32.2658 106.464 32.0574 107.229 31.9793C107.849 31.922 108.828 31.6981 109.51 31.4637C110.177 31.2397 111.187 31.0106 111.786 30.9481C112.891 30.8335 115.401 30.0522 115.828 29.6929C116.161 29.4064 116.109 29.2762 115.38 28.5522C114.698 27.8804 113.432 27.2293 112.823 27.2501C112.667 27.2553 112.13 27.4168 111.641 27.6147ZM160.094 41.297C159.724 41.4585 159.615 41.9897 159.807 42.7293C159.891 43.0731 159.927 43.3856 159.885 43.4272C159.724 43.5887 159.297 43.3335 159.151 42.9793C158.953 42.5001 158.557 42.1356 157.964 41.8856C157.385 41.646 156.969 41.7293 156.271 42.2189C155.99 42.4168 155.427 42.6929 155.021 42.8335C154.615 42.9741 154.115 43.2085 153.906 43.3543C153.703 43.5001 153.344 43.6824 153.115 43.7606C152.88 43.8387 152.604 43.9741 152.5 44.0626C152.177 44.3283 151.245 44.7606 150.995 44.7606C150.865 44.7606 150.474 44.9429 150.125 45.1616C149.781 45.3856 149.302 45.6199 149.068 45.6824C148.828 45.7501 148.365 46.0001 148.026 46.2397C147.693 46.4845 147.37 46.6772 147.312 46.6772C147.099 46.6772 144.5 48.0054 144.219 48.2554C143.734 48.6929 143.823 49.3908 144.443 50.0366C144.724 50.3283 144.953 50.6095 144.953 50.6668C144.953 50.7189 145.13 50.9637 145.344 51.2085C145.823 51.7501 147.13 53.7033 147.13 53.8699C147.13 53.9429 147.266 54.1616 147.437 54.3595C147.604 54.5626 147.844 55.0001 147.969 55.3387C148.094 55.6772 148.323 56.1043 148.474 56.2866C148.625 56.4741 148.823 56.9064 148.906 57.2501C148.995 57.5887 149.26 58.271 149.495 58.7658C149.755 59.3126 149.953 59.9533 150 60.4168C150.042 60.8335 150.229 61.6095 150.417 62.1408C150.62 62.7189 150.792 63.5522 150.844 64.1981C150.948 65.5314 151.219 68.3335 151.302 68.9012C151.344 69.1981 151.464 69.3699 151.729 69.5054C152.286 69.797 152.484 69.7501 152.995 69.2033C153.25 68.9324 153.802 68.4376 154.224 68.1043C154.646 67.7658 155.526 66.9793 156.177 66.3491C157.188 65.3699 157.359 65.146 157.359 64.7918C157.359 64.2293 156.859 62.7918 156.635 62.7033C156.182 62.5314 155.896 61.3231 156.276 61.1772C156.557 61.0679 156.828 61.3491 156.922 61.8543C156.979 62.1564 157.229 62.521 157.703 62.9949C158.083 63.3751 158.453 63.6876 158.516 63.6876C158.656 63.6876 159.917 62.1876 159.917 62.021C159.917 61.9533 160.115 61.6824 160.354 61.4168C160.594 61.146 160.891 60.6876 161.01 60.3908C161.13 60.0939 161.385 59.7345 161.578 59.5991C161.828 59.4168 161.953 59.1929 162.016 58.8022C162.109 58.2345 162.396 57.8074 162.687 57.8074C162.807 57.8074 162.859 57.9949 162.859 58.4429C162.859 58.9637 162.792 59.1512 162.479 59.5054C162.271 59.7449 162.047 60.1824 161.979 60.4845C161.911 60.7814 161.74 61.1512 161.599 61.3022C161.453 61.4585 161.208 61.8699 161.057 62.2189C160.901 62.5731 160.615 63.0678 160.411 63.3231C159.75 64.1616 160.005 64.7189 161.135 64.896C162.427 65.1043 162.016 65.4481 160.318 65.5887C159.01 65.6929 158.734 65.8335 158.005 66.7918C156.068 69.3387 155.359 70.1876 154.255 71.2762C152.953 72.5626 152.703 72.9324 152.901 73.3126C153.052 73.5991 153.687 73.6095 153.922 73.3283C154.016 73.2137 154.323 72.9741 154.609 72.797C154.891 72.6199 155.167 72.396 155.224 72.3022C155.281 72.2085 155.51 72.0366 155.734 71.922C155.958 71.8074 156.344 71.5418 156.594 71.3335C157.339 70.7085 158.359 70.0835 158.635 70.0835C159.104 70.0835 159.016 70.9168 158.437 71.9585C158.198 72.3908 158 72.8543 158 72.9897C158 73.5522 158.688 73.7241 159.099 73.2658C159.234 73.1147 159.589 72.8856 159.891 72.7554C160.193 72.6251 160.901 72.1095 161.469 71.6147C162.344 70.8387 162.552 70.7137 162.901 70.7449C163.391 70.797 163.49 71.146 163.187 71.7293C162.948 72.1876 162.922 73.1668 163.141 73.3804C163.365 73.6095 163.766 73.5679 164.068 73.2918C164.208 73.1564 164.594 72.8856 164.917 72.6876C166.229 71.8804 166.672 71.5418 167.625 70.6356C168.828 69.4949 169.365 69.1408 169.599 69.3387C169.901 69.5887 169.786 70.2137 169.323 70.8439C168.682 71.7189 168.562 72.0939 168.807 72.4689C169.245 73.1356 169.469 72.9793 172.672 69.7293C174.318 68.0626 175.839 66.4064 176.047 66.0574C176.255 65.7033 176.714 65.0679 177.057 64.646C177.406 64.2241 177.781 63.7085 177.896 63.4949C178.01 63.2866 178.255 62.9533 178.437 62.7606C178.62 62.5679 178.911 62.1616 179.094 61.8543C179.641 60.9272 179.911 60.4845 180.365 59.8022C180.599 59.4429 180.901 58.8439 181.031 58.4741C181.156 58.0991 181.385 57.6251 181.531 57.422C181.677 57.2137 181.88 56.7658 181.984 56.422C182.083 56.0783 182.292 55.6408 182.437 55.4533C182.589 55.2606 182.818 54.6199 182.948 54.0106C183.083 53.4064 183.339 52.4741 183.521 51.9429C183.823 51.0679 183.854 50.8335 183.807 49.5001C183.771 48.4012 183.698 47.9116 183.531 47.5939C183.406 47.3595 183.198 46.7658 183.068 46.271C182.938 45.7814 182.719 45.2554 182.583 45.0991C182.443 44.9481 182.182 44.5626 181.995 44.2397C181.609 43.5731 180.25 42.2137 179.677 41.922C179.38 41.771 178.562 41.7085 176.094 41.6408C174.339 41.5939 172.526 41.4949 172.068 41.4272C170.964 41.2554 160.448 41.146 160.094 41.297ZM160.172 43.9689C160.172 44.0262 160.25 44.1772 160.344 44.3074C160.542 44.5731 160.734 44.4012 160.609 44.0679C160.526 43.8647 160.172 43.7814 160.172 43.9689ZM53.5781 50.7554C53.3646 50.8126 52.8698 51.0418 52.4792 51.2606C52.0885 51.4845 51.6823 51.6668 51.5781 51.6668C51.0156 51.6668 48.8333 53.7866 48.2812 54.8647C48.1042 55.2137 47.9271 55.5574 47.75 55.9064C47.6094 56.1824 47.4479 56.9376 47.3542 57.7762C47.151 59.6304 47.401 61.7397 47.9167 62.422C48.0937 62.6616 48.3385 63.0522 48.4583 63.2918C49.6667 65.672 52.6406 67.396 55.5417 67.396C56.5208 67.396 56.9687 67.3231 58.0312 66.9949C58.7448 66.771 59.6146 66.4116 59.9635 66.1981C60.625 65.7866 62.4635 64.0001 62.4635 63.771C62.4635 63.7033 62.6875 63.2918 62.9583 62.8647C63.5573 61.9168 64.1198 59.6251 63.9219 58.922C63.6927 58.1304 63.3594 58.0626 59.5469 58.0626C57.599 58.0626 56.0833 58.1147 55.9479 58.1876C55.3958 58.4793 55.2344 60.2033 55.6979 60.7918C55.9583 61.1251 55.9844 61.1304 57.5521 61.1304C59.0885 61.1304 59.151 61.1408 59.276 61.422C59.4687 61.8387 59.2344 62.3699 58.7396 62.6408C58.5208 62.7606 58.1875 62.9793 58.0052 63.1251C57.4219 63.5939 56.776 63.7241 55.3802 63.6616C53.9167 63.5939 53.6458 63.4897 52.526 62.5574C51.9219 62.0522 51.6875 61.7449 51.2865 60.8856C50.8073 59.8647 50.7969 59.797 50.8594 58.7814C50.9115 57.9481 51.0052 57.5783 51.3125 56.9689C52.1406 55.3439 53.6667 54.3699 55.5573 54.2606C56.4219 54.2085 56.6042 54.2397 57.349 54.5835C57.9271 54.8491 58.4323 55.2241 59.0104 55.8126C59.4635 56.2762 59.9479 56.6564 60.0781 56.6564C60.2135 56.6564 60.5312 56.5262 60.7865 56.3647C61.0365 56.2085 61.526 55.9637 61.875 55.8231C62.6458 55.5053 62.7812 55.3074 62.6667 54.6616C62.5937 54.2501 62.3698 53.9585 61.3802 52.9897C60.6198 52.2501 60.0052 51.7606 59.7083 51.6616C59.4479 51.5783 58.9583 51.3335 58.6146 51.1251C58.0052 50.7449 57.9687 50.7397 55.9792 50.6981C54.8698 50.672 53.7865 50.6981 53.5781 50.7554ZM8.32813 51.0314L7.98438 51.3022V58.7554C7.98438 63.6981 8.03125 66.3387 8.11979 66.5991C8.34896 67.2554 8.59375 67.2866 12.7917 67.2449C16.1354 67.2085 16.7187 67.172 17.4323 66.9533C18.4375 66.6512 19.349 65.8647 20.0625 64.6929C20.5312 63.922 20.5573 63.8231 20.5625 62.7918C20.5677 61.771 20.5417 61.6564 20.099 60.8647C19.8385 60.4064 19.3906 59.8335 19.099 59.6043C18.6354 59.2293 18.5833 59.1356 18.651 58.7918C18.6927 58.5783 18.9375 58.1512 19.1979 57.8387C19.8542 57.0314 20.0573 55.5991 19.75 53.9689C19.5729 53.021 18.5729 51.9012 17.3646 51.2814L16.4896 50.8335L12.5833 50.797C8.76563 50.7606 8.66667 50.7658 8.32813 51.0314ZM27.0885 51.0939L26.7708 51.4168L26.8125 57.1356L26.849 62.8595L27.2708 63.7554C27.7396 64.7345 28.151 65.2241 29.224 66.0574C31.6406 67.9324 35.7396 67.9428 38.2292 66.0731C39.2187 65.3335 39.375 65.1668 39.974 64.172L40.5312 63.2397L40.5677 57.2449C40.599 51.771 40.5833 51.2293 40.3906 51.0106C40.2031 50.8074 39.9792 50.771 38.8437 50.771C37.5729 50.771 37.0729 50.8804 36.8594 51.2085C36.8073 51.2866 36.7604 53.5418 36.7604 56.2241C36.7604 58.9429 36.7031 61.396 36.6302 61.7762C36.4115 62.9376 35.6563 63.6356 34.276 63.9429C33.8125 64.047 33.5052 64.0314 32.8542 63.8647C32.1302 63.6824 31.9479 63.5731 31.4062 62.9793C31.0573 62.5991 30.75 62.1199 30.7031 61.8908C30.6562 61.6668 30.6198 59.1668 30.6198 56.3387C30.6198 51.5158 30.6042 51.1824 30.3854 50.9845C30.1979 50.8126 29.8802 50.771 28.7812 50.771C27.4896 50.771 27.3958 50.7918 27.0885 51.0939ZM74.625 51.047C74.4844 51.1929 74.3333 51.4949 74.2865 51.7189C74.2448 51.9376 74.0417 52.4585 73.8437 52.8804C73.6458 53.3022 73.4167 53.9533 73.3333 54.3283C73.25 54.7033 73.0208 55.3335 72.8281 55.7345C72.6354 56.1356 72.4062 56.7762 72.3125 57.1564C72.224 57.5418 72.0104 58.1199 71.8437 58.4429C71.6719 58.771 71.4479 59.4064 71.3437 59.8595C71.2344 60.3126 71.0365 60.8751 70.8958 61.1147C70.7552 61.3491 70.5208 61.9845 70.375 62.521C70.2292 63.0574 70 63.7137 69.8646 63.9793C69.2708 65.146 68.974 66.5939 69.2396 67.0106C69.4271 67.3126 71.6094 67.4324 72.1667 67.172C72.6875 66.9272 73.1198 66.2814 73.3802 65.3491C73.7344 64.0991 73.5677 64.1616 76.5365 64.1564L79.1354 64.1512L79.6198 64.6981C79.9063 65.021 80.1406 65.4429 80.1927 65.7137C80.2396 65.9741 80.3854 66.396 80.5156 66.6564C80.7812 67.1929 80.8646 67.2137 82.7083 67.3231C83.724 67.3803 83.8594 67.3595 84.099 67.1199C84.3125 66.9064 84.3542 66.7397 84.3073 66.2501C84.276 65.9116 84.125 65.4689 83.9792 65.2606C83.8281 65.0522 83.5885 64.4376 83.4427 63.8908C83.2969 63.3439 83.0417 62.6304 82.8802 62.3022C82.7135 61.9741 82.5052 61.4012 82.4219 61.0314C82.3333 60.6564 82.1146 60.0522 81.9375 59.6876C81.7604 59.3231 81.5365 58.6876 81.4427 58.2814C81.3437 57.8751 81.1302 57.271 80.9635 56.9429C80.7917 56.6095 80.5625 55.9637 80.4427 55.5054C80.3281 55.0522 80.0625 54.3335 79.8542 53.9168C79.6458 53.5001 79.474 53.0574 79.474 52.9324C79.474 52.8022 79.3542 52.3751 79.2083 51.9845C78.8021 50.9012 78.5156 50.771 76.5052 50.771C75.0104 50.771 74.8594 50.7918 74.625 51.047ZM88.4271 51.0262C88.2135 51.2397 88.1719 51.4533 88.1719 52.3126C88.1719 53.5001 88.3854 54.0522 88.8906 54.1772C89.0729 54.2241 89.7865 54.2293 90.4687 54.1929C91.1562 54.1564 91.776 54.1616 91.8542 54.2085C92.2187 54.4324 92.2656 55.1408 92.2656 60.672C92.2656 66.6147 92.3021 67.0731 92.8229 67.2554C92.974 67.3074 93.625 67.3126 94.276 67.2762C95.276 67.2189 95.5 67.1616 95.7448 66.9168L96.0365 66.6251L96.099 60.7137C96.1354 57.4585 96.2135 54.7033 96.2708 54.5835C96.4323 54.2554 96.7917 54.1824 98.2552 54.172C99.5365 54.1616 99.5833 54.1512 99.8854 53.8022C100.156 53.4845 100.193 53.3179 100.193 52.3856C100.193 50.646 100.661 50.771 94.1406 50.771C88.8542 50.771 88.6771 50.7814 88.4271 51.0262ZM104.177 51.0679C103.943 51.3231 103.901 51.5106 103.901 52.422C103.901 53.4168 103.922 53.5001 104.276 53.8491C104.646 54.2189 104.667 54.2241 106.125 54.2241C107.542 54.2241 107.615 54.2397 107.802 54.5314C107.979 54.797 108 55.5783 107.995 60.5418C107.99 66.6981 108.021 67.021 108.661 67.2449C108.823 67.3022 109.37 67.3387 109.885 67.3231C110.911 67.2918 111.38 67.0783 111.578 66.5522C111.651 66.3647 111.703 63.8491 111.703 60.5418V54.8543L112.016 54.5366C112.187 54.3647 112.464 54.2189 112.625 54.2137C112.786 54.2085 113.422 54.1929 114.031 54.1824C115.068 54.1616 115.177 54.1356 115.505 53.8074C115.839 53.4741 115.859 53.3908 115.828 52.4741C115.812 51.9376 115.766 51.396 115.729 51.2814C115.578 50.8074 115.161 50.771 109.734 50.771H104.458L104.177 51.0679ZM121.849 50.9012C121.698 50.9637 121.531 51.1356 121.484 51.2918C121.333 51.7606 121.396 66.4689 121.547 66.7501C121.724 67.0887 122.437 67.2658 123.573 67.271C124.708 67.271 124.953 67.1512 125.125 66.5314C125.307 65.8699 125.307 51.8126 125.125 51.3283C125.047 51.1304 124.917 50.9272 124.833 50.8751C124.625 50.7397 122.193 50.7606 121.849 50.9012ZM12.0156 54.3856C11.7396 54.7814 11.7344 57.1929 12.0104 57.422C12.2813 57.646 14.5573 57.5991 15.0156 57.3595C15.6146 57.0522 16.1719 56.3126 16.1719 55.8283C16.1719 55.3439 15.7135 54.7085 15.1615 54.4324C14.9792 54.3387 14.2396 54.2241 13.5208 54.1824C12.276 54.1147 12.2031 54.1199 12.0156 54.3856ZM76.1719 56.6876C75.8958 57.271 75.599 58.0887 75.5104 58.5106C75.4219 58.9324 75.2708 59.4324 75.1771 59.6199C74.9167 60.1251 74.9531 60.5887 75.2604 60.7501C75.4063 60.8283 76.0469 60.9168 76.6875 60.9481C77.651 60.9949 77.8958 60.9637 78.0885 60.7918C78.4271 60.4845 78.3802 59.8022 77.9375 58.771C77.7292 58.2866 77.4948 57.5366 77.4167 57.1095C77.2344 56.0991 77.0521 55.6304 76.8437 55.6304C76.75 55.6304 76.4479 56.1095 76.1719 56.6876ZM163.255 56.1564C163.177 56.3804 163.115 56.7345 163.115 56.9376C163.115 57.2554 163.161 57.3074 163.401 57.271C163.661 57.2345 163.687 57.1564 163.687 56.5366C163.687 55.7397 163.469 55.547 163.255 56.1564ZM154.292 58.0939C154.292 58.1824 154.349 58.3387 154.417 58.4429C154.573 58.6981 154.844 58.4429 154.729 58.146C154.635 57.9012 154.286 57.8595 154.292 58.0939ZM155.271 59.5522C155.13 59.6929 155.172 60.3022 155.339 60.4637C155.547 60.672 155.953 60.6616 155.953 60.4481C155.953 59.8387 155.531 59.2918 155.271 59.5522ZM11.9063 61.0366C11.7708 61.3856 11.7344 62.1512 11.8073 63.1981C11.8385 63.7033 12.1667 63.8179 13.5521 63.8179C15.125 63.8179 16.0573 63.6408 16.3802 63.2814C16.5573 63.0887 16.6198 62.8231 16.6198 62.2085C16.6198 60.8595 16.1719 60.6304 13.5729 60.6251L12.0625 60.6199L11.9063 61.0366Z" fill="#1C639F"/>
</svg>
