<svg width="37" height="37" viewBox="0 0 37 37" fill="none" xmlns="http://www.w3.org/2000/svg">
<path fill-rule="evenodd" clip-rule="evenodd" d="M16.1048 0.1149C8.43668 1.17853 2.35561 6.63975 0.503935 14.1259C0.151284 15.55 0 16.8631 0 18.4945C0 20.1691 0.163718 21.5403 0.539511 23.013C2.36114 30.1516 8.05812 35.4445 15.3436 36.7666C16.5646 36.9885 19.2307 37.0725 20.4907 36.9291C29.1446 35.9449 35.8678 29.2469 36.9157 20.5658C36.962 20.1808 37 19.2437 37 18.4834C37 16.3541 36.7251 14.5976 36.0964 12.7109C35.5082 10.9458 35.283 10.6493 34.4793 10.5826C33.6869 10.5169 33.1274 10.9641 33.0545 11.7209C33.0248 12.0298 33.0877 12.3121 33.3554 13.0751C33.9415 14.7452 34.1584 15.7981 34.2734 17.5356C34.4897 20.7984 33.5916 24.2588 31.8149 27.0084C31.2899 27.8212 30.2122 29.1474 29.5408 29.8074L29.0047 30.3344L28.9042 29.8489C28.6514 28.627 28.0083 27.2002 27.2481 26.1735C26.4377 25.0798 25.0316 23.9105 23.8908 23.3814L23.4632 23.1831L23.9343 22.6668C25.1277 21.3592 25.768 19.6608 25.768 17.8044C25.768 15.4463 24.7001 13.3381 22.7948 11.9348C20.5259 10.2636 17.436 10.068 14.975 11.4396C13.0591 12.5073 11.6938 14.4193 11.3135 16.5673C11.1677 17.3908 11.2489 19.0215 11.4748 19.8052C11.7825 20.8733 12.4022 21.9681 13.1475 22.7601L13.5427 23.1803L13.1123 23.38C11.9684 23.9105 10.5633 25.0788 9.75195 26.1735C8.97515 27.2226 8.35447 28.6032 8.09266 29.8648L7.99526 30.3341L7.50203 29.8489C4.68048 27.0737 2.98561 23.4208 2.73486 19.5744C2.1653 10.8348 8.69158 3.34173 17.4118 2.72318C19.5516 2.57114 21.5252 2.83376 23.6618 3.55391C25.0347 4.01661 25.4551 4.04806 25.9124 3.72219C26.4502 3.33897 26.5935 2.38661 26.197 1.82991C25.7832 1.24833 23.2221 0.425558 20.8644 0.116282C19.6856 -0.038183 17.2156 -0.0388741 16.1048 0.1149ZM29.8561 2.70694C29.6258 2.80715 29.2317 3.21526 29.1443 3.44436C29.1042 3.54941 29.0714 4.00175 29.0714 4.44925V5.26304L28.1423 5.29103C27.1479 5.32075 26.9887 5.37984 26.6305 5.85118C26.4036 6.1494 26.4036 7.04924 26.6305 7.3478C26.988 7.81845 27.1486 7.87823 28.1354 7.90795L29.0576 7.93525L29.0852 8.8579C29.1146 9.8455 29.1743 10.0058 29.6448 10.3638C29.9601 10.6033 30.8378 10.5898 31.188 10.34C31.6018 10.0445 31.7144 9.70624 31.7144 8.75596V7.92143H32.5485C33.498 7.92143 33.8365 7.80912 34.1318 7.3948C34.3943 7.02643 34.3943 6.17221 34.1318 5.80384C33.8365 5.38986 33.498 5.27756 32.5485 5.27756H31.7144V4.44303C31.7144 3.49585 31.6014 3.15409 31.1935 2.86313C30.9189 2.66755 30.1522 2.5777 29.8561 2.70694ZM17.8805 13.297C15.6375 13.5879 13.9551 15.5106 13.9409 17.7996C13.9192 21.2973 17.5776 23.4975 20.6886 21.8575C20.9611 21.7141 21.4257 21.3547 21.721 21.0592C22.6263 20.1539 23.0622 19.1061 23.0622 17.8369C23.0622 15.0638 20.6375 12.9393 17.8805 13.297ZM16.3577 25.1928C13.6463 25.5695 11.4938 27.4683 10.8286 30.0707C10.7408 30.4139 10.6424 31.0345 10.6099 31.4495L10.5509 32.2042L11.5791 32.7043C16.0099 34.8595 20.9943 34.8581 25.4254 32.7008L26.4453 32.2039L26.3863 31.4447C26.3062 30.4204 26.0848 29.5794 25.6851 28.7822C24.8344 27.0855 23.2877 25.8359 21.4319 25.3459C20.8682 25.197 20.4859 25.1676 18.8304 25.1451C17.7631 25.131 16.6502 25.1524 16.3577 25.1928Z" fill="black"/>
</svg>
