<svg width="20" height="20" viewBox="0 0 20 20" fill="none" xmlns="http://www.w3.org/2000/svg">
<g clip-path="url(#clip0_66_654)">
<mask id="mask0_66_654" style="mask-type:luminance" maskUnits="userSpaceOnUse" x="0" y="0" width="20" height="20">
<path d="M0.561523 0.562012H19.4289V19.4294H0.561523V0.562012Z" fill="white"/>
</mask>
<g mask="url(#mask0_66_654)">
<path fill-rule="evenodd" clip-rule="evenodd" d="M9.09211 0.603638C7.79596 0.727771 6.46308 1.14915 5.35171 1.78639C1.81626 3.81359 -0.0101382 7.75045 0.728635 11.7515C1.40242 15.4 4.26861 18.3755 7.89447 19.1907C8.67714 19.3668 9.07629 19.4081 9.99495 19.4081C10.9176 19.4081 11.3103 19.3672 12.1114 19.1873C15.2877 18.4745 17.9222 16.0698 18.9514 12.9437C19.1933 12.2089 19.3918 11.2006 19.3918 10.7061C19.3918 10.6193 19.4084 10.5484 19.4285 10.5484C19.4517 10.5484 19.4653 10.3247 19.4649 9.94963C19.4645 9.54935 19.4525 9.36908 19.4285 9.406C19.4031 9.44556 19.3927 9.40487 19.3924 9.26341C19.392 9.15454 19.3658 8.88932 19.3342 8.67382C18.9324 5.93705 17.4309 3.5917 15.1061 2.06894C13.382 0.939684 11.1817 0.403592 9.09211 0.603638ZM9.34998 2.06122C6.27641 2.32945 3.69051 4.26661 2.56559 7.14372C2.20354 8.06954 2.05587 8.89647 2.05587 9.99578C2.05587 11.0949 2.20354 11.9218 2.56559 12.8478C3.62138 15.5475 5.93471 17.4056 8.81935 17.8701C9.36618 17.958 10.6058 17.9578 11.1705 17.8695C14.0365 17.4214 16.3681 15.5484 17.4251 12.845C17.7835 11.9286 17.934 11.086 17.934 9.99578C17.934 8.66365 17.678 7.55681 17.1079 6.42284C15.749 3.72016 12.9257 1.99849 9.92393 2.04219C9.68942 2.04558 9.43098 2.05406 9.34998 2.06122ZM6.94247 6.64775C6.71549 6.76002 6.59286 6.96025 6.57459 7.24883C6.56385 7.41554 6.57723 7.51273 6.62319 7.6039C6.65785 7.67284 7.19413 8.23926 7.81479 8.86257L8.94311 9.99578L7.81479 11.1288C7.19413 11.7521 6.65973 12.3151 6.62714 12.3799C6.59437 12.4447 6.56781 12.5847 6.56781 12.6907C6.56781 13.0937 6.82474 13.383 7.2107 13.415C7.58273 13.4457 7.59233 13.4387 8.84346 12.1938L9.99533 11.048L11.1283 12.1761C11.7515 12.7966 12.3177 13.3327 12.3866 13.3674C12.5737 13.4615 12.9265 13.431 13.1184 13.3041C13.3893 13.1247 13.5091 12.6713 13.3628 12.3799C13.33 12.3151 12.7958 11.7523 12.1753 11.1292L11.0472 9.99616L12.193 8.8443C13.4379 7.59317 13.4449 7.58356 13.4142 7.21153C13.3822 6.82557 13.0928 6.56864 12.6899 6.56864C12.5839 6.56864 12.4439 6.5952 12.3791 6.62798C12.3143 6.66056 11.7513 7.19496 11.128 7.81563L9.99495 8.94394L8.86174 7.81563C8.23843 7.19496 7.6754 6.66056 7.61061 6.62798C7.44164 6.54283 7.13592 6.55188 6.94247 6.64775ZM0.576058 9.99578C0.576058 10.3301 0.581709 10.4669 0.588491 10.2998C0.595272 10.1325 0.595272 9.85884 0.588491 9.69176C0.581709 9.52449 0.576058 9.66124 0.576058 9.99578Z" fill="black"/>
</g>
</g>
<defs>
<clipPath id="clip0_66_654">
<rect width="20" height="20" fill="white"/>
</clipPath>
</defs>
</svg>
