<svg width="20" height="20" viewBox="0 0 20 20" fill="none" xmlns="http://www.w3.org/2000/svg">
<g clip-path="url(#clip0_66_660)">
<mask id="mask0_66_660" style="mask-type:luminance" maskUnits="userSpaceOnUse" x="0" y="0" width="20" height="20">
<path d="M0.527344 0.526855H19.467V19.4665H0.527344V0.526855Z" fill="white"/>
</mask>
<g mask="url(#mask0_66_660)">
<path fill-rule="evenodd" clip-rule="evenodd" d="M2.04991 0.602107C1.69314 0.695537 1.41041 0.860358 1.13558 1.13518C0.85642 1.41453 0.695555 1.69388 0.600807 2.06421C0.528662 2.34619 0.527344 2.49123 0.527344 9.99689C0.527344 17.5023 0.528662 17.6476 0.600807 17.9294C0.695555 18.2999 0.85642 18.5792 1.13558 18.8584C1.41493 19.1377 1.69427 19.2986 2.0646 19.3934C2.34659 19.4653 2.49163 19.4666 9.99728 19.4666C17.5027 19.4666 17.648 19.4653 17.9298 19.3934C18.3003 19.2986 18.5796 19.1377 18.8588 18.8584C19.1331 18.5843 19.2996 18.2991 19.3874 17.9539C19.4239 17.8099 19.4651 17.6807 19.4789 17.667C19.4928 17.653 19.5004 14.1779 19.4957 9.94433C19.491 5.71079 19.4781 2.76305 19.467 3.39389C19.4561 4.02454 19.4433 4.5077 19.4386 4.46739C19.4273 4.36906 15.7095 0.645055 15.5564 0.578562C15.456 0.535049 14.4158 0.527326 8.87932 0.529021C2.53213 0.530905 2.31268 0.533354 2.04991 0.602107ZM2.23206 1.70028C2.1424 1.73193 1.99924 1.82743 1.91429 1.91257C1.61252 2.21415 1.63701 1.4976 1.63701 9.99689C1.63701 18.4943 1.61271 17.7796 1.91353 18.0804C2.16274 18.3297 2.29441 18.357 3.25093 18.357H4.07466L4.08577 15.3329L4.09708 12.3089L4.19522 12.0401C4.42559 11.4096 4.90253 10.9365 5.51849 10.7268L5.76167 10.6441L9.87484 10.6339C13.4284 10.6253 14.0249 10.6315 14.2585 10.6797C15.1367 10.8613 15.7613 11.5439 15.8792 12.4505C15.898 12.5963 15.9141 13.985 15.9148 15.5364L15.9159 18.357H16.7416C17.7002 18.357 17.8314 18.3298 18.0808 18.0804C18.3802 17.7811 18.3574 18.3468 18.3574 11.2201V4.87313L16.7387 3.25487L15.1203 1.63662H14.6951V4.03339C14.6951 6.03667 14.6861 6.46483 14.6401 6.64151C14.4676 7.30362 13.9684 7.835 13.2895 8.07931L13.049 8.16578H5.79859L5.53808 8.08384C4.88935 7.87965 4.36682 7.33998 4.16206 6.6628C4.11007 6.49044 4.10028 6.14366 4.08804 4.05034L4.0741 1.63662L3.23474 1.63963C2.5747 1.64189 2.36053 1.65489 2.23206 1.70028ZM5.1962 3.99496L5.20674 6.35312L5.2932 6.52868C5.40396 6.75359 5.63434 6.95025 5.86848 7.01975C6.1433 7.1015 12.667 7.10169 12.9405 7.02013C13.1841 6.94742 13.3909 6.76941 13.4973 6.54074L13.5847 6.35312L13.5851 3.99496L13.5855 1.63662H5.18565L5.1962 3.99496ZM0.545427 9.99689C0.545427 14.2389 0.549759 15.9741 0.555034 13.8531C0.560308 11.7321 0.560308 8.26147 0.555034 6.14046C0.549759 4.01945 0.545427 5.75487 0.545427 9.99689ZM11.6108 2.93258C11.5522 2.95028 11.4626 3.00284 11.4117 3.04974C11.2303 3.21682 11.2179 3.30046 11.2188 4.34514C11.2196 5.43879 11.2424 5.55558 11.4841 5.70703C11.6568 5.81553 11.9902 5.79443 12.1273 5.66653C12.3232 5.48325 12.3278 5.45443 12.3278 4.35324C12.3278 3.36978 12.3245 3.32438 12.2469 3.18612C12.1953 3.09457 12.1108 3.01565 12.0132 2.96837C11.8493 2.88906 11.7779 2.88266 11.6108 2.93258ZM5.83777 11.7903C5.53752 11.8979 5.29377 12.1721 5.22878 12.4754C5.20147 12.6024 5.18828 13.5924 5.18828 15.5104V18.357H14.8082L14.798 15.4068C14.7865 12.1454 14.8016 12.3453 14.5461 12.0542C14.4793 11.9781 14.3566 11.8796 14.2732 11.835L14.1218 11.754L10.0527 11.7461C6.62552 11.7393 5.96059 11.7462 5.83777 11.7903Z" fill="#FDFDFD"/>
</g>
</g>
<defs>
<clipPath id="clip0_66_660">
<rect width="20" height="20" fill="white"/>
</clipPath>
</defs>
</svg>
