<svg width="74" height="74" viewBox="0 0 74 74" fill="none" xmlns="http://www.w3.org/2000/svg">
<mask id="mask0_62_291" style="mask-type:luminance" maskUnits="userSpaceOnUse" x="2" y="2" width="70" height="70">
<path d="M2.04199 2.04199H71.8519V71.8519H2.04199V2.04199Z" fill="white"/>
</mask>
<g mask="url(#mask0_62_291)">
<path fill-rule="evenodd" clip-rule="evenodd" d="M58.2529 2.25051C57.8396 2.53975 50.8017 10.2188 50.5954 10.6056C50.3661 11.0349 50.5264 11.6594 50.9516 11.994C51.2499 12.2288 51.5036 12.2679 52.7135 12.2679H54.1262V19.3705L54.4614 19.7051L54.796 20.0396H62.8375L63.2201 19.7113L63.6027 19.3824L63.6836 12.2679H65.051C66.3808 12.2679 66.4296 12.2574 66.8171 11.8699C67.3893 11.2977 67.353 10.7771 66.6916 10.0494C62.3559 5.28087 59.6252 2.35087 59.3917 2.21705C58.9972 1.99124 58.6069 2.00239 58.2529 2.25051ZM56.6617 7.37732L54.4928 9.73094L55.2253 9.89612C56.4624 10.1742 56.4443 10.1108 56.4443 14.1922V17.7222H61.2163V10.6196L61.5446 10.2913C61.7649 10.0717 62.1022 9.93236 62.5663 9.87103L63.2598 9.77903L61.8631 8.26872C61.0951 7.43865 60.0984 6.36882 59.6482 5.89141L58.8307 5.0237L56.6617 7.37732ZM43.7639 9.44728C43.3499 9.65427 36.0367 17.64 35.9175 18.0163C35.7942 18.4039 35.9489 18.898 36.2925 19.2179C36.5504 19.4584 36.7713 19.4946 37.9868 19.4946H39.3842L39.4267 23.0052C39.4734 26.8405 39.5041 26.9966 40.2707 27.2636C40.9154 27.4887 47.7616 27.4455 48.3178 27.2127C49.0182 26.92 49.0816 26.5555 49.0816 22.8149V19.4946H50.4874C51.7113 19.4946 51.9322 19.4584 52.1901 19.2179C52.5943 18.8415 52.703 18.3209 52.4744 17.8574C52.303 17.5097 45.8715 10.4126 45.109 9.72954C44.6818 9.34691 44.1779 9.24098 43.7639 9.44728ZM42.0291 14.6988L39.8163 17.1082L40.5906 17.1953C41.8751 17.3403 41.8556 17.2748 41.8556 21.4182V24.9483H46.6277V21.4036C46.6277 18.0554 46.6423 17.8435 46.8967 17.5891C47.1783 17.3075 47.4835 17.2065 48.2397 17.1452L48.6927 17.1082L46.6242 14.8584C45.4867 13.6213 44.4852 12.5369 44.3988 12.4491C44.2789 12.3271 43.7109 12.8658 42.0291 14.6988ZM29.1069 18.8952C28.7166 19.0994 22.2154 26.1017 21.5735 27.0092C21.1602 27.5932 21.1867 28.0253 21.6655 28.5041C22.053 28.8917 22.1011 28.9021 23.4378 28.9021H24.8122V32.2475C24.8122 36.1295 24.8722 36.4244 25.7218 36.6746C26.0702 36.777 27.4774 36.814 29.9565 36.7854L33.6685 36.7422L34.0462 36.3644L34.4247 35.9867L34.4665 32.4447L34.509 28.9021H35.875C37.2027 28.9021 37.2515 28.8917 37.639 28.5041C38.0642 28.0783 38.1346 27.7026 37.8788 27.2245C37.6167 26.7353 30.2506 18.813 30.0575 18.813C29.9593 18.813 29.7976 18.783 29.6972 18.7475C29.5975 18.7112 29.332 18.7774 29.1069 18.8952ZM27.4196 24.0959L25.2095 26.5164L25.7266 26.5527C27.2634 26.6607 27.2662 26.6684 27.2662 30.9407V34.3565H32.0383V27.2538L32.3728 26.9193C32.6321 26.6607 32.8502 26.5847 33.3388 26.5847C33.6859 26.5847 33.9493 26.5269 33.9242 26.4572C33.8859 26.3485 29.7091 21.6761 29.6505 21.6761C29.6394 21.6761 28.635 22.7654 27.4196 24.0959ZM54.7137 27.4587L54.3311 27.7877L54.2628 32.2433L54.1945 36.6996L51.6304 37.9137C50.2205 38.5821 49.0085 39.1285 48.9381 39.1285C48.8607 39.1285 48.8091 37.9291 48.8091 36.1525V33.1765L48.1052 32.5158H40.3774L40.0268 32.8448L39.6769 33.1737L39.6414 38.4253L39.6058 43.6762L36.9469 44.9474L34.2881 46.2194L34.2539 44.0031C34.2184 41.6634 34.1368 41.3037 33.5848 41.0521C33.1492 40.8535 25.9929 40.8431 25.6242 41.0403C25.0534 41.3463 25.0192 41.6076 24.9481 46.2535L24.8798 50.7196L22.3178 51.9456C20.9093 52.6202 19.7279 53.1722 19.6931 53.1722C19.6589 53.1722 19.6311 52.2243 19.6311 51.0667C19.6311 49.0372 19.6185 48.9466 19.3021 48.5779L18.9731 48.1952L15.3817 48.1527C13.0372 48.1248 11.614 48.1618 11.2801 48.2601C10.3372 48.5381 10.3595 48.3444 10.3595 56.3698V63.5345H2.83931L2.04199 64.3319V71.0547L2.83931 71.852H71.0692L71.9878 70.8777V67.5246C71.9878 65.6798 71.9509 64.2078 71.9056 64.2531C71.8603 64.2984 71.6818 64.1702 71.509 63.9688L71.194 63.6028L67.2959 63.5624L63.3978 63.5227V45.7461C63.3978 35.9692 63.3602 27.8713 63.3135 27.7493C63.1009 27.1953 62.6228 27.1297 58.7763 27.1297H55.0964L54.7137 27.4587ZM13.6826 28.8004C11.3227 31.2299 6.81196 36.2954 6.73529 36.6014C6.62866 37.0251 6.89559 37.7263 7.23292 37.9068C7.36743 37.9786 8.09575 38.0378 8.85056 38.0378H10.2229V41.4529C10.2229 45.1732 10.2891 45.5496 10.9881 45.8151C11.177 45.8869 13.0177 45.9455 15.0786 45.9455C18.1709 45.9455 18.8965 45.9092 19.2282 45.7378C19.4499 45.6235 19.6436 45.5161 19.6589 45.4994C19.675 45.4827 19.721 43.8121 19.7614 41.7874L19.8353 38.1061L21.287 38.0378C22.4356 37.9841 22.7966 37.9172 23.0134 37.7207C23.3445 37.4203 23.4845 36.931 23.3458 36.5596C23.2901 36.4097 21.8251 34.7328 20.0918 32.8329C15.2695 27.5507 15.68 27.948 15.0521 27.948C14.5663 27.948 14.4241 28.0365 13.6826 28.8004ZM56.5809 32.5158C56.5809 34.1279 56.606 35.4472 56.6366 35.4472C56.6673 35.4472 57.0813 35.2632 57.5573 35.0381C58.0326 34.8137 58.6237 34.629 58.8704 34.629C59.7311 34.629 60.272 35.6187 59.8461 36.4146C59.7674 36.5617 59 37.014 58.1414 37.4189L56.5809 38.1549V63.5345H61.0804V29.5844H56.5809V32.5158ZM12.8441 33.2302L10.6348 35.6514L11.3324 35.7413C11.7701 35.7971 12.1381 35.9386 12.32 36.1198C12.5974 36.3972 12.6106 36.5505 12.6497 39.9503L12.6901 43.4915H17.4489V40.0262C17.4489 38.12 17.4872 36.4606 17.5339 36.3393C17.6552 36.0229 18.3103 35.7197 18.8742 35.7197C19.1404 35.7197 19.3579 35.6835 19.3579 35.6389C19.3579 35.5762 16.7603 32.6559 15.2744 31.0487C15.066 30.8229 14.921 30.9532 12.8441 33.2302ZM41.9915 38.7118V42.5213L42.9798 42.0711C43.5241 41.823 44.5361 41.3351 45.2296 40.9866L46.4911 40.3531V34.9015H41.9915V38.7118ZM51.4339 40.6535L48.8091 41.8996V63.5345H54.2628V51.4681C54.2628 44.831 54.2168 39.4024 54.1604 39.4045C54.1046 39.4066 52.8773 39.9684 51.4339 40.6535ZM44.1228 44.1334L41.9915 45.1837V63.5345H46.4911V53.3088C46.4911 47.6 46.4388 43.0824 46.3726 43.0824C46.3071 43.0824 45.2951 43.5556 44.1228 44.1334ZM27.4028 46.4229C27.4028 48.1102 27.4342 49.4909 27.4725 49.4909C27.5109 49.4909 28.5228 48.9995 29.7223 48.3994L31.9017 47.3073V43.3549H27.4028V46.4229ZM37.0828 47.5185C35.7705 48.1472 34.5898 48.7256 34.4581 48.8044C34.2358 48.9382 34.2198 49.4407 34.2198 56.2409V63.5345H39.6734V54.9446C39.6734 50.2206 39.6274 46.3595 39.5717 46.3657C39.5152 46.3713 38.3952 46.8905 37.0828 47.5185ZM29.5564 51.1036L27.4147 52.1498L27.4084 57.8418L27.4028 63.5345H31.9017V56.7852C31.9017 53.0732 31.8557 50.0408 31.7999 50.0471C31.7435 50.0526 30.7336 50.528 29.5564 51.1036ZM22.2551 54.6107L19.6304 55.8903V63.5345H24.9481V58.4217C24.9481 55.6095 24.9328 53.3137 24.914 53.3207C24.8952 53.3269 23.6992 53.9075 22.2551 54.6107ZM2.10123 67.6933C2.10123 69.5681 2.12005 70.3536 2.14375 69.4392C2.16744 68.5254 2.16744 66.9914 2.14375 66.031C2.12075 65.0706 2.10123 65.8185 2.10123 67.6933Z" fill="black"/>
</g>
</svg>
