<svg width="88" height="82" viewBox="0 0 88 82" fill="none" xmlns="http://www.w3.org/2000/svg">
<path fill-rule="evenodd" clip-rule="evenodd" d="M25.4283 0.322287C24.2079 0.87681 23.4648 2.25069 23.7022 3.51658C23.7665 3.85855 24.2422 4.75675 24.7598 5.51183C25.2775 6.26691 25.7 6.92599 25.7 6.97656C25.7 7.02627 20.7616 7.06741 14.7244 7.06741C6.63799 7.06741 3.56112 7.12226 3.0383 7.27653C2.07925 7.55851 0.490243 9.14665 0.208267 10.1057C0.0479957 10.6508 0 18.5693 0 44.1819V77.5475L0.443961 78.4397C0.924776 79.403 1.53672 80.0013 2.65348 80.5987L3.36313 80.9783L31.2984 81.0238C55.6485 81.0632 59.3468 81.0358 60.119 80.8112C61.2272 80.489 62.4477 79.4399 62.9867 78.3463L63.3887 77.5286L63.4753 66.8839L63.5618 56.2382L65.1594 55.2252L65.9453 56.0274C66.6661 56.7636 66.7107 56.8579 66.4836 57.1647C66.3465 57.349 66.235 57.7741 66.235 58.1092C66.235 58.6809 66.6447 59.1274 72.9193 65.3986C80.4881 72.9639 80.5763 73.0316 82.8801 73.0265C84.9551 73.0222 86.4961 72.0546 87.4432 70.1596C87.8811 69.2828 87.9686 68.9048 87.9668 67.8849C87.9634 65.6523 87.9317 65.6103 80.4221 58.0869C75.8788 53.5359 73.6067 51.3769 73.2853 51.3058C73.0084 51.245 72.6082 51.3092 72.3116 51.4627C71.8154 51.7198 71.7991 51.7121 71.0072 50.9081L70.2041 50.0939L70.6566 49.428C71.422 48.3026 72.4179 46.0031 72.9159 44.2161C73.3564 42.634 73.389 42.2877 73.383 39.3231C73.3761 36.4305 73.3324 35.9746 72.9219 34.4576C72.3871 32.4829 71.4503 30.4139 70.2812 28.6252C69.1705 26.9257 66.6721 24.4419 64.898 23.2737L63.4753 22.3369V16.8037C63.4753 10.7194 63.4016 10.1469 62.4494 8.83211C62.1674 8.443 61.5657 7.90648 61.1106 7.63993L60.2844 7.15397L37.5893 6.98084L38.55 5.59154C39.5537 4.13881 39.7962 3.38373 39.5965 2.32354C39.4422 1.50075 38.4309 0.395138 37.6287 0.1723C37.2627 0.0711661 34.7189 -0.0016844 31.5649 2.9621e-05C26.6479 0.00260088 26.0651 0.0334553 25.4283 0.322287ZM26.6694 3.14375C26.7397 3.26203 27.4322 4.25623 28.2087 5.35327C28.9852 6.45032 29.7094 7.51223 29.8165 7.71364C30.1319 8.30159 30.0445 8.94867 29.5894 9.40377L29.166 9.82717H21.2158V14.3122H42.0872V9.82717H34.137L33.7136 9.40377C32.9774 8.66841 33.1282 8.22274 35.0146 5.55726C35.9634 4.21766 36.7399 3.0769 36.7399 3.02462C36.7399 2.97148 34.4455 2.92777 31.6412 2.92777C27.6096 2.92777 26.5691 2.9732 26.6694 3.14375ZM4.02993 10.0149C3.73253 10.1014 3.34428 10.3851 3.16772 10.6465C2.85661 11.1051 2.84375 12.2278 2.80175 43.8073C2.76061 74.6729 2.77518 76.5276 3.06059 77.095C3.22686 77.4258 3.55683 77.7935 3.79424 77.9118C4.13364 78.0815 10.0954 78.1277 31.7775 78.1303L59.3296 78.1329L59.8936 77.6289L60.4567 77.1258L60.5038 67.345L60.5518 57.5641L60.1593 57.6755C59.9433 57.7372 59.3982 57.8761 58.9474 57.9849L58.128 58.1829V67.3372L49.7476 75.7177H6.0209L5.17412 74.8709V44.1681C5.17412 22.0344 5.22811 13.3489 5.3661 13.0455C5.71407 12.2818 6.05518 12.2424 12.3409 12.2424H18.2838V9.82717L11.4273 9.84259C7.65618 9.85116 4.32733 9.92916 4.02993 10.0149ZM45.0192 11.0348V12.2424H57.2812L57.7046 12.6658C58.128 13.0883 58.128 13.0909 58.128 16.7754V20.4625L58.9474 20.6605C59.3982 20.7693 59.9416 20.9082 60.155 20.969L60.5433 21.0796V16.2209C60.5433 12.1481 60.4995 11.2782 60.2724 10.8402C59.765 9.85716 59.5156 9.82717 51.9237 9.82717H45.0192V11.0348ZM8.107 44.0662V72.9579H47.6067V69.5005C47.6067 64.8672 47.2844 65.1963 51.8243 65.1963H55.196V58.6912L53.4279 58.5703C48.6163 58.2429 44.9446 56.7173 41.2807 53.5213C40.5933 52.9222 39.9668 52.432 39.8879 52.432C39.8091 52.432 37.9544 53.1279 35.7654 53.979C32.4417 55.2706 31.7029 55.502 31.2873 55.3794C30.5493 55.1618 12.9306 48.2949 12.3683 48.0061C12.1035 47.8698 11.8121 47.563 11.7213 47.3239C11.6244 47.0685 11.5567 43.3094 11.5567 38.1815C11.5567 28.2147 11.4873 28.7024 12.9769 28.1393C13.4765 27.9507 17.791 26.276 22.5657 24.4179C27.3396 22.5598 31.439 21.0393 31.6738 21.0393C31.9095 21.0393 34.2038 21.8544 36.7716 22.8503C39.3403 23.8462 41.5078 24.6613 41.5883 24.6613C41.6689 24.6613 42.2603 24.2799 42.9022 23.8145C46.0665 21.521 49.3559 20.352 53.4279 20.0751L55.196 19.9551V15.1744H45.0192V15.6775C45.0192 16.4163 44.8623 16.7094 44.3164 16.9923C43.9016 17.2065 41.9903 17.2442 31.5607 17.2442H19.2917L18.7878 16.7403C18.4492 16.4017 18.2838 16.0615 18.2838 15.7049V15.1744H8.107V44.0662ZM51.6512 23.176C49.6559 23.5591 48.468 23.9594 46.843 24.7967C42.574 26.9968 39.6411 30.6779 38.3623 35.4415C37.9012 37.1573 37.9012 41.4881 38.3623 43.2039C39.3694 46.9536 41.4246 50.0682 44.3747 52.3137C52.9102 58.8129 65.1174 55.5217 69.3822 45.572C70.7064 42.4823 70.9781 38.5364 70.1021 35.1184C69.7404 33.7068 68.4883 31.0842 67.5506 29.7754C65.3308 26.6754 61.7346 24.2833 57.9138 23.3628C56.3608 22.9892 53.1296 22.8932 51.6512 23.176ZM24.4521 26.78C20.4925 28.3184 17.2519 29.616 17.2511 29.6631C17.2502 29.7111 17.6907 29.9228 18.2307 30.1354L19.212 30.5202L26.4225 27.7202C30.3882 26.18 33.633 24.8687 33.6339 24.807C33.6348 24.7444 33.3048 24.5782 32.902 24.4367C32.4983 24.2962 32.0526 24.1359 31.9103 24.0819C31.7681 24.0271 28.4118 25.2415 24.4521 26.78ZM51.2286 24.2173C48.3326 24.8216 45.1186 26.6077 43.1619 28.6989C41.8112 30.1431 41.1718 31.085 40.3465 32.8454C37.3219 39.2991 39.2168 47.1507 44.8426 51.4798C47.8724 53.8119 51.1609 54.8146 55.1523 54.6252C59.2088 54.4332 62.5762 52.8605 65.4834 49.7999C71.0569 43.9325 71.0569 34.713 65.4834 28.8455C63.4641 26.72 61.1749 25.3092 58.3809 24.4693C56.8356 24.0048 52.9085 23.8659 51.2286 24.2173ZM30.5733 29.1926C26.6599 30.7225 23.4579 32.0175 23.4579 32.0706C23.4579 32.1229 23.9216 32.3458 24.489 32.566L25.52 32.9663L32.2077 30.3634C36.8608 28.5524 38.9837 27.6447 39.1843 27.3799C39.468 27.0054 39.4594 26.9934 38.6666 26.6925C38.2235 26.5246 37.8224 26.3917 37.7744 26.3986C37.7273 26.4046 34.4867 27.6619 30.5733 29.1926ZM51.0958 27.2513C47.209 28.2695 43.6916 31.5538 42.4317 35.3412C41.8515 37.0871 41.6458 39.0737 41.8712 40.7596C42.2757 43.785 43.3968 46.0203 45.6063 48.2101C48.0129 50.5953 50.837 51.7515 54.2618 51.7549C56.1019 51.7566 56.9016 51.6272 58.5309 51.0633C64.3718 49.044 67.8737 42.5423 66.409 36.4357C65.3317 31.9395 61.9883 28.5198 57.4415 27.2608C55.7308 26.7868 52.8828 26.7825 51.0958 27.2513ZM33.2902 33.0383C31.5349 33.7359 29.9828 34.3547 29.8405 34.4139C29.6717 34.4824 29.9434 34.6684 30.6162 34.9435L31.6515 35.3669L33.7248 34.575L35.7971 33.7822L36.1708 32.758C36.3757 32.1941 36.5299 31.7415 36.5119 31.7518C36.4948 31.7612 35.0446 32.3406 33.2902 33.0383ZM14.4904 38.8483L14.4922 45.7914L18.8461 47.473C21.4627 48.4852 24.0793 49.5 26.6942 50.5182L30.1885 51.88L30.1439 44.8787L30.0985 37.8764L28.7186 37.3142C27.9601 37.0048 27.2419 36.7477 27.1236 36.7434C26.9625 36.7374 26.9076 37.2619 26.9076 38.8132C26.9076 40.7887 26.8871 40.9113 26.4842 41.3141C26.2511 41.5472 25.8792 41.7375 25.6572 41.7375C25.0581 41.7375 18.5984 39.1869 18.1973 38.7918C17.8896 38.4892 17.8433 38.1575 17.7662 35.7492L17.6796 33.046L16.2997 32.4837C15.5412 32.1752 14.823 31.9181 14.7039 31.9138C14.535 31.9078 14.4887 33.4042 14.4904 38.8483ZM20.6982 35.5872V36.8539L22.1209 37.4153C22.9034 37.7247 23.6448 38.0178 23.7673 38.0675C23.9413 38.1378 23.9799 37.8593 23.9396 36.8094L23.889 35.4603L22.5092 34.899C21.7507 34.5896 21.0324 34.3333 20.9142 34.329C20.7599 34.323 20.6982 34.6847 20.6982 35.5872ZM34.1524 37.4933L33.2037 37.8738L33.1582 44.8924L33.1137 51.9109L34.0213 51.5492C34.5201 51.3504 35.6249 50.9201 36.4751 50.5936C37.3261 50.267 38.0444 49.9774 38.0718 49.9499C38.0992 49.9216 37.7418 49.1691 37.2764 48.2761C35.6669 45.1881 34.9298 42.0632 35.0421 38.802C35.0746 37.855 35.1012 37.0871 35.1012 37.0965C35.1012 37.1051 34.6744 37.2842 34.1524 37.4933ZM67.9106 52.9102L67.4435 53.3979L68.8268 54.7486L69.2956 54.279L69.7644 53.8102L68.3777 52.4234L67.9106 52.9102ZM71.2746 56.4482L69.6796 58.0492L70.3747 58.728L71.0698 59.4059L74.3386 56.1508L73.7018 55.4986C73.3513 55.1403 73.0204 54.8464 72.9664 54.8464C72.9133 54.8464 72.1514 55.5671 71.2746 56.4482ZM74.7243 59.897L73.1301 61.4981L77.4018 65.7465C81.0194 69.3454 81.7702 70.013 82.3085 70.1133C83.5504 70.3456 84.7674 69.5973 85.0185 68.4472C85.3005 67.1564 85.1557 66.9567 80.6989 62.4974C78.39 60.1867 76.4599 58.296 76.4101 58.296C76.3596 58.296 75.6011 59.0168 74.7243 59.897ZM28.1941 60.617C27.613 61.1981 27.6216 62.0646 28.2155 62.6217L28.6603 63.0399L38.778 63.0871C46.3228 63.1222 49.0217 63.0819 49.3928 62.9285C50.3527 62.5308 50.537 61.1784 49.7185 60.5347C49.2977 60.2039 48.984 60.1936 38.9511 60.1936H28.6166L28.1941 60.617ZM19.7323 62.6328L17.443 64.8989L16.2706 63.8396C15.3312 62.9928 14.9833 62.7811 14.5264 62.7811C13.7559 62.7811 13.1088 63.4316 13.1088 64.2064C13.1088 64.7138 13.3385 65.0112 14.9807 66.6293C17.5613 69.1722 17.2425 69.2254 20.8293 65.6703C22.3849 64.1284 23.7742 62.6457 23.9165 62.374C24.4179 61.4218 23.7536 60.3659 22.6532 60.3659C22.0729 60.3659 21.8312 60.5536 19.7323 62.6328ZM28.1941 66.1365C27.5701 66.7604 27.6156 67.6218 28.3012 68.1995L28.8318 68.646H35.6403C43.6856 68.646 43.6393 68.6554 43.6393 67.0056C43.6393 66.5873 43.5142 66.3302 43.1842 66.0714C42.742 65.7225 42.5517 65.7131 35.6737 65.7131H28.6166L28.1941 66.1365ZM50.5387 69.4611V70.7929L51.832 69.5082C52.5442 68.8011 53.1262 68.202 53.1262 68.1755C53.1262 68.1497 52.5442 68.1283 51.832 68.1283H50.5387V69.4611Z" fill="black"/>
</svg>
