<svg width="78" height="78" viewBox="0 0 78 78" fill="none" xmlns="http://www.w3.org/2000/svg">
<path fill-rule="evenodd" clip-rule="evenodd" d="M0 33.6925V67.385H19.9432V74.9388H39.8531L39.9512 75.4632C40.0663 76.0749 40.6486 76.8202 41.2572 77.1353C41.8928 77.4643 54.5292 77.4612 55.7935 77.1322C58.9074 76.3213 61.4436 73.7588 62.1665 70.6927C62.3441 69.9397 62.3951 68.6716 62.3966 64.9429C62.399 59.614 62.3202 59.0626 61.3594 57.6663L60.8791 56.9674L61.2992 56.8631C62.2538 56.6252 63.8764 55.8514 65.0263 55.0853C68.4932 52.7768 70.7584 48.9617 71.1059 44.8468L71.2032 43.7015L71.9261 43.6158C73.4282 43.4374 75.04 42.2087 75.725 40.7181C76.054 40.0022 76.0749 39.7581 76.1197 36.0542L76.1668 32.1463L76.6024 31.7795C76.8418 31.5779 77.0928 31.2628 77.1592 31.079C77.2264 30.896 77.3152 38.9727 77.3577 49.0273C77.4133 62.3565 77.4342 58.1822 77.4342 33.6168C77.4342 15.0862 77.4002 5.94132 77.3577 13.2952C77.3152 20.6498 77.2264 26.5178 77.16 26.3363C76.9623 25.7926 76.0409 25.0913 75.3883 24.9863C74.8307 24.8975 74.7882 24.855 74.7882 24.3978C74.7882 23.5923 74.3627 21.5944 73.9024 20.2328C72.3292 15.5858 68.9133 11.6602 64.5143 9.44217C62.5457 8.44976 59.4302 7.55389 57.9443 7.55389C57.4879 7.55389 57.4446 7.51064 57.3566 6.96154C57.25 6.29504 56.6832 5.53818 56.0429 5.20686C55.4312 4.89099 51.8323 4.89485 51.2183 5.21227C50.6213 5.52119 50.0135 6.35451 49.907 7.01096C49.8259 7.51142 49.778 7.55389 49.3038 7.55389C48.5276 7.55389 46.6262 7.97325 45.0994 8.48143C43.2922 9.08228 41.3777 10.1087 39.7257 11.3629C38.7534 12.1012 38.2475 12.3893 37.9216 12.3893H37.4698V2.41731H9.9712V29.9151H7.55389V0H0V33.6925ZM0.0741411 33.7682C0.0741411 52.2988 0.0919042 59.9021 0.112756 50.6638C0.134381 41.4255 0.134381 26.2645 0.112756 16.9714C0.0919042 7.67901 0.0741411 15.2368 0.0741411 33.7682ZM2.56791 33.6925V64.8163H4.98599V2.56791H2.56791V33.6925ZM12.5399 17.4502V29.9151H17.3745V12.3893H34.9011V4.98599H30.0665V9.9712H17.3745V4.98599H12.5399V17.4502ZM20.0945 6.19464V7.40329H27.3465V4.98599H20.0945V6.19464ZM52.427 16.2415V24.9292H54.8443V7.55389H52.427V16.2415ZM48.801 10.223C41.9422 11.3019 36.4565 16.6454 35.2742 23.4C35.1521 24.0966 35.0517 24.726 35.0517 24.7979C35.0517 24.8705 36.1368 24.9292 37.4629 24.9292H39.8732L39.918 20.7247L39.962 16.5196L40.3976 15.9488C41.0726 15.0645 41.5731 14.9271 43.9023 14.9842C46.081 15.0375 46.3497 15.1302 47.0541 16.0732C47.3483 16.467 47.3684 16.7204 47.4101 20.7093L47.4549 24.9292H49.8583V10.1226L49.5185 10.1434C49.2783 10.1604 49.0389 10.1874 48.801 10.223ZM57.413 17.5066V24.9292H59.8303V20.9194C59.8303 17.2231 59.8535 16.864 60.1292 16.3242C60.2937 16.0021 60.6505 15.5797 60.9223 15.3858C61.3741 15.0638 61.5996 15.029 63.5319 14.985C65.5415 14.9387 65.6735 14.9541 66.1724 15.29C66.4613 15.4854 66.8521 15.8739 67.0413 16.1543C67.378 16.6539 67.3849 16.7482 67.3849 20.7966V24.9292H72.2582L72.1547 24.136C71.2163 16.9327 65.4094 11.1258 58.2061 10.1874L57.413 10.084V17.5066ZM20.0945 22.4362V29.9151H29.9151V28.3991C29.9151 27.4608 29.9939 26.6954 30.1213 26.3904C30.4009 25.7208 31.1771 25.0998 31.8714 24.9886L32.4452 24.8967L32.541 23.9684C32.6313 23.0934 33.097 20.9356 33.3195 20.361C33.4144 20.1146 33.0731 20.0961 27.9288 20.0582L22.4362 20.0189L22.3952 17.488L22.3535 14.9572H20.0945V22.4362ZM25.0805 16.1658V17.3745H32.3325V14.9572H25.0805V16.1658ZM35.0517 15.738C35.0517 16.1674 35.0749 16.4902 35.1035 16.4555C35.1313 16.4215 35.3722 16.0701 35.6395 15.6754L36.1245 14.9572H35.0517V15.738ZM42.455 21.2275V24.9292H44.8723V17.5259H42.455V21.2275ZM62.399 21.2275V24.9292H64.8163V17.5259H62.399V21.2275ZM32.4838 28.7065V29.9151H74.7882V27.4978H32.4838V28.7065ZM7.55389 33.6925V34.9011H31.1238V32.4838H7.55389V33.6925ZM33.6925 33.3758V34.2678L34.4493 33.9798C34.8656 33.8215 35.4093 33.6925 35.658 33.6925C36.0843 33.6925 36.1098 33.6585 36.1098 33.0878V32.4838H33.6925V33.3758ZM38.7163 38.9426C38.7781 45.0793 38.7982 45.4577 39.1179 46.5343C40.0848 49.788 42.1059 52.2501 44.948 53.638C47.2024 54.7385 47.4364 54.7686 53.6356 54.7686C58.4502 54.7686 59.275 54.7346 60.1323 54.5006C63.3242 53.6279 66.0033 51.4384 67.3857 48.574C68.4839 46.2965 68.4839 46.3003 68.5534 39.0183L68.616 32.4838H38.6507L38.7163 38.9426ZM71.1615 33.0878C71.1615 33.6585 71.187 33.6925 71.6133 33.6925C71.862 33.6925 72.4057 33.8215 72.822 33.9798L73.5796 34.2678V32.4838H71.1615V33.0878ZM44.5704 35.1297C43.6189 35.4448 42.5207 36.299 41.9885 37.1369C41.519 37.8776 41.0958 39.0862 41.0958 39.6879C41.0958 40.0261 41.1375 40.0377 42.3778 40.0377H43.6598L43.8305 39.3596C44.0398 38.5279 44.9079 37.6845 45.7095 37.5339C46.9197 37.3069 48.2133 38.1618 48.5238 39.3936L48.686 40.0377H51.257L51.155 39.2646C50.9419 37.6598 49.8382 36.1152 48.401 35.4124C47.363 34.9042 45.6346 34.7768 44.5704 35.1297ZM59.5291 35.1436C57.6647 35.8209 56.4113 37.3578 56.124 39.3202L56.019 40.0377H57.3249C58.2378 40.0377 58.6487 39.9813 58.6896 39.8493C58.7213 39.745 58.7915 39.4608 58.8456 39.2168C58.9885 38.5696 59.9562 37.6675 60.6458 37.5378C61.89 37.3045 63.1628 38.1286 63.4756 39.3704L63.6431 40.0377H66.218L66.1253 39.2538C65.9322 37.6235 64.7182 35.9993 63.1805 35.3151C62.2321 34.8926 60.4504 34.8092 59.5291 35.1436ZM35.0293 36.5654C33.365 37.4443 33.3843 39.9427 35.061 40.7977C36.1291 41.3429 36.1098 41.3823 36.1098 38.6785C36.1098 35.9661 36.1214 35.9885 35.0293 36.5654ZM71.1615 38.6785V41.1336L71.628 41.0402C72.632 40.8394 73.5726 39.6971 73.5726 38.6785C73.5726 37.6598 72.632 36.5168 71.628 36.316L71.1615 36.2233V38.6785ZM7.55389 51.1427V64.8163H9.9712V39.8871H31.3099L31.2188 39.5465C31.1686 39.3596 31.1269 38.8159 31.1261 38.3379L31.1238 37.4698H7.55389V51.1427ZM12.5399 53.6357V64.8163H19.9432V54.8443H24.9292V52.2756H32.4838V54.8443H34.9011V43.5424L34.4099 43.3717C34.1396 43.2775 33.6654 43.0327 33.3558 42.828C32.8615 42.5014 32.6252 42.455 31.4319 42.455H30.0711L29.9908 49.934L17.3745 50.0128V42.455H12.5399V53.6357ZM20.0945 44.8723V47.2904H27.3465V42.455H20.0945V44.8723ZM45.7821 44.9859C45.7921 45.45 46.4532 47.5159 46.8463 48.3153C48.662 52.003 53.4055 53.4874 57.2384 51.5674C58.3861 50.9921 59.8287 49.5502 60.4103 48.3971C60.8381 47.5484 61.4923 45.5342 61.4923 45.0646C61.4923 44.9117 59.8867 44.8723 53.6356 44.8723C49.3146 44.8723 45.7806 44.9233 45.7821 44.9859ZM49.5478 47.7283C49.6328 47.8859 50.0089 48.2851 50.3843 48.6157C51.7597 49.8259 53.9948 50.1641 55.6846 49.4166C56.3294 49.1316 57.8663 47.8318 57.8663 47.5715C57.8663 47.4997 55.9603 47.441 53.6302 47.441C49.5177 47.441 49.3988 47.4495 49.5478 47.7283ZM37.4706 56.0151L37.4698 62.399L38.0359 62.4021C38.8777 62.4075 39.718 62.8562 40.8247 63.8911C42.1345 65.1159 42.3415 65.1051 42.6589 63.7961C42.9802 62.4747 43.927 60.5725 44.7735 59.5492C45.423 58.7653 46.9429 57.413 47.1753 57.413C47.2078 57.4122 47.2348 57.4006 47.2572 57.3775C47.2796 57.3551 47.2904 57.3273 47.2904 57.2956C47.2904 57.2307 46.8154 57.0554 46.2354 56.9063C42.8836 56.0429 39.735 53.5947 37.9471 50.463L37.4721 49.632L37.4706 56.0151ZM27.4978 56.1286V57.2616H29.9151V54.9957H27.4978V56.1286ZM22.5118 64.892V72.3709H31.0728L30.5693 71.37C30.2928 70.8202 30.0665 70.2765 30.0665 70.1614C30.0665 69.9922 29.5807 69.9529 27.4978 69.9529H24.9292V67.385H30.0209L30.4897 66.6304C30.7701 66.1802 31.2481 65.6928 31.6752 65.4218L32.3919 64.9676H24.9176L24.9608 63.6455L25.0048 62.3233H32.4081L32.4522 63.6609C32.4946 64.9592 32.5062 64.9962 32.8298 64.9097C33.0136 64.8603 33.3017 64.8194 33.4716 64.8186C33.6747 64.817 33.969 64.5336 34.3404 63.9837L34.9011 63.1504V57.413H32.4838V59.9817H24.9292V57.413H22.5118V64.892ZM55.1687 57.5775C53.9469 57.9497 52.9352 58.9877 52.5923 60.2218C52.5027 60.547 52.4285 61.9008 52.4278 63.2307L52.427 65.6488L53.56 67.3448C54.1832 68.2777 54.6922 69.0933 54.6898 69.1574C54.6867 69.2864 52.7992 70.5591 52.6177 70.5545C52.5544 70.5537 52.0347 69.8393 51.4624 68.9682L50.4221 67.385H42.455V74.7882H48.4828C54.099 74.7882 54.5779 74.7674 55.4961 74.4832C57.2037 73.9557 58.7305 72.5439 59.4125 70.8595C59.7299 70.0749 59.7515 69.7729 59.7994 65.397C59.855 60.3138 59.8079 59.9183 59.0317 58.9004C58.1814 57.786 56.4422 57.1898 55.1687 57.5775ZM49.2544 59.2549C47.397 60.1523 45.5859 62.4082 45.2461 64.2494L45.1411 64.8163H49.8583V62.5828C49.8583 61.1942 49.9355 60.0512 50.063 59.5608C50.1757 59.1275 50.2607 58.7746 50.2522 58.7769C50.2437 58.7792 49.7942 58.9939 49.2544 59.2549ZM36.6319 65.3383C36.3268 65.6426 36.2604 65.8589 36.2604 66.547V67.385L34.939 67.3873C33.4847 67.3896 32.9881 67.5572 32.6491 68.1619C32.463 68.4932 32.4568 68.6894 32.6128 69.3844C32.8553 70.4688 33.4894 71.3052 34.4779 71.845C35.2417 72.2613 35.3854 72.2844 37.5826 72.3447L39.8871 72.4072V66.6752L38.9912 65.821C38.2413 65.1059 38.0081 64.9676 37.5494 64.9676C37.1702 64.9676 36.8883 65.0812 36.6319 65.3383Z" fill="black"/>
</svg>
