<svg width="69" height="69" viewBox="0 0 69 69" fill="none" xmlns="http://www.w3.org/2000/svg">
<path fill-rule="evenodd" clip-rule="evenodd" d="M53.5283 0.0881053C52.4268 0.258615 50.6138 0.834084 49.6437 1.32224C47.6642 2.3171 45.6938 4.04626 44.5628 5.77954C44.2747 6.22094 44.0237 6.60321 44.0045 6.62728C43.9859 6.65203 43.0158 6.51796 41.849 6.32957C32.3349 4.79224 23.2587 5.31889 14.0148 7.94322C10.2498 9.01234 7.58904 10.045 3.11523 12.1743L0 13.6573V68.5531H62.975V23.837L63.5134 23.4637C64.2277 22.9687 65.6358 21.465 66.2945 20.4942C67.3918 18.8764 68.2409 16.7148 68.4389 15.0379C68.4918 14.5883 68.5654 26.4297 68.6025 41.3527L68.6699 68.4857L68.7029 41.286C68.7242 23.3729 68.6878 13.5604 68.597 12.5456C68.5207 11.6979 68.3447 10.5442 68.2058 9.98177C67.0377 5.25289 63.371 1.58006 58.5768 0.337681C57.3847 0.0289769 54.7548 -0.100968 53.5283 0.0881053ZM53.5283 4.18033C50.1236 4.92906 47.4745 7.52658 46.6034 10.9711C46.219 12.4927 46.3125 14.5621 46.8351 16.0761C47.7309 18.6757 49.8898 20.8146 52.5506 21.7407C53.8871 22.2055 55.9642 22.3183 57.3798 22.0034C62.6292 20.8359 65.7479 15.4415 64.1273 10.3317C62.9661 6.6699 59.6776 4.17827 55.8061 4.02632C54.9136 3.99194 54.1532 4.04282 53.5283 4.18033ZM53.432 9.36299L53.3942 11.1382L51.619 11.176L49.8437 11.2132V15.0833L51.619 15.1211L53.3942 15.1582L53.432 16.9335L53.4691 18.7087H57.4809V15.0909H60.9647V11.2056H57.4809V7.58777H53.4691L53.432 9.36299ZM27.8137 9.60225C19.8059 10.1598 12.3764 12.1386 5.1916 15.6271L4.01935 16.1964V64.5331H8.03938V29.294H54.9356V64.5331H58.955V45.172C58.955 34.5227 58.9399 25.8116 58.9213 25.813C58.9034 25.8144 58.4056 25.9031 57.8164 26.009C53.6479 26.7625 49.4622 25.4899 46.3779 22.5314C43.7508 20.0116 42.3379 16.6976 42.3482 13.0812C42.3503 12.3077 42.4011 11.4194 42.4616 11.108C42.5902 10.4445 42.7016 10.5043 40.7992 10.2135C36.927 9.62082 31.3311 9.35749 27.8137 9.60225ZM30.8842 13.6725C29.1984 14.0905 27.8267 15.1995 27.0546 16.7678C26.6132 17.6643 26.5967 17.7551 26.5967 19.245C26.5967 20.7177 26.6173 20.8332 27.0299 21.672C28.1602 23.967 30.7075 25.3084 33.1201 24.8773C35.0294 24.5363 36.5777 23.3413 37.4227 21.5572C37.8208 20.7177 37.8517 20.5499 37.8517 19.245C37.8517 17.94 37.8208 17.7723 37.4227 16.9321C36.2106 14.3731 33.5023 13.0228 30.8842 13.6725ZM0.0653163 41.0853C0.0653163 56.229 0.0811295 62.4244 0.100381 54.8525C0.119632 47.2807 0.119632 34.8899 0.100381 27.3173C0.0811295 19.7455 0.0653163 25.9409 0.0653163 41.0853ZM31.4026 17.7599C30.7769 18.1415 30.5494 18.5485 30.5494 19.2883C30.5494 19.8493 30.6119 20.004 30.9942 20.3863C31.5463 20.9384 32.2001 21.0841 32.8698 20.8043C34.1961 20.2501 34.2126 18.2467 32.8952 17.6959C32.2771 17.4374 31.9052 17.4532 31.4026 17.7599ZM12.0587 48.9232V64.5331H16.0788V51.6699H22.7754L22.8104 45.2724L22.8448 38.8742L40.1969 38.8054V51.6699H46.8963V64.5331H50.9156V33.3134H12.0587V48.9232ZM26.8869 42.9162C26.838 42.965 26.7975 44.9548 26.7975 47.3378V51.6699H36.1769V42.8268H31.5765C29.0464 42.8268 26.9364 42.8674 26.8869 42.9162ZM20.0981 60.1115V64.5331H29.4775V55.69H20.0981V60.1115ZM33.4968 60.1115V64.5331H42.8762V55.69H33.4968V60.1115Z" fill="black"/>
</svg>
