<svg width="58" height="58" viewBox="0 0 58 58" fill="none" xmlns="http://www.w3.org/2000/svg">
<path fill-rule="evenodd" clip-rule="evenodd" d="M14.4577 7.70397C6.79209 11.9377 0.402869 15.5113 0.260059 15.6458L0 15.8903V57.0207L0.276174 57.2963L0.551791 57.5725H6.15417L6.4509 57.2763L6.74708 56.9795V30.6953H50.8309V56.9773L51.1065 57.2752L51.3822 57.5725H57.0379L57.3646 57.2235L57.6908 56.874L57.6697 36.2782C57.6586 24.9501 57.6302 15.9503 57.6075 16.2776C57.5675 16.8521 57.5591 16.8649 57.3752 16.6488C57.2702 16.5254 50.8737 12.7279 43.1603 8.20964C32.0661 1.7104 29.0593 -0.00443683 28.7659 8.61417e-06C28.4925 0.00445406 24.7428 2.02324 14.4577 7.70397ZM15.3235 9.52549L1.91377 16.9194L1.94099 36.2621L1.96767 55.6048L3.3452 55.6365L4.72329 55.6676V38.8482C4.72329 20.3513 4.68272 21.4026 5.40233 21.1515C5.92634 20.9686 51.6517 20.9686 52.1757 21.1515C52.8953 21.4026 52.8547 20.3513 52.8547 38.8482V55.6676L54.2328 55.6365L55.6103 55.6048V17.8463L42.2279 9.99282C34.8673 5.67351 28.8198 2.13771 28.7893 2.13605C28.7582 2.13382 22.6985 5.45958 15.3235 9.52549ZM23.4875 13.5475C23.3236 13.6359 23.1341 13.8693 23.0658 14.0654C22.9046 14.5277 22.9018 18.0652 23.0619 18.5259C23.3103 19.2377 23.2025 19.2244 28.7893 19.2244C34.3755 19.2244 34.2677 19.2377 34.5161 18.5259C34.6767 18.0646 34.6734 14.5277 34.5122 14.0649C34.2722 13.3775 34.2633 13.3764 28.7665 13.3814C24.6556 13.3853 23.7326 13.4142 23.4875 13.5475ZM24.9656 16.3009V17.2006H32.6124V15.4013H24.9656V16.3009ZM0.0550124 36.4305C0.0550124 47.7803 0.0683488 52.4235 0.0844635 46.7484C0.100023 41.0737 0.100023 31.7872 0.0844635 26.1126C0.0683488 20.4374 0.0550124 25.0807 0.0550124 36.4305ZM6.74708 23.9476V24.8473H50.8309V23.048H6.74708V23.9476ZM6.74708 27.8274V28.7837H50.8309V26.8716H6.74708V27.8274ZM35.7959 32.8785L35.4802 33.1497L35.448 38.6104L35.4158 44.0716L29.9557 44.1028L24.4961 44.1339L24.2249 44.4495L23.9532 44.7651V50.7826C23.9532 56.9545 23.9626 57.0979 24.3933 57.4285C24.5311 57.5341 27.2917 57.5663 36.4577 57.5691L48.3443 57.5725L48.6593 57.3013L48.975 57.0301L49.0077 45.4653C49.0261 39.1044 49.01 33.7304 48.9722 33.522C48.9349 33.3142 48.7832 33.0236 48.6354 32.8758L48.367 32.6068H36.1115L35.7959 32.8785ZM37.4485 39.3545V44.0777H47.0073V34.6312H45.0952V36.2421C45.0952 37.8286 45.0907 37.8575 44.8051 38.1258C44.5178 38.3959 44.4939 38.3987 42.2212 38.3987H39.9274L39.6156 38.0869C39.3089 37.7808 39.3033 37.7485 39.265 36.2032L39.2261 34.6312H37.4485V39.3545ZM41.2715 35.5308V36.4305H43.1836V34.6312H41.2715V35.5308ZM25.9775 50.8815V55.6609H35.4241V46.1021H33.6248V49.2678L33.2959 49.5968L32.9674 49.9257H30.7158C28.4987 49.9257 28.4592 49.9213 28.1486 49.6546C27.8335 49.3834 27.833 49.3817 27.7968 47.7425L27.7602 46.1021H25.9775V50.8815ZM29.8012 47.0017V47.9014H31.6005V46.1021H29.8012V47.0017ZM37.4485 50.8815V55.6609H47.0073V46.1021H45.0952V47.738C45.0952 49.3628 45.0935 49.3756 44.7979 49.6496C44.5028 49.9235 44.4817 49.9257 42.2634 49.9257C39.7429 49.9257 39.5634 49.8779 39.3628 49.155C39.3 48.9294 39.2483 48.1498 39.2483 47.4235L39.2478 46.1021H37.4485V50.8815ZM41.2715 47.0017V47.9014H43.1836V46.1021H41.2715V47.0017Z" fill="black"/>
</svg>
