<svg width="14" height="15" viewBox="0 0 14 15" fill="none" xmlns="http://www.w3.org/2000/svg">
<path fill-rule="evenodd" clip-rule="evenodd" d="M14 4.21875V13.125C14 13.6223 13.7893 14.0992 13.4142 14.4508C13.0391 14.8025 12.5304 15 12 15H11V14.0625H12C12.2652 14.0625 12.5196 13.9637 12.7071 13.7879C12.8946 13.6121 13 13.3736 13 13.125V4.21875H11C10.6022 4.21875 10.2206 4.07059 9.93934 3.80687C9.65804 3.54315 9.5 3.18546 9.5 2.8125V0.9375H4C3.73478 0.9375 3.48043 1.03627 3.29289 1.21209C3.10536 1.3879 3 1.62636 3 1.875V10.3125H2V1.875C2 1.37772 2.21071 0.900806 2.58579 0.549175C2.96086 0.197544 3.46957 0 4 0L9.5 0L14 4.21875ZM1.6 11.1094H0V14.8584H0.791V13.6003H1.594C1.88067 13.6003 2.12467 13.5462 2.326 13.4381C2.52933 13.3287 2.68367 13.1806 2.789 12.9937C2.89879 12.7983 2.95417 12.58 2.95 12.3591C2.95 12.1247 2.89733 11.9131 2.792 11.7244C2.68648 11.5378 2.52707 11.3828 2.332 11.2772C2.132 11.1647 1.888 11.1088 1.6 11.1094ZM2.145 12.3591C2.1484 12.4826 2.1192 12.6049 2.06 12.7153C2.00692 12.8115 1.92392 12.8903 1.822 12.9412C1.70551 12.995 1.5768 13.0214 1.447 13.0181H0.788V11.7H1.448C1.666 11.7 1.83667 11.7566 1.96 11.8697C2.08333 11.9841 2.145 12.1472 2.145 12.3591ZM3.362 11.1094V14.8584H4.822C5.22333 14.8584 5.556 14.7844 5.82 14.6363C6.08716 14.4864 6.29577 14.2599 6.415 13.9903C6.54567 13.7091 6.611 13.3703 6.611 12.9741C6.611 12.5803 6.54567 12.2444 6.415 11.9662C6.29693 11.6999 6.09038 11.4763 5.826 11.3287C5.562 11.1825 5.227 11.1094 4.821 11.1094H3.362ZM4.153 11.7141H4.716C4.96333 11.7141 5.16633 11.7616 5.325 11.8566C5.48952 11.9583 5.61389 12.1078 5.679 12.2822C5.75767 12.4709 5.797 12.7063 5.797 12.9881C5.8001 13.1751 5.77724 13.3617 5.729 13.5431C5.69451 13.6866 5.62768 13.8215 5.533 13.9388C5.44599 14.0439 5.33072 14.1254 5.199 14.175C5.04465 14.2291 4.88074 14.2552 4.716 14.2519H4.153V11.7141ZM7.896 13.3669V14.8584H7.106V11.1094H9.654V11.7216H7.896V12.7688H9.502V13.3669H7.896Z" fill="black"/>
</svg>
