<svg width="21" height="21" viewBox="0 0 21 21" fill="none" xmlns="http://www.w3.org/2000/svg">
<path fill-rule="evenodd" clip-rule="evenodd" d="M9.19382 0.0462996C7.34216 0.224108 5.56071 0.921497 4.02076 2.07181C3.51839 2.44721 2.4373 3.52692 2.06783 4.02237C0.243269 6.46995 -0.397949 9.40785 0.240302 12.3972C0.348095 12.9021 0.657233 13.8303 0.888641 14.344C1.66732 16.0724 2.95154 17.576 4.5799 18.6654C5.12321 19.0289 6.10225 19.5196 6.72626 19.7411C8.96044 20.5338 11.4632 20.5289 13.6489 19.7275C14.1347 19.5495 15.1329 19.0625 15.5305 18.8097C17.7104 17.4241 19.3006 15.2981 19.9622 12.8847C20.1291 12.2757 20.2522 11.5959 20.2854 11.0973C20.2988 10.896 20.3252 10.7405 20.3437 10.752C20.3623 10.7637 20.3764 10.4814 20.3748 10.125C20.3732 9.76861 20.3584 9.51208 20.3416 9.5548C20.3224 9.60405 20.302 9.49468 20.286 9.25674C20.1687 7.50041 19.4244 5.57617 18.2589 4.01545C17.8908 3.52237 16.8077 2.43969 16.3166 2.0734C14.2312 0.518808 11.7191 -0.196185 9.19382 0.0462996ZM9.47408 2.38847C6.16772 2.70156 3.4371 5.02078 2.60185 8.22549C2.27907 9.46343 2.27907 10.8811 2.60185 12.1191C3.26918 14.6792 5.14359 16.7027 7.64299 17.5609C9.51463 18.2037 11.5461 18.1074 13.3849 17.2888C15.0783 16.5348 16.534 15.0787 17.2822 13.3904C18.3499 10.9814 18.1778 8.27573 16.8168 6.07557C16.1885 5.05995 15.2791 4.15053 14.2634 3.52217C13.3813 2.97668 12.3695 2.60524 11.3388 2.44879C10.8153 2.36948 9.96558 2.34179 9.47408 2.38847ZM9.74268 4.43673C9.50395 4.52118 9.23556 4.77514 9.1062 5.03859L8.99465 5.26564L8.97052 8.97609L5.26008 9.00022L5.03302 9.11177C4.13923 9.55065 4.13923 10.7939 5.03302 11.2328L5.26008 11.3444L8.97052 11.3685L8.98259 13.2237L8.99465 15.0791L9.1062 15.306C9.54509 16.1998 10.7884 16.1998 11.2273 15.306L11.3388 15.0791L11.3509 13.2237L11.3629 11.3685L13.2182 11.3564L15.0736 11.3444L15.3004 11.2328C16.1942 10.7939 16.1942 9.55065 15.3004 9.11177L15.0736 9.00022L13.2182 8.98815L11.3629 8.97609L11.3388 5.26564L11.2273 5.03859C11.0939 4.76683 10.8277 4.52039 10.5746 4.43416C10.3483 4.35702 9.964 4.35821 9.74268 4.43673ZM0.0118608 10.1723C0.0118608 10.5328 0.0177943 10.6804 0.0253102 10.5C0.0326282 10.3198 0.0326282 10.0247 0.0253102 9.84456C0.0177943 9.66418 0.0118608 9.81173 0.0118608 10.1723Z" fill="black"/>
</svg>
