<svg width="62" height="57" viewBox="0 0 62 57" fill="none" xmlns="http://www.w3.org/2000/svg">
<path fill-rule="evenodd" clip-rule="evenodd" d="M29.9194 0.23791C29.732 0.383084 29.1482 1.4109 28.4224 2.87258C27.268 5.19923 27.2204 5.2721 26.8277 5.33944C26.605 5.37808 25.426 5.5481 24.2078 5.71811C22.9901 5.88812 21.8587 6.0896 21.6938 6.16523C21.3085 6.34352 20.9708 7.02799 21.0578 7.45579C21.1032 7.67824 21.7645 8.40411 23.1213 9.72228L25.1187 11.6614L24.6537 14.3259C24.2532 16.6222 24.21 17.0395 24.3385 17.3459C24.4983 17.7245 25.0805 18.1435 25.4485 18.1441C25.5713 18.1446 26.7627 17.5882 28.0965 16.9076C29.4297 16.227 30.5784 15.6706 30.6497 15.6706C30.7204 15.6706 31.8186 16.2115 33.0901 16.8728C35.7595 18.2611 36.0909 18.3373 36.6715 17.698C36.87 17.4795 37.0181 17.1819 37.0181 17.002C37.0181 16.8292 36.8195 15.5486 36.5767 14.1559L36.1353 11.6239L38.0653 9.78852C39.1271 8.77892 40.0582 7.82838 40.1345 7.67548C40.3257 7.29185 40.1855 6.68962 39.8282 6.35953C39.5264 6.08022 38.928 5.96264 35.0707 5.4239L34.0397 5.27983L32.8232 2.83504C31.5376 0.252261 31.3385 0 30.5807 0C30.3861 0 30.0882 0.107087 29.9194 0.23791ZM29.8061 5.59226C29.3091 6.57315 28.8885 7.25155 28.7034 7.37133C28.5256 7.4856 27.6926 7.66389 26.6578 7.80851L24.9117 8.05305L26.2292 9.35796C26.959 10.0811 27.5799 10.7998 27.6214 10.9698C27.6837 11.2215 27.4722 12.6926 27.1295 14.3955C27.0678 14.7035 27.1031 14.6913 28.6372 13.8942C29.7259 13.329 30.3389 13.0784 30.6329 13.0784C30.9256 13.0784 31.5196 13.3196 32.5483 13.8567C33.3683 14.2851 34.0644 14.6107 34.0947 14.5809C34.125 14.5511 34.0162 13.775 33.8524 12.8571C33.6275 11.5963 33.5843 11.1083 33.6763 10.866C33.743 10.6894 34.3639 9.98447 35.0561 9.2989L36.3142 8.05305L34.5687 7.80851C33.5899 7.67162 32.6975 7.48394 32.5382 7.38127C32.3671 7.27032 31.9425 6.56487 31.4691 5.60219C31.0373 4.72397 30.6671 4.00582 30.6463 4.00582C30.6256 4.00582 30.2475 4.7201 29.8061 5.59226ZM9.62107 10.7529C9.42981 10.8434 9.05905 11.4395 8.45272 12.6296C7.82901 13.8562 7.50312 14.3761 7.35673 14.3811C7.24175 14.3844 6.38077 14.507 5.44351 14.6532C4.04351 14.8718 3.6851 14.969 3.43998 15.1959C3.08213 15.5265 2.94247 16.1287 3.13429 16.5124C3.21058 16.6647 3.87356 17.3519 4.60665 18.0392L5.9399 19.2883L5.60953 21.1668C5.24776 23.2241 5.26739 23.4609 5.83782 23.9025C6.01619 24.0405 6.31402 24.1536 6.49912 24.1536C6.68421 24.1536 7.60296 23.7612 8.54135 23.2815L10.2476 22.4099L11.9398 23.2815C13.6579 24.1669 13.9619 24.2568 14.4285 24.0217C15.1846 23.6414 15.2385 23.213 14.8183 20.9134L14.5385 19.3816L15.9609 17.9575C17.265 16.652 17.3839 16.4964 17.3839 16.0939C17.3839 15.1263 17.0619 14.9497 14.686 14.6096C13.7005 14.4689 12.8866 14.3452 12.8776 14.3347C12.8687 14.3243 12.48 13.5642 12.0139 12.6462C11.5478 11.7277 11.0446 10.8925 10.8966 10.7904C10.5858 10.5762 10.0283 10.5602 9.62107 10.7529ZM50.3265 10.7529C50.1353 10.8434 49.7645 11.4395 49.1582 12.6296C48.5345 13.8562 48.2086 14.3761 48.0616 14.3811C47.9472 14.3844 47.0862 14.507 46.149 14.6532C44.749 14.8718 44.3905 14.969 44.1454 15.1959C43.7876 15.5265 43.6479 16.1287 43.8397 16.5124C43.916 16.6647 44.5784 17.3519 45.3121 18.0392L46.6454 19.2883L46.315 21.1668C45.9532 23.2241 45.9728 23.4609 46.5433 23.9025C46.7216 24.0405 47.0195 24.1536 47.204 24.1536C47.3891 24.1536 48.3084 23.7612 49.2468 23.2815L50.953 22.4099L52.6453 23.2815C54.3633 24.1669 54.6667 24.2568 55.134 24.0217C55.8901 23.6414 55.9433 23.213 55.5238 20.9134L55.2439 19.3816L56.6663 17.9575C57.9704 16.652 58.0893 16.4964 58.0893 16.0939C58.0893 15.1263 57.7674 14.9497 55.3914 14.6096C54.4059 14.4689 53.5921 14.3452 53.5831 14.3347C53.5741 14.3243 53.1854 13.5642 52.7193 12.6462C52.2532 11.7277 51.7501 10.8925 51.6014 10.7904C51.2913 10.5762 50.7337 10.5602 50.3265 10.7529ZM9.79607 15.4062C9.55769 15.8726 9.23854 16.3341 9.08766 16.4318C8.93622 16.5289 8.39551 16.6724 7.88622 16.7503L6.95961 16.8921L7.61586 17.5479C7.97652 17.9084 8.32708 18.3483 8.39439 18.5255C8.50657 18.8202 8.45272 19.4219 8.22051 20.468C8.16554 20.7152 8.21603 20.7042 9.14543 20.2621C9.68558 20.0048 10.1926 19.794 10.2717 19.794C10.3502 19.794 10.8304 19.9999 11.3385 20.251L12.2623 20.7081L12.1883 20.2803C12.1474 20.0457 12.08 19.5505 12.0385 19.1807L11.9634 18.5089L12.7593 17.6975L13.5558 16.8855L12.5742 16.7492C11.4103 16.5874 11.1916 16.4268 10.6223 15.3201L10.2302 14.5577L9.79607 15.4062ZM50.5015 15.4062C50.2631 15.8726 49.944 16.3341 49.7925 16.4318C49.6417 16.5289 49.101 16.6724 48.5917 16.7503L47.6651 16.8921L48.3213 17.5479C48.682 17.9084 49.0325 18.3483 49.0998 18.5255C49.212 18.8202 49.1582 19.4219 48.926 20.468C48.871 20.7152 48.9215 20.7042 49.8509 20.2621C50.391 20.0048 50.8981 19.794 50.9766 19.794C51.0557 19.794 51.5358 19.9999 52.044 20.251L52.9678 20.7081L52.8932 20.2803C52.8528 20.0457 52.7855 19.5505 52.744 19.1807L52.6688 18.5089L53.4647 17.6975L54.2612 16.8855L53.2791 16.7492C52.1158 16.5874 51.897 16.4268 51.3277 15.3201L50.9357 14.5577L50.5015 15.4062ZM28.8862 21.3291C25.3155 22.0671 22.5374 24.5698 21.4358 28.0419C21.1958 28.7975 21.1554 29.1718 21.1554 30.6335C21.1554 32.0957 21.1958 32.47 21.4358 33.2256C22.2486 35.7874 23.9408 37.8155 26.2433 38.989C27.2035 39.4786 28.5873 39.9418 29.0893 39.9418C29.6092 39.9418 29.3417 40.0339 28.097 40.284C25.8635 40.7322 24.1651 41.4288 22.4606 42.5969C21.5216 43.2399 20.1166 44.5106 19.5742 45.2078L19.2808 45.5848L18.2684 44.8242C16.7658 43.6959 15.2155 42.9915 13.4929 42.6543C12.0862 42.3788 12.1159 42.3998 12.8821 42.2232C15.4381 41.6331 17.5533 39.5156 18.1708 36.9295C18.4317 35.8377 18.3509 34.1547 17.9874 33.1081C17.265 31.0248 15.5834 29.3661 13.4329 28.6154C12.7789 28.3874 12.416 28.3438 11.1585 28.3438C9.9004 28.3438 9.5375 28.3874 8.88349 28.6154C6.73357 29.3661 5.052 31.0248 4.32901 33.1081C3.96611 34.1547 3.88534 35.8377 4.14615 36.9295C4.7637 39.5156 6.87828 41.6331 9.43429 42.2232C10.081 42.3722 10.1102 42.3921 9.78149 42.4594C6.69599 43.0909 4.92019 43.9708 3.16234 45.7371C2.14936 46.7556 1.64848 47.4577 1.03598 48.719C0.223237 50.3943 0.122276 50.8862 0.0572115 53.4993L0 55.8055L0.761138 56.5546H60.5921L61.4413 55.6935V53.6428C61.4413 52.3053 61.3998 51.6175 61.3218 51.665C61.2562 51.7048 61.2018 51.6231 61.2018 51.4823C61.2018 50.6063 60.2062 48.2167 59.3654 47.0763C58.7495 46.24 57.5475 45.0626 56.7039 44.4687C55.3314 43.5021 53.8731 42.9319 51.5644 42.4594C51.2357 42.3921 51.2649 42.3722 51.9116 42.2232C54.4671 41.6331 56.5822 39.5156 57.2003 36.9295C57.4606 35.8377 57.3798 34.1547 57.0169 33.1081C56.2939 31.0248 54.6129 29.3661 52.4624 28.6154C51.8084 28.3874 51.4455 28.3438 50.1874 28.3438C48.9299 28.3438 48.567 28.3874 47.913 28.6154C45.7625 29.3661 44.0809 31.0248 43.3585 33.1081C42.995 34.1547 42.9143 35.8377 43.1751 36.9295C43.7926 39.5156 45.9078 41.6331 48.4638 42.2232C49.23 42.3998 49.2597 42.3788 47.853 42.6543C46.131 42.9915 44.5807 43.6959 43.0775 44.8242L42.0656 45.5848L41.7723 45.2078C41.2288 44.5101 39.8237 43.2399 38.8825 42.5946C37.1494 41.4079 35.2748 40.6483 33.0756 40.2426C32.0244 40.0488 31.7333 39.9418 32.2566 39.9418C32.7587 39.9418 34.1424 39.4786 35.1026 38.989C37.4057 37.8155 39.0974 35.7874 39.9101 33.2256C40.1502 32.47 40.1911 32.0957 40.1911 30.6335C40.1911 29.1718 40.1502 28.7975 39.9101 28.0419C38.9055 24.8762 36.5621 22.555 33.3667 21.5598C32.4221 21.2656 29.8369 21.132 28.8862 21.3291ZM29.6434 23.6756C26.8642 24.105 24.5875 26.0966 23.7792 28.8075C23.6435 29.2634 23.5683 29.9115 23.5683 30.6335C23.5683 32.5583 24.27 34.2319 25.6437 35.5832C27.0167 36.935 28.7174 37.6256 30.6732 37.6256C32.6285 37.6256 34.3292 36.935 35.7022 35.5832C37.0759 34.2319 37.7776 32.5583 37.7776 30.6335C37.7776 29.3313 37.5622 28.4901 36.9188 27.2757C35.6058 24.7972 32.4608 23.2412 29.6434 23.6756ZM10.3205 30.7665C6.61803 31.3704 5.14904 35.9967 7.8234 38.6286C10.5353 41.298 15.2222 39.8054 15.8162 36.0828C16.3227 32.9116 13.5586 30.2377 10.3205 30.7665ZM49.3494 30.7665C45.647 31.3704 44.178 35.9967 46.8523 38.6286C49.5648 41.298 54.2517 39.8054 54.8457 36.0828C55.3516 32.9116 52.5875 30.2377 49.3494 30.7665ZM29.3882 42.5334C26.6174 42.8326 24.1567 44.0105 22.1913 45.9784C20.1031 48.0693 19.0862 50.3082 18.7659 53.5203L18.6986 54.1981H42.6473L42.58 53.5203C42.3236 50.9502 41.7195 49.2611 40.3975 47.4235C38.6688 45.0185 35.9939 43.2835 33.1541 42.7255C31.9975 42.498 30.4472 42.4191 29.3882 42.5334ZM9.94359 44.8976C6.53109 45.3546 3.55946 47.9126 2.72204 51.1136C2.6149 51.5237 2.49487 52.3848 2.45505 53.0284L2.38269 54.1981H16.3064L16.307 53.5793C16.3075 52.1999 16.7994 50.1608 17.5342 48.4861L17.8954 47.6636L17.1909 47.0404C16.3479 46.2947 14.4246 45.3209 13.3135 45.0781C12.241 44.8429 10.8915 44.7706 9.94359 44.8976ZM29.8442 45.1349C29.3304 45.6405 29.3304 46.2604 29.8442 46.7661C30.128 47.0454 30.3182 47.1287 30.6732 47.1287C31.3205 47.1287 31.8702 46.5878 31.8702 45.9508C31.8702 45.6014 31.7855 45.4137 31.5017 45.1349C31.2184 44.8556 31.0277 44.7723 30.6732 44.7723C30.3182 44.7723 30.128 44.8556 29.8442 45.1349ZM49.0135 44.8987C47.3252 45.1145 45.362 45.9811 44.155 47.0432L43.4505 47.6636L43.8117 48.4861C44.547 50.1608 45.0384 52.1999 45.0395 53.5793V54.1981H58.9632L58.8909 53.0284C58.7641 50.975 58.2492 49.573 57.087 48.1118C55.6775 46.3399 53.5747 45.1818 51.243 44.8943C50.1532 44.7601 50.0988 44.7601 49.0135 44.8987ZM34.6152 46.3355C34.1132 46.6684 33.9304 47.2082 34.1458 47.7199C34.2299 47.9197 34.6175 48.3249 35.0073 48.6197C35.755 49.186 36.5307 50.0714 36.8953 50.7747C37.4679 51.8797 38.3687 52.18 39.0626 51.4972C39.6947 50.8751 39.5001 50.1045 38.3099 48.5137C37.4186 47.3236 35.8638 46.0683 35.2793 46.0683C35.1357 46.0683 34.8368 46.1887 34.6152 46.3355ZM0.0734776 53.7858C0.0740385 54.9521 0.0919872 55.4131 0.113301 54.8103C0.135176 54.2075 0.135176 53.2537 0.113301 52.6895C0.0914263 52.1259 0.0734776 52.6194 0.0734776 53.7858Z" fill="black"/>
</svg>
