<svg width="17" height="19" viewBox="0 0 17 19" fill="none" xmlns="http://www.w3.org/2000/svg">
<path fill-rule="evenodd" clip-rule="evenodd" d="M7.60782 0.0436645C5.03342 0.530215 3.29178 2.93603 3.66832 5.4852C3.82222 6.52611 4.26036 7.41124 4.99838 8.17168C5.19786 8.37737 5.35402 8.55086 5.34554 8.55764C5.33706 8.56423 5.23026 8.59136 5.10839 8.61773C4.24699 8.80384 3.21511 9.31017 2.46052 9.91708C2.05854 10.2405 1.54525 10.7862 1.22935 11.226C0.922883 11.6529 0.491147 12.5039 0.334426 12.9905C0.0827683 13.7718 0.0288955 14.1538 0.00723335 15.3115C-0.0149939 16.505 0.00459619 16.6847 0.201628 17.0857C0.437462 17.5661 0.941531 17.9473 1.47009 18.0451C1.60439 18.07 2.81258 18.0801 4.86803 18.0735C8.02298 18.0636 8.05877 18.0626 8.16181 17.9858C8.35865 17.8388 8.42137 17.7173 8.42137 17.483C8.42137 17.3037 8.4031 17.2421 8.31608 17.1281C8.25825 17.0522 8.17348 16.9688 8.12771 16.9426C8.0631 16.9057 7.31924 16.8906 4.81453 16.8761C1.62605 16.8574 1.5833 16.8561 1.48064 16.7795C1.42337 16.7367 1.34162 16.6548 1.29886 16.5975C1.22446 16.4977 1.22107 16.4466 1.22314 15.4311C1.22559 14.2776 1.25704 14.0274 1.48591 13.3444C2.09565 11.5252 3.61389 10.1804 5.54897 9.74529C5.85469 9.67673 6.08469 9.66392 7.49781 9.63755C8.72747 9.61475 9.16542 9.59384 9.38167 9.54788C11.3767 9.12331 12.8902 7.55892 13.2091 5.592C13.2818 5.14406 13.2809 4.4213 13.2072 3.99785C12.8766 2.09799 11.4974 0.61272 9.60507 0.118634C9.26676 0.0302905 9.12229 0.0144677 8.55323 0.00297734C8.08853 -0.00625261 7.80918 0.00561449 7.60782 0.0436645ZM7.8122 1.24714C6.37308 1.52178 5.26624 2.5738 4.90834 4.00746C4.81868 4.36592 4.81868 5.25953 4.90834 5.61818C5.08032 6.30666 5.39207 6.85763 5.89369 7.35925C6.39512 7.86068 6.94515 8.17205 7.63476 8.34498C7.98926 8.4337 8.88363 8.43313 9.2451 8.34403C9.93999 8.17262 10.4653 7.87444 10.9837 7.35737C11.4997 6.84294 11.7961 6.32117 11.9725 5.61781C12.0612 5.26368 12.0604 4.36912 11.9713 4.00746C11.8054 3.33462 11.491 2.77347 11.005 2.28221C10.5117 1.78342 9.98482 1.47808 9.31273 1.30158C8.93769 1.20287 8.1861 1.17575 7.8122 1.24714ZM12.2477 9.65789C12.2166 9.66411 12.0638 9.68972 11.9084 9.71496C10.6428 9.92066 9.47886 10.7977 8.88363 11.9942C8.0064 13.7577 8.48354 15.9177 10.0225 17.149C10.3508 17.4116 10.9155 17.7228 11.3 17.8531C12.7197 18.334 14.2918 18.0227 15.442 17.0328C16.3819 16.2238 16.947 14.8807 16.8719 13.6341C16.8327 12.9837 16.6954 12.4926 16.3842 11.8914C15.7628 10.6905 14.5913 9.87376 13.2089 9.6771C12.9678 9.64282 12.3842 9.63114 12.2477 9.65789ZM12.1535 10.8851C10.8381 11.1449 9.90382 12.1044 9.6806 13.4245C9.53085 14.309 9.87349 15.3349 10.5382 15.9921C11.1308 16.5779 11.8139 16.8556 12.6623 16.8556C13.3189 16.8556 13.7827 16.7228 14.296 16.3877C15.6921 15.4762 16.093 13.6102 15.1898 12.2266C14.765 11.576 14.165 11.1473 13.3792 10.9329C13.1224 10.8629 12.4074 10.835 12.1535 10.8851ZM12.4172 12.104C12.1456 12.2248 12.0591 12.4163 12.0591 12.898V13.2504L11.6472 13.2632C11.3023 13.2738 11.2181 13.2887 11.131 13.3536C10.9668 13.4765 10.8837 13.6123 10.8635 13.791C10.8389 14.0099 10.9212 14.1992 11.1001 14.336C11.2335 14.4377 11.2685 14.4454 11.6507 14.4573L12.0591 14.4701V14.8261C12.0591 15.248 12.1086 15.3912 12.3066 15.5423C12.4255 15.6329 12.485 15.651 12.666 15.651C12.9004 15.651 13.0218 15.5882 13.169 15.3914C13.2338 15.3046 13.2486 15.2204 13.2594 14.8787L13.272 14.4699L13.6808 14.4573C14.0225 14.4465 14.1067 14.4318 14.1935 14.3669C14.3903 14.2197 14.4529 14.0983 14.4529 13.8639C14.4529 13.6829 14.435 13.6234 14.3444 13.5045C14.1933 13.3065 14.05 13.257 13.6282 13.257H13.2722L13.2594 12.8488C13.2475 12.4664 13.2398 12.4314 13.1381 12.298C12.9629 12.0686 12.6726 11.9904 12.4172 12.104Z" fill="white"/>
</svg>
