<svg width="63" height="63" viewBox="0 0 63 63" fill="none" xmlns="http://www.w3.org/2000/svg">
<path fill-rule="evenodd" clip-rule="evenodd" d="M26.4101 0.178055C24.1666 0.778794 22.1409 2.43435 21.1354 4.48954C20.4046 5.98114 20.3149 6.55498 20.3149 9.75336V12.6155L19.711 13.1356C19.3786 13.4218 18.9361 13.9643 18.7273 14.3422C18.3802 14.9692 18.3469 15.1318 18.3475 16.234C18.3475 17.2536 18.3943 17.529 18.6466 18.0119C19.346 19.3498 20.5551 20.1657 21.9904 20.2688L22.8402 20.3303L23.049 20.8536C23.3955 21.7227 24.0648 22.7326 24.8455 23.5633L25.5845 24.3504L25.2035 24.3876C24.939 24.4132 24.6988 24.321 24.4176 24.0853C23.6863 23.4736 22.3964 22.837 21.3531 22.5732C20.3988 22.3317 20.0178 22.317 15.8459 22.3554C11.3654 22.3964 11.3634 22.3964 10.5078 22.7275C8.13238 23.6459 6.2943 25.4981 5.44507 27.8287C5.18313 28.5473 5.15431 28.8822 5.10948 31.7879L5.06016 34.9626L4.46263 35.4871C4.13408 35.776 3.69537 36.3184 3.48787 36.6937C3.14331 37.3156 3.11065 37.4802 3.11065 38.5811C3.11129 39.6007 3.1574 39.8761 3.40973 40.359C4.10654 41.6905 5.31955 42.5128 6.73813 42.6153L7.57263 42.6755L7.97483 43.5382C8.38152 44.4105 9.65921 46.1409 10.1524 46.4861C10.406 46.6642 10.3848 46.6783 9.74887 46.7609C7.28123 47.0811 4.88853 48.3018 3.094 50.1565C1.6594 51.6392 0.822333 53.1455 0.308695 55.1712C0.024337 56.2927 0 56.6289 0 59.3988C0 62.3801 0.00256186 62.4102 0.293324 62.6837L0.587289 62.9597H62.4256L62.7016 62.6657C62.9693 62.3814 62.9776 62.2776 62.977 59.3963C62.9757 56.1479 62.8406 55.1994 62.1399 53.5336C60.6413 49.9708 57.0855 47.2611 53.2544 46.7641L52.6094 46.6802L53.2569 46.0276C54.0107 45.2674 54.7588 44.1716 55.1232 43.2948L55.38 42.6768L56.2267 42.6159C57.6587 42.5128 58.8685 41.6956 59.5672 40.359C59.8202 39.8761 59.8663 39.6007 59.8663 38.5811C59.867 37.4802 59.8337 37.3156 59.4898 36.6937C59.2816 36.3184 58.8429 35.776 58.5144 35.4871L57.9168 34.9626L57.8713 31.7879C57.8272 28.7362 57.8131 28.5812 57.4973 27.7576C56.5905 25.3924 54.7402 23.5543 52.3987 22.6923C51.6481 22.4163 51.4195 22.4015 47.1785 22.3586C43.4056 22.3202 42.6025 22.3452 41.8013 22.5232C40.7778 22.7506 39.497 23.3609 38.6746 24.0123C38.3006 24.3081 38.0476 24.4138 37.7742 24.3876L37.3931 24.3504L38.1322 23.5633C38.9122 22.7326 39.5821 21.7227 39.9286 20.8536L40.1374 20.3303L40.9873 20.2695C42.4078 20.1677 43.6003 19.3754 44.2913 18.0753C44.5885 17.5169 44.6295 17.2953 44.6295 16.234C44.6301 15.1331 44.5975 14.9685 44.2529 14.3466C44.0454 13.9713 43.6067 13.4289 43.2781 13.14L42.6806 12.6155L42.6345 9.44147C42.5909 6.3891 42.5762 6.23411 42.2611 5.4105C41.3542 3.04533 39.5053 1.20853 37.1625 0.344571C36.4055 0.0659775 36.2102 0.0544494 31.7424 0.023708C27.9843 -0.00255028 26.9762 0.0262698 26.4101 0.178055ZM51.5501 0.234415C48.9487 0.925456 46.6693 2.78915 45.5652 5.1287C44.9074 6.52103 44.6557 7.83011 44.7249 9.4959C44.8287 11.9898 45.6042 13.8119 47.2969 15.5347C48.3313 16.5876 49.6147 17.392 51.007 17.8608C51.8921 18.1586 52.1855 18.1932 53.8359 18.1932C55.4966 18.1925 55.7765 18.1592 56.6929 17.8518C59.4609 16.9219 61.6346 14.7412 62.5729 11.9527C62.8707 11.0676 62.9053 10.7736 62.9053 9.12381C62.9046 7.46313 62.8713 7.18325 62.5639 6.26678C62.0816 4.83154 61.413 3.76135 60.3057 2.65402C59.1913 1.53964 58.1166 0.870378 56.6929 0.404133C55.2782 -0.0589096 52.9444 -0.135763 51.5501 0.234415ZM27.4937 2.15447C25.6505 2.42282 23.8457 3.77288 23.033 5.49056C22.497 6.62415 22.3522 7.61299 22.349 10.1716L22.3464 12.171L24.8544 12.1698C26.234 12.1698 27.7256 12.1102 28.17 12.0378C30.7549 11.619 32.4975 9.41201 32.5033 6.55242L32.5046 6.07656H34.5361L34.5367 8.13944C34.5373 9.27431 34.5937 10.4053 34.6622 10.6532C34.8275 11.2469 35.5268 11.9091 36.1397 12.0506C36.41 12.1134 37.5308 12.1666 38.6311 12.1678L40.6305 12.171L40.628 10.1716C40.6267 9.07129 40.5684 7.77118 40.4986 7.28252C40.1207 4.63876 38.0054 2.52337 35.3616 2.14551C34.2927 1.99244 28.5601 1.99948 27.4937 2.15447ZM52.8836 2.14743C51.4195 2.337 49.7467 3.18495 48.7335 4.25065C46.5848 6.51015 46.1986 10.0576 47.8074 12.7423C49.0857 14.8744 51.2741 16.1175 53.7789 16.1328C55.7745 16.145 57.3756 15.4873 58.7878 14.0757C60.1795 12.684 60.8494 11.0746 60.8494 9.12381C60.8494 4.86228 57.1214 1.59728 52.8836 2.14743ZM52.8202 6.07656V8.10806H48.7572V10.1396H52.8202V14.2025H54.8516V10.1396H58.9146V8.10806H54.8516V4.04507H52.8202V6.07656ZM32.1799 12.4061C30.6844 13.7863 29.3452 14.2025 26.405 14.2025H24.3408L24.4125 16.3295C24.4682 17.9837 24.5425 18.6396 24.7475 19.2813C26.1187 23.5806 30.8669 25.5288 34.8537 23.4288C35.8304 22.9139 37.1536 21.5901 37.6666 20.6147C38.3416 19.3306 38.4838 18.6517 38.5632 16.3295L38.6362 14.2025H37.126C35.7222 14.2025 35.5614 14.1763 34.8537 13.8368C34.0826 13.4667 33.3122 12.7673 32.9951 12.1512L32.8222 11.8137L32.1799 12.4061ZM21.7873 14.3345C21.2545 14.4946 20.5846 15.1965 20.4347 15.7537C20.1696 16.7381 20.883 17.9088 21.8866 18.1349L22.3464 18.2386V16.2206C22.3464 15.1107 22.3035 14.2077 22.2517 14.2134C22.1991 14.2192 21.9904 14.2743 21.7873 14.3345ZM40.6305 16.2187V18.2386L41.0961 18.1342C41.3536 18.076 41.7545 17.8364 41.9934 17.5969C42.7466 16.8444 42.7792 15.6858 42.069 14.9391C41.6629 14.5119 41.4779 14.4004 40.9796 14.2813L40.6305 14.1981V16.2187ZM12.2569 24.5016C10.4143 24.7699 8.60888 26.12 7.79679 27.8376C7.2601 28.9712 7.116 29.9601 7.11279 32.518L7.11023 34.5181L9.61758 34.5169C10.9971 34.5169 12.4893 34.4573 12.9332 34.3849C15.518 33.9661 17.2613 31.7591 17.2671 28.8995L17.2677 28.4237H19.2992L19.3005 30.4865C19.3005 31.6214 19.3568 32.7524 19.426 33.0003C19.5906 33.594 20.29 34.2562 20.9029 34.3977C21.1731 34.4605 22.2946 34.5137 23.3942 34.5149L25.3943 34.5181L25.3918 32.518C25.3898 31.4184 25.3316 30.1183 25.2618 29.6296C24.8839 26.9858 22.7685 24.8705 20.1247 24.4926C19.0558 24.3395 13.3232 24.3466 12.2569 24.5016ZM42.7306 24.5016C40.8874 24.7699 39.0826 26.12 38.2699 27.8376C37.7338 28.9712 37.5891 29.9601 37.5859 32.518L37.5833 34.5181L40.0913 34.5169C41.4702 34.5169 42.9624 34.4573 43.4069 34.3849C45.9911 33.9661 47.7344 31.7591 47.7401 28.8995L47.7414 28.4237H49.7729L49.7735 30.4865C49.7735 31.6214 49.8305 32.7524 49.8991 33.0003C50.0643 33.594 50.7637 34.2562 51.3759 34.3977C51.6469 34.4605 52.7676 34.5137 53.8673 34.5149L55.8674 34.5181L55.8648 32.518C55.8636 31.4184 55.8053 30.1183 55.7355 29.6296C55.3576 26.9858 53.2416 24.8705 50.5978 24.4926C49.5289 24.3395 43.7963 24.3466 42.7306 24.5016ZM26.6573 26.8866C27.2875 28.122 27.4258 29.0609 27.4258 32.103V34.9626L28.0298 35.4826C28.7688 36.1193 29.3158 37.0889 29.417 37.942L29.4925 38.5811H33.4851L33.5607 37.942C33.6618 37.0889 34.2088 36.1193 34.9479 35.4826L35.5518 34.9626V32.103C35.5518 29.0609 35.6901 28.122 36.3203 26.8866C36.5624 26.4126 36.5631 26.3922 36.3389 26.3922C36.1884 26.3922 35.5179 27.1299 34.4637 28.4544C32.0851 31.4421 32.0569 31.4709 31.4888 31.4709C30.9207 31.4709 30.8926 31.4421 28.5139 28.4544C27.4598 27.1299 26.7886 26.3922 26.6387 26.3922C26.4146 26.3922 26.4152 26.4126 26.6573 26.8866ZM29.7109 26.4613C29.7109 26.5836 31.3883 28.6139 31.4888 28.6139C31.5894 28.6139 33.2661 26.5836 33.2661 26.4613C33.2661 26.4235 32.4661 26.3922 31.4888 26.3922C30.5109 26.3922 29.7109 26.4235 29.7109 26.4613ZM16.9436 34.7532C15.4476 36.1333 14.1084 36.5496 11.1681 36.5496H9.10458L9.17567 38.6766C9.23139 40.3308 9.30568 40.9866 9.51062 41.6284C10.8818 45.9277 15.6301 47.8759 19.6169 45.7759C20.5935 45.261 21.9167 43.9372 22.4297 42.9618C23.1047 41.6777 23.2469 40.9988 23.327 38.6766L23.4 36.5496H21.8892C20.4859 36.5496 20.3246 36.5234 19.6169 36.1839C18.8458 35.8138 18.0753 35.1144 17.7589 34.4983L17.5854 34.1608L16.9436 34.7532ZM47.4167 34.7532C45.9206 36.1333 44.5821 36.5496 41.6412 36.5496H39.5776L39.6494 38.6766C39.7051 40.3308 39.7794 40.9866 39.9837 41.6284C41.3549 45.9277 46.1038 47.8759 50.0899 45.7759C51.0666 45.261 52.3904 43.9372 52.9034 42.9618C53.5784 41.6777 53.7206 40.9988 53.8 38.6766L53.873 36.5496H52.3622C50.959 36.5496 50.7976 36.5234 50.0899 36.1839C49.3188 35.8138 48.5484 35.1144 48.232 34.4983L48.0584 34.1608L47.4167 34.7532ZM6.55048 36.6816C6.01763 36.841 5.34837 37.5436 5.19786 38.1008C4.93336 39.0852 5.64681 40.2559 6.65039 40.482L7.11023 40.5857V38.5677C7.11023 37.4578 7.06732 36.5548 7.01481 36.5605C6.96229 36.5663 6.7535 36.6214 6.55048 36.6816ZM25.3943 38.5658V40.5857L25.8593 40.4813C26.1168 40.423 26.5177 40.1835 26.7566 39.944C27.5097 39.1915 27.543 38.0329 26.8328 37.2861C26.4261 36.859 26.241 36.7475 25.7434 36.6284L25.3943 36.5451V38.5658ZM37.0242 36.6816C36.4907 36.841 35.8214 37.5436 35.6716 38.1008C35.4064 39.0852 36.1199 40.2559 37.1235 40.482L37.5833 40.5857V38.5677C37.5833 37.4578 37.5404 36.5548 37.4879 36.5605C37.436 36.5663 37.2266 36.6214 37.0242 36.6816ZM55.8674 38.5658V40.5857L56.333 40.4813C56.5905 40.423 56.9907 40.1835 57.2303 39.944C57.9828 39.1915 58.0161 38.0329 57.3058 37.2861C56.8992 36.859 56.7141 36.7475 56.2164 36.6284L55.8674 36.5451V38.5658ZM28.4928 41.2172C27.7608 42.0671 26.8411 42.5384 25.7658 42.6153L24.9063 42.6768L24.6501 43.2948C24.2857 44.1716 23.537 45.2674 22.7839 46.0276L22.1364 46.6802L22.7813 46.7628C24.4119 46.9716 26.4536 47.7869 27.862 48.7924C29.1935 49.7422 30.7011 51.5175 31.4228 52.986C31.469 53.0795 31.5087 53.0795 31.5541 52.986C32.2766 51.5175 33.7842 49.7422 35.115 48.7924C36.5234 47.7875 38.5657 46.9716 40.1944 46.7635L40.8368 46.6808L40.1893 46.018C39.4227 45.2322 38.6842 44.1517 38.3275 43.2948L38.0707 42.6768L37.2112 42.6153C36.1365 42.5384 35.2169 42.0671 34.4848 41.2172L33.9648 40.6126H29.0128L28.4928 41.2172ZM10.6532 48.8225C10.4751 48.8705 10.5341 49.2977 11.1278 52.2559C11.5005 54.1145 11.8233 55.6529 11.8451 55.6746C11.8662 55.6964 12.5489 55.0444 13.3616 54.2259L14.8385 52.7388L13.2367 50.7387C11.7727 48.9109 11.6017 48.7405 11.2456 48.754C11.031 48.7617 10.7646 48.793 10.6532 48.8225ZM14.4747 48.8084C14.4747 48.9307 16.1514 50.9609 16.252 50.9609C16.3525 50.9609 18.0298 48.9307 18.0298 48.8084C18.0298 48.7706 17.2299 48.7392 16.252 48.7392C15.2746 48.7392 14.4747 48.7706 14.4747 48.8084ZM19.2672 50.7387L17.6654 52.7388L19.1429 54.2259C19.9557 55.0444 20.6377 55.6964 20.6595 55.6746C20.6806 55.6529 21.0034 54.1164 21.3755 52.2604C22.0442 48.9262 22.0493 48.884 21.7873 48.8135C21.0034 48.6035 20.9381 48.6528 19.2672 50.7387ZM41.1262 48.8225C40.9482 48.8705 41.0078 49.2977 41.6008 52.2559C41.9736 54.1145 42.2963 55.6529 42.3181 55.6746C42.3399 55.6964 43.022 55.0444 43.8347 54.2259L45.3122 52.7388L43.7098 50.7387C42.2457 48.9109 42.0747 48.7405 41.7187 48.754C41.5041 48.7617 41.2377 48.793 41.1262 48.8225ZM44.9478 48.8084C44.9478 48.9307 46.6251 50.9609 46.7257 50.9609C46.8262 50.9609 48.5029 48.9307 48.5029 48.8084C48.5029 48.7706 47.703 48.7392 46.7257 48.7392C45.7477 48.7392 44.9478 48.7706 44.9478 48.8084ZM49.7409 50.7387L48.1391 52.7388L49.616 54.2259C50.4287 55.0444 51.1108 55.6964 51.1326 55.6746C51.1544 55.6529 51.4765 54.1164 51.8492 52.2604C52.5179 48.9262 52.523 48.884 52.2604 48.8135C51.4765 48.6035 51.4112 48.6528 49.7409 50.7387ZM7.17364 49.7492C5.3458 50.649 3.92914 52.067 3.04468 53.8814C2.34019 55.3275 2.16151 56.2177 2.0712 58.7379L1.99307 60.9282H30.5115L30.4327 58.7379C30.3424 56.2068 30.1624 55.3147 29.4548 53.8814C28.5389 52.0254 27.1485 50.6401 25.2919 49.7332C24.7123 49.4501 24.2114 49.2445 24.1794 49.2766C24.1474 49.3086 23.717 51.3574 23.2226 53.8301C22.2324 58.7827 22.1902 58.8967 21.3416 58.8967C20.924 58.8967 20.7095 58.7174 18.5704 56.5809L16.252 54.265L13.9335 56.5809C11.7945 58.7174 11.5799 58.8967 11.1623 58.8967C10.3176 58.8967 10.267 58.7635 9.33386 54.0716C8.35078 49.1273 8.37704 49.2465 8.27072 49.2478C8.22589 49.249 7.73211 49.4745 7.17364 49.7492ZM37.6467 49.7492C35.8189 50.649 34.4022 52.067 33.5177 53.8814C32.8133 55.3275 32.6346 56.2177 32.5443 58.7379L32.4661 60.9282H60.9846L60.9064 58.7379C60.8155 56.2068 60.6362 55.3147 59.9285 53.8814C59.012 52.0254 57.6216 50.6401 55.7649 49.7332C55.1853 49.4501 54.6845 49.2445 54.6525 49.2766C54.6204 49.3086 54.1901 51.3574 53.6956 53.8301C52.7062 58.7827 52.6639 58.8967 51.8153 58.8967C51.3977 58.8967 51.1832 58.7174 49.0441 56.5809L46.7257 54.265L44.4066 56.5809C42.2675 58.7174 42.0536 58.8967 41.6354 58.8967C40.7907 58.8967 40.7407 58.7635 39.8069 54.0716C38.8238 49.1273 38.8501 49.2465 38.7444 49.2478C38.6996 49.249 38.2058 49.4745 37.6467 49.7492Z" fill="black"/>
</svg>
