<svg width="19" height="19" viewBox="0 0 19 19" fill="none" xmlns="http://www.w3.org/2000/svg">
<path fill-rule="evenodd" clip-rule="evenodd" d="M8.5257 0.0411377C7.22955 0.165271 5.89667 0.586647 4.78531 1.22389C1.24986 3.25109 -0.576544 7.18795 0.162229 11.189C0.836016 14.8375 3.7022 17.813 7.32807 18.6282C8.11073 18.8043 8.50988 18.8456 9.42854 18.8456C10.3512 18.8456 10.7439 18.8047 11.545 18.6248C14.7213 17.912 17.3558 15.5073 18.385 12.3812C18.6269 11.6464 18.8254 10.6381 18.8254 10.1436C18.8254 10.0568 18.842 9.98595 18.8621 9.98595C18.8853 9.98595 18.8989 9.76217 18.8985 9.38713C18.8981 8.98685 18.886 8.80658 18.8621 8.8435C18.8367 8.88306 18.8263 8.84237 18.826 8.70091C18.8256 8.59204 18.7994 8.32682 18.7678 8.11132C18.366 5.37455 16.8645 3.0292 14.5397 1.50644C12.8156 0.377184 10.6153 -0.158908 8.5257 0.0411377ZM8.78358 1.49872C5.71 1.76695 3.1241 3.70411 1.99918 6.58122C1.63714 7.50704 1.48946 8.33397 1.48946 9.43328C1.48946 10.5324 1.63714 11.3593 1.99918 12.2853C3.05497 14.985 5.3683 16.8431 8.25295 17.3076C8.79978 17.3955 10.0394 17.3953 10.6041 17.307C13.4701 16.8589 15.8017 14.9859 16.8587 12.2825C17.2171 11.3661 17.3676 10.5235 17.3676 9.43328C17.3676 8.10115 17.1116 6.99431 16.5414 5.86034C15.1826 3.15766 12.3593 1.43599 9.35753 1.47969C9.12301 1.48308 8.86457 1.49156 8.78358 1.49872ZM6.37606 6.08525C6.14908 6.19752 6.02645 6.39775 6.00818 6.68633C5.99745 6.85304 6.01082 6.95023 6.05678 7.0414C6.09144 7.11034 6.62772 7.67676 7.24839 8.30007L8.3767 9.43328L7.24839 10.5663C6.62772 11.1896 6.09332 11.7526 6.06074 11.8174C6.02796 11.8822 6.0014 12.0222 6.0014 12.1282C6.0014 12.5312 6.25833 12.8205 6.6443 12.8525C7.01632 12.8832 7.02593 12.8762 8.27706 11.6313L9.42892 10.4855L10.5619 11.6136C11.1851 12.2341 11.7513 12.7702 11.8202 12.8049C12.0073 12.899 12.3601 12.8685 12.552 12.7416C12.8229 12.5622 12.9427 12.1088 12.7963 11.8174C12.7636 11.7526 12.2294 11.1898 11.6089 10.5667L10.4808 9.43366L11.6266 8.2818C12.8715 7.03067 12.8785 7.02106 12.8478 6.64903C12.8157 6.26307 12.5264 6.00614 12.1235 6.00614C12.0175 6.00614 11.8775 6.0327 11.8127 6.06548C11.7479 6.09806 11.1849 6.63246 10.5616 7.25313L9.42854 8.38144L8.29533 7.25313C7.67202 6.63246 7.109 6.09806 7.0442 6.06548C6.87523 5.98033 6.56952 5.98938 6.37606 6.08525ZM0.00965212 9.43328C0.00965212 9.76763 0.0153031 9.90438 0.0220843 9.7373C0.0288655 9.57003 0.0288655 9.29634 0.0220843 9.12926C0.0153031 8.96199 0.00965212 9.09874 0.00965212 9.43328Z" fill="black"/>
</svg>
