<svg width="19" height="19" viewBox="0 0 19 19" fill="none" xmlns="http://www.w3.org/2000/svg">
<path fill-rule="evenodd" clip-rule="evenodd" d="M1.52257 0.0732988C1.1658 0.166729 0.883062 0.331549 0.608235 0.606376C0.329076 0.885723 0.168211 1.16507 0.0734629 1.5354C0.00131851 1.81738 0 1.96243 0 9.46808C0 16.9735 0.00131851 17.1188 0.0734629 17.4006C0.168211 17.7711 0.329076 18.0504 0.608235 18.3296C0.887583 18.6089 1.16693 18.7698 1.53726 18.8645C1.81924 18.9365 1.96429 18.9378 9.46994 18.9378C16.9754 18.9378 17.1206 18.9365 17.4024 18.8645C17.7729 18.7698 18.0523 18.6089 18.3314 18.3296C18.6057 18.0555 18.7722 17.7703 18.86 17.4251C18.8965 17.2811 18.9378 17.1519 18.9516 17.1382C18.9655 17.1242 18.973 13.6491 18.9683 9.41552C18.9636 5.18199 18.9508 2.23424 18.9397 2.86508C18.9288 3.49573 18.916 3.97889 18.9112 3.93858C18.8999 3.84025 15.1821 0.116246 15.029 0.0497529C14.9286 0.00624028 13.8884 -0.00148273 8.35198 0.00021256C2.00478 0.00209625 1.78534 0.004545 1.52257 0.0732988ZM1.70472 1.17148C1.61505 1.20312 1.4719 1.29862 1.38694 1.38376C1.08518 1.68534 1.10967 0.968793 1.10967 9.46808C1.10967 17.9655 1.08537 17.2508 1.38619 17.5516C1.6354 17.8008 1.76707 17.8282 2.72359 17.8282H3.54732L3.55843 14.8041L3.56973 11.7801L3.66787 11.5113C3.89824 10.8808 4.37519 10.4076 4.99115 10.198L5.23433 10.1153L9.3475 10.1051C12.901 10.0965 13.4976 10.1027 13.7312 10.1509C14.6093 10.3325 15.234 11.0151 15.3519 11.9217C15.3707 12.0675 15.3867 13.4562 15.3875 15.0076L15.3886 17.8282H16.2142C17.1728 17.8282 17.3041 17.801 17.5535 17.5516C17.8528 17.2523 17.83 17.818 17.83 10.6913V4.34432L16.2114 2.72606L14.5929 1.10781H14.1678V3.50458C14.1678 5.50786 14.1588 5.93602 14.1128 6.1127C13.9402 6.77481 13.4411 7.30619 12.7622 7.55051L12.5217 7.63697H5.27125L5.01074 7.55503C4.362 7.35084 3.83947 6.81117 3.63472 6.13399C3.58273 5.96164 3.57294 5.61485 3.56069 3.52154L3.54675 1.10781L2.70739 1.11082C2.04736 1.11308 1.83318 1.12608 1.70472 1.17148ZM4.66885 3.46616L4.6794 5.82432L4.76586 5.99987C4.87662 6.22478 5.10699 6.42144 5.34113 6.49094C5.61596 6.5727 12.1397 6.57288 12.4132 6.49132C12.6567 6.41861 12.8635 6.24061 12.97 6.01193L13.0574 5.82432L13.0578 3.46616L13.0581 1.10781H4.6583L4.66885 3.46616ZM0.0180832 9.46808C0.0180832 13.7101 0.0224156 15.4453 0.0276898 13.3243C0.0329641 11.2033 0.0329641 7.73266 0.0276898 5.61165C0.0224156 3.49064 0.0180832 5.22606 0.0180832 9.46808ZM11.0835 2.40377C11.0249 2.42148 10.9352 2.47403 10.8844 2.52093C10.703 2.68801 10.6906 2.77165 10.6915 3.81633C10.6922 4.90998 10.715 5.02677 10.9567 5.17822C11.1294 5.28672 11.4629 5.26562 11.6 5.13772C11.7959 4.95444 11.8004 4.92562 11.8004 3.82443C11.8004 2.84097 11.7972 2.79557 11.7196 2.65731C11.668 2.56576 11.5834 2.48684 11.4858 2.43956C11.322 2.36026 11.2506 2.35385 11.0835 2.40377ZM5.31043 11.2615C5.01017 11.3691 4.76643 11.6433 4.70144 11.9466C4.67413 12.0736 4.66094 13.0636 4.66094 14.9816V17.8282H14.2808L14.2706 14.878C14.2592 11.6166 14.2742 11.8164 14.0188 11.5254C13.9519 11.4493 13.8293 11.3508 13.7459 11.3062L13.5944 11.2252L9.52532 11.2172C6.09818 11.2105 5.43324 11.2174 5.31043 11.2615Z" fill="#FDFDFD"/>
</svg>
