<svg width="34" height="34" viewBox="0 0 34 34" fill="none" xmlns="http://www.w3.org/2000/svg">
<path fill-rule="evenodd" clip-rule="evenodd" d="M5.84606 0.0712174C5.18484 0.290929 4.97999 0.464936 2.71626 2.73199C0.631012 4.81952 0.430011 5.04034 0.229009 5.46819C0.0247134 5.90266 0.00988543 5.9803 0.00988543 6.63173C0.00988543 7.87897 -0.292165 7.50122 4.77844 12.6003L9.15928 17.0061L4.77844 21.4113C-0.292165 26.511 0.00988543 26.1327 0.00988543 27.3799C0.00988543 28.0313 0.0247134 28.109 0.229009 28.5434C0.430011 28.9713 0.632659 29.1943 2.71626 31.2835C4.79931 33.3721 5.02173 33.5753 5.44845 33.7769C5.88175 33.9817 5.95919 33.9966 6.60887 33.9966C7.85277 33.9966 7.47603 34.2994 12.5615 29.2152L16.9549 24.8226L21.3489 29.2152C26.4344 34.2994 26.0576 33.9966 27.3015 33.9966C27.9523 33.9966 28.0281 33.9823 28.462 33.7763C28.8854 33.5753 29.1166 33.3655 31.1019 31.3821C32.2986 30.1866 33.3645 29.0781 33.4705 28.9184C33.576 28.7593 33.7116 28.49 33.7709 28.3204C33.8302 28.1503 33.906 27.9597 33.9395 27.8964C34.0235 27.7351 34.0186 26.7621 33.9335 26.8144C33.8972 26.8369 33.867 26.8017 33.867 26.7356C33.867 26.669 33.7759 26.4206 33.6644 26.1828C33.4782 25.7863 33.1004 25.3882 29.1056 21.3783L24.7506 17.0061L29.1056 12.6333C33.1004 8.624 33.4782 8.22533 33.6644 7.82886C33.7759 7.59097 33.867 7.34593 33.867 7.28426C33.867 7.22258 33.8972 7.1532 33.9335 7.13062C33.9703 7.10805 33.9999 6.85034 33.9999 6.55739C33.9999 6.21984 33.9758 6.04088 33.9335 6.06676C33.8972 6.08933 33.867 6.05354 33.867 5.98746C33.867 5.92138 33.7759 5.67249 33.6644 5.43516C33.4837 5.0497 33.2162 4.7562 31.1942 2.72868C29.1106 0.639494 28.8887 0.436302 28.462 0.234762C28.0287 0.0299182 27.9512 0.0150505 27.3015 0.0150505C26.0576 0.0150505 26.4344 -0.28781 21.3489 4.79639L16.9549 9.18898L12.5615 4.79639C8.436 0.672534 8.14109 0.39225 7.73634 0.213287C7.38651 0.0585523 7.1932 0.0189051 6.70827 0.00293599C6.33867 -0.00917837 6.01081 0.0167025 5.84606 0.0712174ZM0 6.63173C0 6.94285 0.011533 7.07005 0.0252626 6.91477C0.0395413 6.75893 0.0395413 6.50453 0.0252626 6.34924C0.011533 6.19396 0 6.32116 0 6.63173ZM0 27.3799C0 27.6905 0.011533 27.8177 0.0252626 27.6624C0.0395413 27.5071 0.0395413 27.2527 0.0252626 27.0974C0.011533 26.9416 0 27.0688 0 27.3799Z" fill="black"/>
</svg>
